G04*
G04 #@! TF.GenerationSoftware,Altium Limited,Altium Designer,26.6.0 (10)*
G04*
G04 Layer_Color=16711935*
G04 Board_Origin=12165354|10000000*
%FSLAX43Y43*%
%MOMM*%
G71*
G04*
G04 #@! TF.SameCoordinates,0C82E001-9655-4BCD-8518-51B5F1C42B65*
G04*
G04*
G04 #@! TF.FilePolarity,Positive*
G04*
G01*
G75*
%ADD11C,0.200*%
G36*
X7691Y31688D02*
X7697Y31687D01*
X7704Y31687D01*
X7713Y31685D01*
X7723Y31684D01*
X7733Y31682D01*
X7744Y31679D01*
X7756Y31676D01*
X7768Y31673D01*
X7780Y31668D01*
X7791Y31662D01*
X7803Y31656D01*
X7814Y31648D01*
X7825Y31640D01*
X7826Y31639D01*
X7827Y31637D01*
X7830Y31635D01*
X7834Y31631D01*
X7838Y31626D01*
X7843Y31620D01*
X7848Y31613D01*
X7854Y31605D01*
X7859Y31596D01*
X7864Y31587D01*
X7870Y31576D01*
X7875Y31564D01*
X7879Y31552D01*
X7883Y31538D01*
X7886Y31525D01*
X7888Y31510D01*
X7806Y31503D01*
Y31503D01*
X7805Y31506D01*
X7805Y31508D01*
X7804Y31513D01*
X7802Y31518D01*
X7801Y31524D01*
X7799Y31530D01*
X7797Y31537D01*
X7791Y31551D01*
X7788Y31559D01*
X7784Y31567D01*
X7780Y31574D01*
X7775Y31581D01*
X7770Y31587D01*
X7764Y31593D01*
X7763Y31594D01*
X7762Y31595D01*
X7760Y31596D01*
X7758Y31598D01*
X7754Y31600D01*
X7750Y31603D01*
X7746Y31605D01*
X7741Y31608D01*
X7735Y31611D01*
X7729Y31614D01*
X7722Y31617D01*
X7715Y31619D01*
X7708Y31621D01*
X7700Y31622D01*
X7691Y31623D01*
X7683Y31624D01*
X7680D01*
X7677Y31623D01*
X7673D01*
X7668Y31622D01*
X7662Y31621D01*
X7656Y31620D01*
X7649Y31618D01*
X7642Y31616D01*
X7634Y31613D01*
X7626Y31610D01*
X7617Y31605D01*
X7610Y31601D01*
X7601Y31595D01*
X7593Y31588D01*
X7586Y31581D01*
X7586Y31581D01*
X7584Y31579D01*
X7582Y31576D01*
X7580Y31573D01*
X7577Y31569D01*
X7574Y31564D01*
X7570Y31558D01*
X7566Y31551D01*
X7563Y31543D01*
X7559Y31535D01*
X7556Y31526D01*
X7553Y31515D01*
X7550Y31504D01*
X7549Y31493D01*
X7547Y31481D01*
X7547Y31468D01*
Y31467D01*
Y31465D01*
X7547Y31461D01*
Y31457D01*
X7548Y31451D01*
X7549Y31444D01*
X7550Y31437D01*
X7551Y31429D01*
X7554Y31421D01*
X7556Y31412D01*
X7559Y31403D01*
X7563Y31394D01*
X7567Y31385D01*
X7572Y31377D01*
X7578Y31369D01*
X7585Y31361D01*
X7585Y31361D01*
X7587Y31360D01*
X7588Y31358D01*
X7592Y31355D01*
X7595Y31352D01*
X7600Y31349D01*
X7605Y31346D01*
X7611Y31342D01*
X7618Y31338D01*
X7625Y31335D01*
X7633Y31331D01*
X7642Y31329D01*
X7652Y31326D01*
X7662Y31324D01*
X7673Y31323D01*
X7684Y31323D01*
X7687D01*
X7690Y31323D01*
X7693D01*
X7697Y31323D01*
X7702Y31324D01*
X7707Y31325D01*
X7717Y31327D01*
X7729Y31330D01*
X7741Y31334D01*
X7752Y31340D01*
X7753D01*
X7754Y31341D01*
X7755Y31342D01*
X7758Y31343D01*
X7763Y31347D01*
X7770Y31352D01*
X7777Y31359D01*
X7785Y31366D01*
X7793Y31375D01*
X7800Y31385D01*
X7874Y31375D01*
X7812Y31046D01*
X7494D01*
Y31121D01*
X7750D01*
X7784Y31293D01*
X7783Y31293D01*
X7781Y31292D01*
X7778Y31290D01*
X7774Y31287D01*
X7769Y31284D01*
X7763Y31281D01*
X7755Y31277D01*
X7747Y31273D01*
X7739Y31269D01*
X7729Y31266D01*
X7719Y31262D01*
X7709Y31260D01*
X7698Y31257D01*
X7687Y31255D01*
X7675Y31254D01*
X7663Y31253D01*
X7660D01*
X7655Y31254D01*
X7649Y31254D01*
X7642Y31255D01*
X7634Y31256D01*
X7624Y31258D01*
X7614Y31261D01*
X7603Y31263D01*
X7592Y31268D01*
X7580Y31272D01*
X7568Y31278D01*
X7556Y31285D01*
X7544Y31292D01*
X7532Y31301D01*
X7521Y31311D01*
X7521Y31312D01*
X7519Y31314D01*
X7516Y31317D01*
X7512Y31322D01*
X7508Y31328D01*
X7503Y31335D01*
X7498Y31343D01*
X7492Y31352D01*
X7487Y31362D01*
X7482Y31373D01*
X7477Y31386D01*
X7472Y31399D01*
X7469Y31413D01*
X7466Y31428D01*
X7464Y31444D01*
X7464Y31461D01*
Y31461D01*
Y31462D01*
Y31463D01*
Y31465D01*
X7464Y31469D01*
X7464Y31475D01*
X7465Y31483D01*
X7466Y31492D01*
X7468Y31501D01*
X7470Y31512D01*
X7473Y31524D01*
X7476Y31536D01*
X7480Y31548D01*
X7485Y31561D01*
X7491Y31574D01*
X7498Y31586D01*
X7506Y31599D01*
X7514Y31611D01*
X7515Y31611D01*
X7517Y31614D01*
X7521Y31618D01*
X7526Y31623D01*
X7532Y31629D01*
X7539Y31635D01*
X7548Y31642D01*
X7558Y31649D01*
X7570Y31657D01*
X7582Y31664D01*
X7596Y31670D01*
X7611Y31676D01*
X7628Y31681D01*
X7645Y31685D01*
X7663Y31687D01*
X7683Y31688D01*
X7686D01*
X7691Y31688D01*
D02*
G37*
G36*
X8500Y31038D02*
X8208D01*
X8203Y31038D01*
X8195D01*
X8187Y31039D01*
X8178Y31039D01*
X8168Y31040D01*
X8158Y31041D01*
X8147Y31042D01*
X8126Y31045D01*
X8115Y31047D01*
X8105Y31049D01*
X8095Y31052D01*
X8087Y31055D01*
X8086D01*
X8085Y31056D01*
X8083Y31057D01*
X8079Y31059D01*
X8076Y31060D01*
X8071Y31063D01*
X8066Y31066D01*
X8061Y31069D01*
X8056Y31073D01*
X8050Y31078D01*
X8044Y31083D01*
X8038Y31088D01*
X8032Y31095D01*
X8026Y31101D01*
X8021Y31109D01*
X8016Y31116D01*
X8015Y31117D01*
X8014Y31118D01*
X8013Y31121D01*
X8011Y31124D01*
X8010Y31128D01*
X8007Y31133D01*
X8004Y31139D01*
X8002Y31145D01*
X8000Y31152D01*
X7997Y31159D01*
X7995Y31167D01*
X7993Y31175D01*
X7991Y31184D01*
X7990Y31193D01*
X7989Y31203D01*
X7989Y31213D01*
Y31213D01*
Y31215D01*
X7989Y31219D01*
Y31224D01*
X7990Y31230D01*
X7991Y31237D01*
X7992Y31244D01*
X7994Y31252D01*
X7997Y31261D01*
X7999Y31270D01*
X8003Y31280D01*
X8007Y31290D01*
X8012Y31299D01*
X8018Y31309D01*
X8025Y31318D01*
X8033Y31327D01*
X8034Y31328D01*
X8035Y31329D01*
X8038Y31331D01*
X8041Y31335D01*
X8046Y31338D01*
X8052Y31342D01*
X8059Y31347D01*
X8066Y31352D01*
X8076Y31357D01*
X8085Y31362D01*
X8097Y31367D01*
X8109Y31372D01*
X8122Y31376D01*
X8137Y31380D01*
X8152Y31384D01*
X8169Y31386D01*
X8169D01*
X8168Y31387D01*
X8166Y31388D01*
X8163Y31389D01*
X8161Y31391D01*
X8157Y31392D01*
X8150Y31397D01*
X8142Y31401D01*
X8133Y31407D01*
X8126Y31412D01*
X8118Y31418D01*
X8118Y31419D01*
X8116Y31420D01*
X8114Y31422D01*
X8112Y31424D01*
X8108Y31428D01*
X8105Y31432D01*
X8100Y31436D01*
X8095Y31442D01*
X8090Y31448D01*
X8085Y31454D01*
X8079Y31461D01*
X8073Y31469D01*
X8067Y31477D01*
X8060Y31485D01*
X8048Y31504D01*
X7937Y31678D01*
X8043D01*
X8128Y31544D01*
X8128Y31544D01*
X8130Y31542D01*
X8132Y31539D01*
X8134Y31535D01*
X8137Y31530D01*
X8141Y31525D01*
X8145Y31519D01*
X8149Y31512D01*
X8159Y31498D01*
X8169Y31483D01*
X8179Y31469D01*
X8184Y31463D01*
X8189Y31457D01*
X8189Y31456D01*
X8190Y31455D01*
X8191Y31454D01*
X8193Y31452D01*
X8198Y31446D01*
X8203Y31440D01*
X8210Y31433D01*
X8217Y31425D01*
X8224Y31419D01*
X8232Y31414D01*
X8233Y31413D01*
X8235Y31412D01*
X8239Y31409D01*
X8244Y31407D01*
X8249Y31404D01*
X8256Y31401D01*
X8263Y31399D01*
X8270Y31397D01*
X8271D01*
X8273Y31396D01*
X8277Y31396D01*
X8281Y31395D01*
X8288Y31394D01*
X8296Y31394D01*
X8306Y31393D01*
X8415D01*
Y31678D01*
X8500D01*
Y31038D01*
D02*
G37*
G36*
X24443Y32537D02*
X24529D01*
Y32465D01*
X24443D01*
Y32312D01*
X24364D01*
Y32465D01*
X24087D01*
Y32537D01*
X24378Y32952D01*
X24443D01*
Y32537D01*
D02*
G37*
G36*
X23797Y32951D02*
X23805D01*
X23813Y32951D01*
X23822Y32950D01*
X23832Y32949D01*
X23842Y32948D01*
X23853Y32947D01*
X23874Y32944D01*
X23885Y32942D01*
X23895Y32940D01*
X23904Y32937D01*
X23913Y32934D01*
X23914D01*
X23915Y32933D01*
X23917Y32932D01*
X23921Y32931D01*
X23924Y32929D01*
X23929Y32926D01*
X23934Y32923D01*
X23939Y32920D01*
X23944Y32916D01*
X23950Y32912D01*
X23956Y32907D01*
X23962Y32901D01*
X23968Y32895D01*
X23974Y32888D01*
X23979Y32881D01*
X23984Y32873D01*
X23985Y32873D01*
X23986Y32871D01*
X23987Y32869D01*
X23989Y32866D01*
X23990Y32861D01*
X23993Y32856D01*
X23996Y32851D01*
X23998Y32845D01*
X24000Y32838D01*
X24003Y32830D01*
X24005Y32823D01*
X24007Y32814D01*
X24009Y32805D01*
X24010Y32796D01*
X24011Y32787D01*
X24011Y32777D01*
Y32776D01*
Y32774D01*
X24011Y32770D01*
Y32765D01*
X24010Y32760D01*
X24009Y32753D01*
X24008Y32745D01*
X24006Y32737D01*
X24003Y32728D01*
X24001Y32719D01*
X23997Y32709D01*
X23993Y32700D01*
X23988Y32690D01*
X23982Y32681D01*
X23975Y32671D01*
X23967Y32662D01*
X23966Y32662D01*
X23965Y32660D01*
X23962Y32658D01*
X23959Y32655D01*
X23954Y32651D01*
X23948Y32647D01*
X23941Y32642D01*
X23934Y32637D01*
X23924Y32632D01*
X23915Y32627D01*
X23903Y32622D01*
X23891Y32617D01*
X23878Y32613D01*
X23863Y32609D01*
X23848Y32606D01*
X23831Y32603D01*
X23831D01*
X23832Y32602D01*
X23834Y32602D01*
X23837Y32600D01*
X23839Y32599D01*
X23843Y32597D01*
X23850Y32593D01*
X23858Y32588D01*
X23867Y32583D01*
X23874Y32577D01*
X23882Y32571D01*
X23882Y32571D01*
X23884Y32570D01*
X23886Y32567D01*
X23888Y32565D01*
X23892Y32561D01*
X23895Y32558D01*
X23900Y32553D01*
X23904Y32548D01*
X23910Y32542D01*
X23915Y32535D01*
X23921Y32528D01*
X23927Y32521D01*
X23933Y32512D01*
X23940Y32504D01*
X23952Y32486D01*
X24063Y32312D01*
X23957D01*
X23872Y32445D01*
X23872Y32445D01*
X23870Y32447D01*
X23868Y32450D01*
X23866Y32454D01*
X23863Y32459D01*
X23859Y32465D01*
X23855Y32471D01*
X23851Y32477D01*
X23841Y32492D01*
X23831Y32506D01*
X23821Y32520D01*
X23816Y32527D01*
X23811Y32533D01*
X23811Y32533D01*
X23810Y32534D01*
X23809Y32535D01*
X23807Y32538D01*
X23802Y32543D01*
X23797Y32550D01*
X23790Y32557D01*
X23783Y32564D01*
X23776Y32571D01*
X23768Y32576D01*
X23767Y32576D01*
X23765Y32578D01*
X23761Y32580D01*
X23756Y32582D01*
X23751Y32585D01*
X23744Y32588D01*
X23737Y32591D01*
X23730Y32593D01*
X23729D01*
X23727Y32593D01*
X23723Y32594D01*
X23719Y32595D01*
X23712Y32595D01*
X23704Y32596D01*
X23694Y32596D01*
X23585D01*
Y32312D01*
X23500D01*
Y32952D01*
X23792D01*
X23797Y32951D01*
D02*
G37*
G36*
X7489Y22855D02*
X6989D01*
X6990Y22855D01*
X6991Y22854D01*
X6992Y22852D01*
X6994Y22850D01*
X6996Y22847D01*
X6999Y22844D01*
X7003Y22839D01*
X7006Y22835D01*
X7010Y22830D01*
X7015Y22824D01*
X7019Y22818D01*
X7024Y22812D01*
X7028Y22804D01*
X7034Y22797D01*
X7044Y22780D01*
X7044Y22780D01*
X7045Y22778D01*
X7047Y22776D01*
X7048Y22772D01*
X7050Y22769D01*
X7053Y22764D01*
X7056Y22759D01*
X7059Y22753D01*
X7065Y22740D01*
X7072Y22726D01*
X7078Y22712D01*
X7084Y22698D01*
X7008D01*
X7008Y22699D01*
X7007Y22701D01*
X7005Y22705D01*
X7003Y22709D01*
X7000Y22715D01*
X6996Y22722D01*
X6992Y22729D01*
X6987Y22737D01*
X6982Y22746D01*
X6976Y22755D01*
X6963Y22774D01*
X6949Y22794D01*
X6933Y22813D01*
X6933Y22814D01*
X6931Y22815D01*
X6929Y22818D01*
X6926Y22821D01*
X6922Y22825D01*
X6917Y22830D01*
X6912Y22835D01*
X6906Y22840D01*
X6900Y22846D01*
X6893Y22852D01*
X6878Y22864D01*
X6863Y22874D01*
X6855Y22879D01*
X6847Y22883D01*
Y22934D01*
X7489D01*
Y22855D01*
D02*
G37*
G36*
X7288Y22565D02*
X7289Y22565D01*
X7291Y22564D01*
X7293Y22564D01*
X7297Y22563D01*
X7304Y22561D01*
X7312Y22557D01*
X7322Y22554D01*
X7333Y22549D01*
X7345Y22544D01*
X7358Y22538D01*
X7371Y22531D01*
X7384Y22523D01*
X7397Y22514D01*
X7410Y22504D01*
X7423Y22494D01*
X7434Y22482D01*
X7445Y22470D01*
X7446Y22469D01*
X7448Y22466D01*
X7451Y22463D01*
X7454Y22457D01*
X7458Y22451D01*
X7463Y22442D01*
X7468Y22433D01*
X7473Y22423D01*
X7478Y22411D01*
X7483Y22398D01*
X7488Y22384D01*
X7492Y22369D01*
X7495Y22353D01*
X7498Y22337D01*
X7500Y22319D01*
X7500Y22300D01*
Y22294D01*
X7500Y22290D01*
Y22283D01*
X7499Y22275D01*
X7498Y22264D01*
X7496Y22253D01*
X7495Y22241D01*
X7493Y22227D01*
X7490Y22214D01*
X7486Y22200D01*
X7482Y22186D01*
X7477Y22172D01*
X7472Y22158D01*
X7465Y22145D01*
X7458Y22132D01*
X7457Y22131D01*
X7456Y22129D01*
X7453Y22126D01*
X7450Y22122D01*
X7446Y22116D01*
X7440Y22110D01*
X7434Y22103D01*
X7427Y22096D01*
X7419Y22088D01*
X7410Y22080D01*
X7400Y22072D01*
X7389Y22063D01*
X7377Y22055D01*
X7365Y22048D01*
X7351Y22040D01*
X7336Y22034D01*
X7336D01*
X7335Y22033D01*
X7333Y22032D01*
X7328Y22030D01*
X7322Y22029D01*
X7315Y22026D01*
X7306Y22023D01*
X7296Y22020D01*
X7285Y22017D01*
X7273Y22014D01*
X7259Y22011D01*
X7245Y22008D01*
X7230Y22005D01*
X7215Y22003D01*
X7199Y22001D01*
X7182Y22000D01*
X7165Y22000D01*
X7164D01*
X7163D01*
X7162D01*
X7160D01*
X7158D01*
X7155Y22000D01*
X7148D01*
X7139Y22001D01*
X7129Y22002D01*
X7118Y22003D01*
X7105Y22005D01*
X7092Y22007D01*
X7078Y22009D01*
X7064Y22012D01*
X7049Y22016D01*
X7034Y22020D01*
X7019Y22025D01*
X7005Y22031D01*
X6991Y22038D01*
X6990Y22038D01*
X6987Y22040D01*
X6984Y22042D01*
X6978Y22045D01*
X6972Y22049D01*
X6965Y22054D01*
X6957Y22060D01*
X6949Y22066D01*
X6940Y22073D01*
X6930Y22081D01*
X6921Y22090D01*
X6912Y22100D01*
X6902Y22110D01*
X6893Y22122D01*
X6885Y22134D01*
X6877Y22147D01*
X6877Y22147D01*
X6875Y22150D01*
X6874Y22153D01*
X6871Y22159D01*
X6868Y22165D01*
X6865Y22173D01*
X6862Y22183D01*
X6858Y22192D01*
X6854Y22203D01*
X6851Y22215D01*
X6847Y22228D01*
X6845Y22242D01*
X6842Y22256D01*
X6840Y22271D01*
X6839Y22286D01*
X6838Y22302D01*
Y22308D01*
X6839Y22311D01*
X6839Y22318D01*
X6840Y22326D01*
X6841Y22336D01*
X6843Y22346D01*
X6845Y22358D01*
X6847Y22371D01*
X6851Y22384D01*
X6854Y22397D01*
X6859Y22410D01*
X6865Y22424D01*
X6871Y22438D01*
X6879Y22451D01*
X6887Y22463D01*
X6888Y22464D01*
X6890Y22466D01*
X6893Y22470D01*
X6897Y22474D01*
X6901Y22479D01*
X6908Y22485D01*
X6915Y22492D01*
X6923Y22499D01*
X6932Y22507D01*
X6943Y22514D01*
X6954Y22522D01*
X6966Y22529D01*
X6979Y22537D01*
X6994Y22543D01*
X7009Y22550D01*
X7025Y22555D01*
X7045Y22472D01*
X7044Y22471D01*
X7041Y22471D01*
X7038Y22469D01*
X7033Y22467D01*
X7028Y22465D01*
X7021Y22462D01*
X7014Y22459D01*
X7006Y22455D01*
X6998Y22451D01*
X6989Y22446D01*
X6981Y22441D01*
X6972Y22435D01*
X6964Y22428D01*
X6956Y22422D01*
X6949Y22414D01*
X6943Y22406D01*
X6943Y22406D01*
X6942Y22404D01*
X6940Y22402D01*
X6938Y22399D01*
X6936Y22395D01*
X6933Y22390D01*
X6930Y22384D01*
X6927Y22377D01*
X6924Y22370D01*
X6921Y22362D01*
X6918Y22353D01*
X6916Y22344D01*
X6914Y22334D01*
X6912Y22323D01*
X6912Y22312D01*
X6911Y22300D01*
Y22293D01*
X6912Y22288D01*
X6912Y22282D01*
X6913Y22274D01*
X6914Y22266D01*
X6916Y22257D01*
X6918Y22247D01*
X6920Y22238D01*
X6923Y22227D01*
X6926Y22217D01*
X6930Y22207D01*
X6935Y22196D01*
X6940Y22186D01*
X6947Y22177D01*
X6947Y22176D01*
X6948Y22174D01*
X6950Y22172D01*
X6953Y22169D01*
X6957Y22165D01*
X6961Y22160D01*
X6966Y22155D01*
X6972Y22149D01*
X6978Y22144D01*
X6985Y22138D01*
X6993Y22132D01*
X7002Y22127D01*
X7010Y22121D01*
X7020Y22116D01*
X7030Y22111D01*
X7041Y22107D01*
X7042D01*
X7044Y22106D01*
X7047Y22105D01*
X7052Y22104D01*
X7057Y22103D01*
X7064Y22101D01*
X7071Y22099D01*
X7079Y22098D01*
X7088Y22096D01*
X7098Y22094D01*
X7108Y22092D01*
X7119Y22091D01*
X7141Y22088D01*
X7152Y22088D01*
X7164Y22087D01*
X7165D01*
X7168D01*
X7172D01*
X7178Y22088D01*
X7185Y22088D01*
X7194Y22089D01*
X7203Y22089D01*
X7212Y22090D01*
X7224Y22092D01*
X7235Y22093D01*
X7259Y22098D01*
X7271Y22100D01*
X7283Y22103D01*
X7295Y22107D01*
X7307Y22111D01*
X7307Y22111D01*
X7310Y22112D01*
X7312Y22113D01*
X7316Y22116D01*
X7322Y22118D01*
X7328Y22121D01*
X7334Y22125D01*
X7341Y22129D01*
X7348Y22134D01*
X7355Y22140D01*
X7363Y22146D01*
X7371Y22152D01*
X7378Y22159D01*
X7385Y22167D01*
X7391Y22176D01*
X7397Y22185D01*
X7398Y22185D01*
X7399Y22187D01*
X7400Y22190D01*
X7402Y22194D01*
X7404Y22198D01*
X7407Y22204D01*
X7409Y22210D01*
X7412Y22217D01*
X7415Y22225D01*
X7418Y22233D01*
X7420Y22243D01*
X7423Y22252D01*
X7425Y22262D01*
X7426Y22272D01*
X7427Y22283D01*
X7427Y22294D01*
Y22297D01*
X7427Y22300D01*
Y22306D01*
X7426Y22312D01*
X7425Y22318D01*
X7424Y22327D01*
X7422Y22335D01*
X7420Y22344D01*
X7417Y22354D01*
X7414Y22364D01*
X7410Y22374D01*
X7406Y22385D01*
X7400Y22395D01*
X7394Y22404D01*
X7387Y22414D01*
X7386Y22415D01*
X7385Y22417D01*
X7383Y22419D01*
X7379Y22422D01*
X7375Y22426D01*
X7370Y22431D01*
X7363Y22436D01*
X7356Y22441D01*
X7348Y22447D01*
X7339Y22452D01*
X7329Y22458D01*
X7318Y22463D01*
X7306Y22469D01*
X7293Y22473D01*
X7280Y22478D01*
X7265Y22481D01*
X7286Y22566D01*
X7287D01*
X7288Y22565D01*
D02*
G37*
G36*
X40489Y35653D02*
X39989D01*
X39990Y35652D01*
X39991Y35651D01*
X39992Y35650D01*
X39994Y35648D01*
X39996Y35645D01*
X39999Y35641D01*
X40003Y35637D01*
X40006Y35633D01*
X40010Y35627D01*
X40015Y35622D01*
X40019Y35616D01*
X40024Y35609D01*
X40028Y35602D01*
X40034Y35594D01*
X40044Y35578D01*
X40044Y35577D01*
X40045Y35576D01*
X40047Y35573D01*
X40048Y35570D01*
X40050Y35566D01*
X40053Y35562D01*
X40056Y35556D01*
X40059Y35550D01*
X40065Y35538D01*
X40072Y35524D01*
X40078Y35509D01*
X40084Y35495D01*
X40008D01*
X40008Y35496D01*
X40007Y35498D01*
X40005Y35502D01*
X40003Y35507D01*
X40000Y35512D01*
X39996Y35519D01*
X39992Y35526D01*
X39987Y35534D01*
X39982Y35543D01*
X39976Y35552D01*
X39963Y35572D01*
X39949Y35592D01*
X39933Y35611D01*
X39933Y35611D01*
X39931Y35613D01*
X39929Y35615D01*
X39926Y35618D01*
X39922Y35623D01*
X39917Y35627D01*
X39912Y35632D01*
X39906Y35638D01*
X39900Y35643D01*
X39893Y35649D01*
X39878Y35661D01*
X39863Y35672D01*
X39855Y35676D01*
X39847Y35680D01*
Y35731D01*
X40489D01*
Y35653D01*
D02*
G37*
G36*
Y35213D02*
Y35131D01*
X40002Y34997D01*
X40001D01*
X39999Y34996D01*
X39997Y34995D01*
X39992Y34994D01*
X39987Y34993D01*
X39982Y34992D01*
X39976Y34990D01*
X39970Y34988D01*
X39957Y34984D01*
X39951Y34983D01*
X39945Y34981D01*
X39939Y34980D01*
X39935Y34978D01*
X39930Y34977D01*
X39927Y34976D01*
X39928D01*
X39929Y34976D01*
X39931Y34975D01*
X39935Y34974D01*
X39938Y34974D01*
X39943Y34973D01*
X39948Y34971D01*
X39953Y34970D01*
X39965Y34967D01*
X39977Y34964D01*
X39990Y34961D01*
X40002Y34957D01*
X40489Y34823D01*
Y34735D01*
X39850Y34566D01*
Y34653D01*
X40269Y34750D01*
X40270D01*
X40272Y34751D01*
X40276Y34751D01*
X40280Y34753D01*
X40286Y34754D01*
X40293Y34755D01*
X40302Y34757D01*
X40310Y34759D01*
X40320Y34761D01*
X40330Y34763D01*
X40341Y34766D01*
X40352Y34768D01*
X40376Y34772D01*
X40400Y34777D01*
X40400D01*
X40399Y34778D01*
X40397D01*
X40396Y34778D01*
X40393Y34779D01*
X40390Y34779D01*
X40384Y34781D01*
X40376Y34783D01*
X40367Y34785D01*
X40357Y34787D01*
X40347Y34790D01*
X40326Y34795D01*
X40316Y34797D01*
X40307Y34800D01*
X40298Y34802D01*
X40292Y34803D01*
X40286Y34805D01*
X40284Y34806D01*
X40282Y34806D01*
X39850Y34927D01*
Y35029D01*
X40174Y35121D01*
X40174D01*
X40175Y35121D01*
X40177Y35122D01*
X40179Y35122D01*
X40182Y35123D01*
X40186Y35124D01*
X40189Y35125D01*
X40194Y35127D01*
X40199Y35128D01*
X40205Y35129D01*
X40218Y35133D01*
X40231Y35136D01*
X40247Y35140D01*
X40264Y35144D01*
X40282Y35148D01*
X40301Y35152D01*
X40320Y35157D01*
X40360Y35164D01*
X40400Y35171D01*
X40399D01*
X40397Y35171D01*
X40394Y35172D01*
X40390Y35173D01*
X40384Y35175D01*
X40377Y35176D01*
X40369Y35178D01*
X40360Y35180D01*
X40350Y35182D01*
X40340Y35184D01*
X40328Y35187D01*
X40316Y35190D01*
X40303Y35193D01*
X40290Y35196D01*
X40275Y35199D01*
X40261Y35203D01*
X39850Y35303D01*
Y35389D01*
X40489Y35213D01*
D02*
G37*
G36*
X40317Y34508D02*
X40322Y34508D01*
X40327Y34507D01*
X40333Y34506D01*
X40340Y34505D01*
X40347Y34503D01*
X40355Y34501D01*
X40363Y34499D01*
X40371Y34496D01*
X40379Y34493D01*
X40388Y34489D01*
X40396Y34484D01*
X40405Y34479D01*
X40406Y34478D01*
X40407Y34478D01*
X40409Y34476D01*
X40413Y34473D01*
X40416Y34471D01*
X40421Y34467D01*
X40426Y34463D01*
X40431Y34458D01*
X40436Y34452D01*
X40442Y34446D01*
X40448Y34439D01*
X40454Y34431D01*
X40459Y34423D01*
X40465Y34415D01*
X40470Y34405D01*
X40475Y34395D01*
X40476Y34395D01*
X40476Y34393D01*
X40477Y34390D01*
X40479Y34386D01*
X40481Y34380D01*
X40483Y34374D01*
X40485Y34368D01*
X40488Y34360D01*
X40490Y34351D01*
X40492Y34341D01*
X40494Y34331D01*
X40496Y34320D01*
X40498Y34309D01*
X40499Y34297D01*
X40500Y34285D01*
X40500Y34272D01*
Y34264D01*
X40500Y34258D01*
X40499Y34251D01*
X40499Y34242D01*
X40498Y34232D01*
X40497Y34221D01*
X40495Y34210D01*
X40494Y34199D01*
X40489Y34174D01*
X40487Y34162D01*
X40483Y34150D01*
X40479Y34138D01*
X40475Y34127D01*
X40475Y34126D01*
X40474Y34124D01*
X40472Y34121D01*
X40470Y34117D01*
X40468Y34112D01*
X40464Y34106D01*
X40460Y34100D01*
X40456Y34093D01*
X40451Y34086D01*
X40445Y34079D01*
X40439Y34071D01*
X40432Y34063D01*
X40425Y34055D01*
X40417Y34048D01*
X40408Y34041D01*
X40399Y34035D01*
X40398Y34034D01*
X40396Y34033D01*
X40394Y34031D01*
X40390Y34030D01*
X40385Y34027D01*
X40379Y34024D01*
X40373Y34021D01*
X40365Y34018D01*
X40357Y34015D01*
X40348Y34012D01*
X40339Y34009D01*
X40329Y34006D01*
X40318Y34004D01*
X40307Y34002D01*
X40296Y34000D01*
X40284Y34000D01*
X40277Y34080D01*
X40277D01*
X40279Y34080D01*
X40281D01*
X40285Y34081D01*
X40289Y34082D01*
X40294Y34083D01*
X40299Y34084D01*
X40305Y34086D01*
X40317Y34089D01*
X40331Y34093D01*
X40344Y34099D01*
X40356Y34106D01*
X40357Y34106D01*
X40358Y34107D01*
X40359Y34108D01*
X40361Y34110D01*
X40364Y34112D01*
X40367Y34115D01*
X40370Y34118D01*
X40374Y34122D01*
X40378Y34126D01*
X40382Y34131D01*
X40386Y34136D01*
X40390Y34142D01*
X40394Y34148D01*
X40398Y34155D01*
X40402Y34162D01*
X40406Y34170D01*
Y34171D01*
X40407Y34172D01*
X40408Y34175D01*
X40408Y34178D01*
X40410Y34182D01*
X40412Y34187D01*
X40414Y34193D01*
X40415Y34199D01*
X40417Y34206D01*
X40419Y34214D01*
X40420Y34221D01*
X40422Y34230D01*
X40424Y34249D01*
X40425Y34269D01*
Y34273D01*
X40424Y34277D01*
Y34281D01*
X40424Y34286D01*
X40423Y34291D01*
X40423Y34297D01*
X40421Y34311D01*
X40419Y34325D01*
X40415Y34339D01*
X40410Y34354D01*
Y34354D01*
X40410Y34355D01*
X40409Y34357D01*
X40408Y34360D01*
X40406Y34363D01*
X40404Y34366D01*
X40400Y34374D01*
X40395Y34383D01*
X40388Y34392D01*
X40380Y34401D01*
X40371Y34409D01*
X40371D01*
X40370Y34410D01*
X40368Y34410D01*
X40366Y34411D01*
X40364Y34413D01*
X40361Y34415D01*
X40354Y34418D01*
X40347Y34421D01*
X40337Y34424D01*
X40327Y34426D01*
X40316Y34427D01*
X40316D01*
X40315D01*
X40313D01*
X40311Y34427D01*
X40308D01*
X40305Y34426D01*
X40298Y34425D01*
X40290Y34423D01*
X40281Y34420D01*
X40273Y34415D01*
X40264Y34409D01*
X40263D01*
X40263Y34408D01*
X40260Y34406D01*
X40256Y34401D01*
X40253Y34398D01*
X40250Y34395D01*
X40248Y34392D01*
X40244Y34387D01*
X40241Y34383D01*
X40238Y34377D01*
X40235Y34372D01*
X40231Y34365D01*
X40229Y34359D01*
X40225Y34351D01*
Y34351D01*
X40225Y34350D01*
X40224Y34349D01*
X40224Y34346D01*
X40223Y34343D01*
X40221Y34339D01*
X40220Y34334D01*
X40218Y34328D01*
X40216Y34320D01*
X40213Y34312D01*
X40211Y34303D01*
X40208Y34293D01*
X40205Y34281D01*
X40202Y34268D01*
X40198Y34253D01*
X40194Y34238D01*
Y34237D01*
X40194Y34237D01*
Y34235D01*
X40194Y34234D01*
X40192Y34229D01*
X40191Y34223D01*
X40189Y34216D01*
X40187Y34208D01*
X40184Y34199D01*
X40181Y34190D01*
X40175Y34169D01*
X40169Y34149D01*
X40165Y34139D01*
X40161Y34130D01*
X40158Y34122D01*
X40154Y34115D01*
X40154Y34114D01*
X40153Y34113D01*
X40152Y34110D01*
X40150Y34107D01*
X40148Y34104D01*
X40145Y34099D01*
X40141Y34094D01*
X40138Y34089D01*
X40129Y34078D01*
X40119Y34067D01*
X40108Y34055D01*
X40101Y34051D01*
X40095Y34046D01*
X40094Y34046D01*
X40093Y34045D01*
X40091Y34044D01*
X40088Y34043D01*
X40085Y34041D01*
X40081Y34039D01*
X40077Y34037D01*
X40071Y34035D01*
X40065Y34033D01*
X40059Y34031D01*
X40046Y34028D01*
X40031Y34025D01*
X40023Y34024D01*
X40015Y34024D01*
X40015D01*
X40013D01*
X40010D01*
X40007Y34024D01*
X40003Y34025D01*
X39998Y34025D01*
X39992Y34026D01*
X39985Y34027D01*
X39979Y34029D01*
X39972Y34030D01*
X39964Y34033D01*
X39956Y34036D01*
X39949Y34039D01*
X39941Y34043D01*
X39932Y34047D01*
X39924Y34051D01*
X39924Y34052D01*
X39923Y34053D01*
X39920Y34054D01*
X39918Y34056D01*
X39914Y34059D01*
X39910Y34063D01*
X39906Y34067D01*
X39901Y34072D01*
X39896Y34077D01*
X39890Y34083D01*
X39885Y34089D01*
X39880Y34097D01*
X39875Y34104D01*
X39869Y34113D01*
X39865Y34122D01*
X39861Y34131D01*
X39860Y34132D01*
X39860Y34134D01*
X39859Y34136D01*
X39857Y34141D01*
X39856Y34146D01*
X39854Y34151D01*
X39851Y34158D01*
X39850Y34166D01*
X39847Y34174D01*
X39845Y34183D01*
X39844Y34193D01*
X39842Y34203D01*
X39840Y34214D01*
X39839Y34225D01*
X39839Y34237D01*
X39838Y34249D01*
Y34256D01*
X39839Y34261D01*
Y34267D01*
X39840Y34274D01*
X39840Y34282D01*
X39841Y34291D01*
X39843Y34300D01*
X39844Y34311D01*
X39848Y34331D01*
X39851Y34343D01*
X39854Y34353D01*
X39857Y34364D01*
X39862Y34374D01*
X39862Y34374D01*
X39863Y34376D01*
X39864Y34379D01*
X39866Y34383D01*
X39868Y34387D01*
X39871Y34392D01*
X39875Y34398D01*
X39879Y34404D01*
X39883Y34411D01*
X39888Y34418D01*
X39894Y34425D01*
X39900Y34432D01*
X39906Y34439D01*
X39913Y34445D01*
X39921Y34452D01*
X39929Y34457D01*
X39930Y34458D01*
X39931Y34459D01*
X39934Y34460D01*
X39937Y34462D01*
X39941Y34464D01*
X39946Y34467D01*
X39952Y34469D01*
X39958Y34472D01*
X39965Y34475D01*
X39973Y34478D01*
X39981Y34481D01*
X39990Y34483D01*
X39999Y34485D01*
X40009Y34487D01*
X40019Y34488D01*
X40029Y34489D01*
X40035Y34408D01*
X40034D01*
X40033Y34407D01*
X40029Y34407D01*
X40025Y34406D01*
X40021Y34405D01*
X40015Y34404D01*
X40008Y34402D01*
X40001Y34399D01*
X39994Y34397D01*
X39986Y34394D01*
X39979Y34390D01*
X39971Y34386D01*
X39964Y34381D01*
X39957Y34376D01*
X39950Y34370D01*
X39944Y34363D01*
X39943Y34363D01*
X39943Y34361D01*
X39941Y34360D01*
X39939Y34356D01*
X39936Y34352D01*
X39934Y34348D01*
X39931Y34342D01*
X39928Y34336D01*
X39925Y34328D01*
X39923Y34320D01*
X39920Y34311D01*
X39918Y34301D01*
X39916Y34290D01*
X39914Y34278D01*
X39913Y34266D01*
X39913Y34252D01*
Y34245D01*
X39913Y34240D01*
X39914Y34233D01*
X39914Y34227D01*
X39915Y34218D01*
X39917Y34210D01*
X39920Y34191D01*
X39922Y34182D01*
X39925Y34173D01*
X39928Y34164D01*
X39932Y34155D01*
X39936Y34147D01*
X39941Y34141D01*
X39942Y34140D01*
X39943Y34139D01*
X39944Y34137D01*
X39946Y34135D01*
X39949Y34133D01*
X39952Y34129D01*
X39956Y34127D01*
X39960Y34123D01*
X39965Y34120D01*
X39970Y34117D01*
X39982Y34111D01*
X39988Y34109D01*
X39995Y34107D01*
X40002Y34106D01*
X40009Y34106D01*
X40010D01*
X40010D01*
X40012D01*
X40015Y34106D01*
X40018Y34107D01*
X40021Y34107D01*
X40029Y34109D01*
X40038Y34112D01*
X40047Y34116D01*
X40053Y34119D01*
X40057Y34122D01*
X40062Y34126D01*
X40066Y34130D01*
X40066Y34131D01*
X40067Y34132D01*
X40068Y34133D01*
X40070Y34136D01*
X40072Y34139D01*
X40074Y34144D01*
X40077Y34149D01*
X40080Y34155D01*
X40083Y34163D01*
X40087Y34172D01*
X40091Y34183D01*
X40095Y34194D01*
X40099Y34208D01*
X40103Y34222D01*
X40108Y34239D01*
X40112Y34257D01*
Y34258D01*
X40113Y34259D01*
Y34260D01*
X40113Y34262D01*
X40114Y34264D01*
X40114Y34267D01*
X40116Y34274D01*
X40118Y34282D01*
X40120Y34292D01*
X40123Y34303D01*
X40126Y34314D01*
X40132Y34337D01*
X40135Y34349D01*
X40139Y34361D01*
X40142Y34372D01*
X40146Y34382D01*
X40149Y34391D01*
X40152Y34399D01*
X40153Y34399D01*
X40154Y34401D01*
X40155Y34404D01*
X40157Y34408D01*
X40160Y34413D01*
X40163Y34418D01*
X40166Y34424D01*
X40170Y34430D01*
X40175Y34437D01*
X40180Y34444D01*
X40191Y34458D01*
X40204Y34471D01*
X40211Y34476D01*
X40218Y34482D01*
X40218Y34482D01*
X40220Y34483D01*
X40222Y34484D01*
X40225Y34486D01*
X40229Y34488D01*
X40233Y34490D01*
X40238Y34493D01*
X40244Y34495D01*
X40250Y34497D01*
X40257Y34500D01*
X40265Y34502D01*
X40273Y34504D01*
X40281Y34506D01*
X40290Y34508D01*
X40299Y34508D01*
X40309Y34508D01*
X40309D01*
X40311D01*
X40314D01*
X40317Y34508D01*
D02*
G37*
G36*
X9408Y41312D02*
X9329D01*
Y41812D01*
X9329Y41811D01*
X9328Y41811D01*
X9327Y41809D01*
X9324Y41807D01*
X9321Y41805D01*
X9318Y41802D01*
X9314Y41799D01*
X9309Y41795D01*
X9304Y41791D01*
X9298Y41787D01*
X9292Y41782D01*
X9286Y41777D01*
X9278Y41773D01*
X9271Y41768D01*
X9254Y41757D01*
X9254Y41757D01*
X9253Y41756D01*
X9250Y41755D01*
X9247Y41753D01*
X9243Y41751D01*
X9238Y41748D01*
X9233Y41745D01*
X9227Y41742D01*
X9214Y41736D01*
X9200Y41729D01*
X9186Y41723D01*
X9172Y41717D01*
Y41793D01*
X9173Y41793D01*
X9175Y41794D01*
X9179Y41796D01*
X9183Y41799D01*
X9189Y41801D01*
X9196Y41805D01*
X9203Y41809D01*
X9211Y41814D01*
X9220Y41819D01*
X9229Y41825D01*
X9248Y41838D01*
X9268Y41852D01*
X9287Y41868D01*
X9288Y41868D01*
X9290Y41870D01*
X9292Y41872D01*
X9295Y41875D01*
X9299Y41879D01*
X9304Y41884D01*
X9309Y41890D01*
X9315Y41895D01*
X9320Y41902D01*
X9326Y41909D01*
X9338Y41923D01*
X9348Y41938D01*
X9353Y41946D01*
X9357Y41954D01*
X9408D01*
Y41312D01*
D02*
G37*
G36*
X8797Y41951D02*
X8805D01*
X8813Y41951D01*
X8822Y41950D01*
X8832Y41949D01*
X8842Y41948D01*
X8853Y41947D01*
X8874Y41944D01*
X8885Y41942D01*
X8895Y41940D01*
X8905Y41937D01*
X8913Y41934D01*
X8914D01*
X8915Y41933D01*
X8917Y41932D01*
X8921Y41931D01*
X8924Y41929D01*
X8929Y41926D01*
X8934Y41923D01*
X8939Y41920D01*
X8944Y41916D01*
X8950Y41912D01*
X8956Y41907D01*
X8962Y41901D01*
X8968Y41895D01*
X8974Y41888D01*
X8979Y41881D01*
X8984Y41873D01*
X8985Y41873D01*
X8986Y41871D01*
X8987Y41869D01*
X8989Y41866D01*
X8990Y41861D01*
X8993Y41856D01*
X8996Y41851D01*
X8998Y41845D01*
X9000Y41838D01*
X9003Y41830D01*
X9005Y41823D01*
X9007Y41814D01*
X9009Y41805D01*
X9010Y41796D01*
X9011Y41787D01*
X9011Y41777D01*
Y41776D01*
Y41774D01*
X9011Y41770D01*
Y41765D01*
X9010Y41760D01*
X9009Y41753D01*
X9008Y41745D01*
X9006Y41737D01*
X9003Y41728D01*
X9001Y41719D01*
X8997Y41709D01*
X8993Y41700D01*
X8988Y41690D01*
X8982Y41681D01*
X8975Y41671D01*
X8967Y41662D01*
X8966Y41662D01*
X8965Y41660D01*
X8962Y41658D01*
X8959Y41655D01*
X8954Y41651D01*
X8948Y41647D01*
X8941Y41642D01*
X8934Y41637D01*
X8924Y41632D01*
X8915Y41627D01*
X8903Y41622D01*
X8891Y41617D01*
X8878Y41613D01*
X8863Y41609D01*
X8848Y41606D01*
X8831Y41603D01*
X8831D01*
X8832Y41602D01*
X8834Y41602D01*
X8837Y41600D01*
X8839Y41599D01*
X8843Y41597D01*
X8850Y41593D01*
X8858Y41588D01*
X8867Y41583D01*
X8874Y41577D01*
X8882Y41571D01*
X8882Y41571D01*
X8884Y41570D01*
X8886Y41567D01*
X8888Y41565D01*
X8892Y41561D01*
X8895Y41558D01*
X8900Y41553D01*
X8905Y41548D01*
X8910Y41542D01*
X8915Y41535D01*
X8921Y41528D01*
X8927Y41521D01*
X8933Y41512D01*
X8940Y41504D01*
X8952Y41486D01*
X9063Y41312D01*
X8957D01*
X8872Y41445D01*
X8872Y41445D01*
X8870Y41447D01*
X8868Y41450D01*
X8866Y41454D01*
X8863Y41459D01*
X8859Y41465D01*
X8855Y41471D01*
X8851Y41477D01*
X8841Y41492D01*
X8831Y41506D01*
X8821Y41520D01*
X8816Y41527D01*
X8811Y41533D01*
X8811Y41533D01*
X8810Y41534D01*
X8809Y41535D01*
X8807Y41538D01*
X8802Y41543D01*
X8797Y41550D01*
X8790Y41557D01*
X8783Y41564D01*
X8776Y41571D01*
X8768Y41576D01*
X8767Y41576D01*
X8765Y41578D01*
X8761Y41580D01*
X8756Y41582D01*
X8751Y41585D01*
X8744Y41588D01*
X8737Y41591D01*
X8730Y41593D01*
X8729D01*
X8727Y41593D01*
X8723Y41594D01*
X8719Y41595D01*
X8712Y41595D01*
X8704Y41596D01*
X8694Y41596D01*
X8585D01*
Y41312D01*
X8500D01*
Y41952D01*
X8792D01*
X8797Y41951D01*
D02*
G37*
G36*
X40688Y20602D02*
X40688D01*
X40687D01*
X40685D01*
X40684D01*
X40681D01*
X40678Y20603D01*
X40671Y20603D01*
X40663Y20604D01*
X40654Y20606D01*
X40644Y20608D01*
X40634Y20611D01*
X40634D01*
X40632Y20612D01*
X40630Y20613D01*
X40627Y20614D01*
X40623Y20616D01*
X40618Y20618D01*
X40613Y20621D01*
X40607Y20624D01*
X40601Y20627D01*
X40594Y20631D01*
X40580Y20640D01*
X40565Y20650D01*
X40549Y20663D01*
X40549Y20663D01*
X40547Y20665D01*
X40545Y20667D01*
X40542Y20669D01*
X40538Y20673D01*
X40533Y20678D01*
X40527Y20683D01*
X40521Y20689D01*
X40514Y20696D01*
X40507Y20704D01*
X40499Y20712D01*
X40490Y20721D01*
X40482Y20731D01*
X40472Y20742D01*
X40463Y20754D01*
X40452Y20766D01*
X40452Y20766D01*
X40452Y20767D01*
X40450Y20768D01*
X40449Y20770D01*
X40446Y20772D01*
X40444Y20775D01*
X40438Y20782D01*
X40431Y20791D01*
X40422Y20800D01*
X40413Y20811D01*
X40403Y20822D01*
X40392Y20834D01*
X40381Y20846D01*
X40370Y20858D01*
X40359Y20869D01*
X40348Y20880D01*
X40337Y20889D01*
X40326Y20899D01*
X40317Y20906D01*
X40316Y20907D01*
X40314Y20907D01*
X40311Y20909D01*
X40308Y20912D01*
X40304Y20915D01*
X40299Y20918D01*
X40293Y20921D01*
X40286Y20925D01*
X40279Y20928D01*
X40272Y20931D01*
X40256Y20938D01*
X40247Y20940D01*
X40239Y20942D01*
X40231Y20943D01*
X40222Y20943D01*
X40222D01*
X40220D01*
X40218D01*
X40214Y20943D01*
X40210Y20942D01*
X40206Y20941D01*
X40201Y20940D01*
X40195Y20939D01*
X40189Y20937D01*
X40183Y20935D01*
X40176Y20932D01*
X40170Y20929D01*
X40163Y20925D01*
X40156Y20920D01*
X40150Y20915D01*
X40144Y20909D01*
X40143Y20909D01*
X40142Y20908D01*
X40141Y20906D01*
X40139Y20903D01*
X40136Y20900D01*
X40134Y20896D01*
X40130Y20891D01*
X40127Y20886D01*
X40124Y20880D01*
X40121Y20874D01*
X40119Y20866D01*
X40116Y20859D01*
X40114Y20851D01*
X40113Y20842D01*
X40112Y20833D01*
X40111Y20823D01*
Y20817D01*
X40112Y20814D01*
X40112Y20809D01*
X40113Y20803D01*
X40114Y20797D01*
X40115Y20790D01*
X40117Y20783D01*
X40120Y20776D01*
X40122Y20768D01*
X40126Y20760D01*
X40130Y20753D01*
X40134Y20746D01*
X40140Y20738D01*
X40146Y20732D01*
X40146Y20731D01*
X40147Y20730D01*
X40149Y20729D01*
X40152Y20727D01*
X40155Y20724D01*
X40159Y20721D01*
X40164Y20718D01*
X40170Y20715D01*
X40176Y20712D01*
X40183Y20709D01*
X40191Y20706D01*
X40199Y20703D01*
X40208Y20701D01*
X40218Y20699D01*
X40228Y20699D01*
X40239Y20698D01*
X40231Y20617D01*
X40231D01*
X40230D01*
X40229Y20618D01*
X40227D01*
X40222Y20618D01*
X40216Y20619D01*
X40209Y20621D01*
X40200Y20623D01*
X40190Y20625D01*
X40180Y20628D01*
X40169Y20631D01*
X40158Y20636D01*
X40146Y20641D01*
X40135Y20647D01*
X40124Y20653D01*
X40113Y20661D01*
X40103Y20669D01*
X40094Y20679D01*
X40093Y20680D01*
X40092Y20681D01*
X40089Y20685D01*
X40086Y20689D01*
X40083Y20694D01*
X40078Y20701D01*
X40074Y20709D01*
X40070Y20717D01*
X40066Y20728D01*
X40061Y20738D01*
X40057Y20750D01*
X40054Y20763D01*
X40050Y20777D01*
X40048Y20792D01*
X40047Y20808D01*
X40046Y20824D01*
Y20828D01*
X40047Y20833D01*
X40047Y20840D01*
X40048Y20847D01*
X40049Y20856D01*
X40050Y20866D01*
X40053Y20877D01*
X40055Y20889D01*
X40059Y20900D01*
X40063Y20913D01*
X40068Y20925D01*
X40074Y20937D01*
X40080Y20948D01*
X40088Y20959D01*
X40097Y20970D01*
X40098Y20970D01*
X40100Y20972D01*
X40103Y20975D01*
X40107Y20978D01*
X40111Y20982D01*
X40117Y20987D01*
X40124Y20992D01*
X40132Y20997D01*
X40141Y21002D01*
X40151Y21007D01*
X40161Y21011D01*
X40172Y21016D01*
X40184Y21019D01*
X40197Y21022D01*
X40210Y21023D01*
X40224Y21024D01*
X40225D01*
X40226D01*
X40228D01*
X40231D01*
X40234Y21023D01*
X40238Y21023D01*
X40243Y21023D01*
X40248Y21022D01*
X40259Y21020D01*
X40272Y21017D01*
X40286Y21013D01*
X40299Y21008D01*
X40300D01*
X40301Y21007D01*
X40303Y21006D01*
X40306Y21005D01*
X40309Y21004D01*
X40313Y21001D01*
X40318Y20999D01*
X40323Y20996D01*
X40329Y20993D01*
X40335Y20989D01*
X40348Y20980D01*
X40355Y20974D01*
X40362Y20969D01*
X40370Y20962D01*
X40378Y20956D01*
X40378Y20956D01*
X40379Y20954D01*
X40382Y20952D01*
X40385Y20949D01*
X40389Y20945D01*
X40394Y20940D01*
X40400Y20934D01*
X40407Y20927D01*
X40415Y20919D01*
X40423Y20910D01*
X40432Y20901D01*
X40442Y20889D01*
X40453Y20877D01*
X40465Y20864D01*
X40477Y20850D01*
X40490Y20835D01*
X40490Y20834D01*
X40493Y20832D01*
X40495Y20828D01*
X40500Y20824D01*
X40504Y20818D01*
X40510Y20812D01*
X40516Y20805D01*
X40522Y20797D01*
X40536Y20782D01*
X40543Y20774D01*
X40549Y20767D01*
X40556Y20760D01*
X40561Y20754D01*
X40566Y20748D01*
X40571Y20744D01*
X40572Y20743D01*
X40575Y20741D01*
X40579Y20737D01*
X40584Y20733D01*
X40590Y20728D01*
X40597Y20722D01*
X40605Y20717D01*
X40613Y20711D01*
Y21025D01*
X40688D01*
Y20602D01*
D02*
G37*
G36*
Y20457D02*
X40555Y20372D01*
X40555Y20372D01*
X40553Y20370D01*
X40550Y20368D01*
X40546Y20366D01*
X40541Y20363D01*
X40535Y20359D01*
X40529Y20355D01*
X40523Y20351D01*
X40508Y20341D01*
X40494Y20331D01*
X40480Y20321D01*
X40473Y20316D01*
X40467Y20311D01*
X40467Y20311D01*
X40466Y20310D01*
X40465Y20309D01*
X40462Y20307D01*
X40457Y20302D01*
X40450Y20297D01*
X40443Y20290D01*
X40436Y20283D01*
X40429Y20276D01*
X40424Y20268D01*
X40424Y20267D01*
X40422Y20265D01*
X40420Y20261D01*
X40418Y20256D01*
X40415Y20251D01*
X40412Y20244D01*
X40409Y20237D01*
X40407Y20230D01*
Y20229D01*
X40407Y20227D01*
X40406Y20223D01*
X40405Y20219D01*
X40405Y20212D01*
X40404Y20204D01*
X40404Y20194D01*
Y20085D01*
X40688D01*
Y20000D01*
X40048D01*
Y20292D01*
X40049Y20297D01*
Y20305D01*
X40049Y20313D01*
X40050Y20322D01*
X40051Y20332D01*
X40052Y20342D01*
X40053Y20353D01*
X40056Y20374D01*
X40058Y20385D01*
X40060Y20395D01*
X40063Y20404D01*
X40066Y20413D01*
Y20414D01*
X40067Y20415D01*
X40068Y20417D01*
X40069Y20421D01*
X40071Y20424D01*
X40074Y20429D01*
X40077Y20434D01*
X40080Y20439D01*
X40084Y20444D01*
X40088Y20450D01*
X40093Y20456D01*
X40099Y20462D01*
X40105Y20468D01*
X40112Y20474D01*
X40119Y20479D01*
X40127Y20484D01*
X40127Y20485D01*
X40129Y20486D01*
X40131Y20487D01*
X40134Y20489D01*
X40139Y20490D01*
X40144Y20493D01*
X40149Y20496D01*
X40155Y20498D01*
X40162Y20500D01*
X40170Y20503D01*
X40177Y20505D01*
X40186Y20507D01*
X40195Y20509D01*
X40204Y20510D01*
X40213Y20511D01*
X40223Y20511D01*
X40224D01*
X40226D01*
X40230Y20511D01*
X40235D01*
X40240Y20510D01*
X40247Y20509D01*
X40255Y20508D01*
X40263Y20506D01*
X40272Y20503D01*
X40281Y20501D01*
X40291Y20497D01*
X40300Y20493D01*
X40310Y20488D01*
X40319Y20482D01*
X40329Y20475D01*
X40338Y20467D01*
X40338Y20466D01*
X40340Y20465D01*
X40342Y20462D01*
X40345Y20459D01*
X40349Y20454D01*
X40353Y20448D01*
X40358Y20441D01*
X40363Y20434D01*
X40368Y20424D01*
X40373Y20415D01*
X40378Y20403D01*
X40383Y20391D01*
X40387Y20378D01*
X40391Y20363D01*
X40394Y20348D01*
X40397Y20331D01*
Y20331D01*
X40398Y20332D01*
X40398Y20334D01*
X40400Y20337D01*
X40401Y20339D01*
X40403Y20343D01*
X40407Y20350D01*
X40412Y20358D01*
X40417Y20367D01*
X40423Y20374D01*
X40429Y20382D01*
X40429Y20382D01*
X40430Y20384D01*
X40433Y20386D01*
X40435Y20388D01*
X40439Y20392D01*
X40442Y20395D01*
X40447Y20400D01*
X40452Y20404D01*
X40458Y20410D01*
X40465Y20415D01*
X40472Y20421D01*
X40479Y20427D01*
X40488Y20433D01*
X40496Y20440D01*
X40514Y20452D01*
X40688Y20563D01*
Y20457D01*
D02*
G37*
G36*
X7693Y36688D02*
X7698Y36687D01*
X7706Y36687D01*
X7714Y36685D01*
X7723Y36684D01*
X7734Y36682D01*
X7744Y36679D01*
X7756Y36676D01*
X7767Y36672D01*
X7779Y36667D01*
X7791Y36661D01*
X7802Y36655D01*
X7814Y36647D01*
X7825Y36638D01*
X7825Y36638D01*
X7827Y36636D01*
X7830Y36633D01*
X7833Y36629D01*
X7838Y36624D01*
X7843Y36618D01*
X7848Y36611D01*
X7853Y36603D01*
X7859Y36594D01*
X7864Y36584D01*
X7869Y36574D01*
X7875Y36562D01*
X7879Y36550D01*
X7883Y36537D01*
X7886Y36523D01*
X7887Y36508D01*
X7809Y36497D01*
Y36498D01*
X7808Y36500D01*
X7807Y36504D01*
X7806Y36508D01*
X7805Y36514D01*
X7803Y36520D01*
X7801Y36527D01*
X7798Y36534D01*
X7792Y36550D01*
X7784Y36566D01*
X7779Y36574D01*
X7774Y36581D01*
X7769Y36588D01*
X7763Y36594D01*
X7763Y36594D01*
X7762Y36595D01*
X7760Y36597D01*
X7757Y36599D01*
X7754Y36601D01*
X7750Y36603D01*
X7746Y36606D01*
X7741Y36608D01*
X7735Y36611D01*
X7729Y36614D01*
X7723Y36616D01*
X7716Y36618D01*
X7709Y36620D01*
X7701Y36622D01*
X7693Y36623D01*
X7684Y36623D01*
X7682D01*
X7679Y36623D01*
X7675D01*
X7670Y36622D01*
X7664Y36621D01*
X7658Y36620D01*
X7651Y36618D01*
X7644Y36616D01*
X7636Y36614D01*
X7629Y36611D01*
X7621Y36607D01*
X7613Y36602D01*
X7605Y36597D01*
X7598Y36592D01*
X7590Y36585D01*
X7590Y36584D01*
X7588Y36583D01*
X7587Y36581D01*
X7584Y36578D01*
X7581Y36574D01*
X7578Y36569D01*
X7575Y36564D01*
X7571Y36558D01*
X7568Y36552D01*
X7564Y36544D01*
X7561Y36537D01*
X7558Y36528D01*
X7556Y36520D01*
X7554Y36510D01*
X7552Y36500D01*
X7552Y36490D01*
Y36489D01*
Y36488D01*
Y36485D01*
X7552Y36481D01*
X7553Y36477D01*
X7554Y36471D01*
X7555Y36465D01*
X7556Y36458D01*
X7558Y36452D01*
X7561Y36444D01*
X7563Y36437D01*
X7567Y36429D01*
X7571Y36422D01*
X7576Y36415D01*
X7581Y36408D01*
X7587Y36401D01*
X7588Y36400D01*
X7589Y36399D01*
X7591Y36397D01*
X7594Y36395D01*
X7597Y36392D01*
X7601Y36390D01*
X7606Y36386D01*
X7612Y36383D01*
X7618Y36380D01*
X7625Y36377D01*
X7632Y36374D01*
X7640Y36371D01*
X7648Y36369D01*
X7658Y36367D01*
X7667Y36366D01*
X7677Y36366D01*
X7681D01*
X7686Y36366D01*
X7692Y36367D01*
X7701Y36367D01*
X7710Y36369D01*
X7721Y36371D01*
X7733Y36374D01*
X7724Y36305D01*
X7722D01*
X7721Y36305D01*
X7719D01*
X7715Y36306D01*
X7706D01*
X7703Y36305D01*
X7698Y36305D01*
X7693Y36305D01*
X7688Y36304D01*
X7681Y36303D01*
X7674Y36301D01*
X7667Y36299D01*
X7652Y36295D01*
X7644Y36292D01*
X7636Y36288D01*
X7629Y36285D01*
X7621Y36280D01*
X7621Y36280D01*
X7619Y36279D01*
X7617Y36277D01*
X7615Y36275D01*
X7612Y36272D01*
X7608Y36269D01*
X7605Y36265D01*
X7601Y36260D01*
X7597Y36255D01*
X7593Y36249D01*
X7590Y36242D01*
X7587Y36235D01*
X7585Y36227D01*
X7583Y36218D01*
X7581Y36209D01*
X7581Y36199D01*
Y36199D01*
Y36197D01*
Y36195D01*
X7581Y36192D01*
X7582Y36189D01*
X7582Y36184D01*
X7583Y36179D01*
X7585Y36174D01*
X7588Y36163D01*
X7591Y36157D01*
X7593Y36151D01*
X7597Y36145D01*
X7601Y36139D01*
X7605Y36134D01*
X7611Y36128D01*
X7611Y36127D01*
X7612Y36127D01*
X7613Y36125D01*
X7616Y36123D01*
X7619Y36121D01*
X7622Y36119D01*
X7626Y36116D01*
X7631Y36114D01*
X7636Y36111D01*
X7642Y36109D01*
X7648Y36106D01*
X7654Y36104D01*
X7662Y36102D01*
X7669Y36101D01*
X7678Y36100D01*
X7686Y36099D01*
X7691D01*
X7693Y36100D01*
X7697Y36100D01*
X7702Y36101D01*
X7707Y36102D01*
X7713Y36103D01*
X7725Y36106D01*
X7731Y36109D01*
X7737Y36112D01*
X7744Y36115D01*
X7750Y36119D01*
X7756Y36123D01*
X7762Y36128D01*
X7763Y36129D01*
X7764Y36130D01*
X7765Y36132D01*
X7767Y36134D01*
X7770Y36137D01*
X7772Y36140D01*
X7775Y36145D01*
X7778Y36150D01*
X7782Y36156D01*
X7785Y36162D01*
X7789Y36169D01*
X7791Y36177D01*
X7795Y36185D01*
X7797Y36194D01*
X7799Y36204D01*
X7801Y36214D01*
X7880Y36201D01*
Y36200D01*
Y36200D01*
X7879Y36197D01*
X7878Y36193D01*
X7876Y36188D01*
X7875Y36181D01*
X7872Y36173D01*
X7869Y36165D01*
X7866Y36156D01*
X7862Y36146D01*
X7857Y36136D01*
X7852Y36126D01*
X7846Y36115D01*
X7839Y36105D01*
X7832Y36096D01*
X7824Y36086D01*
X7814Y36078D01*
X7814Y36078D01*
X7812Y36076D01*
X7809Y36074D01*
X7805Y36071D01*
X7800Y36068D01*
X7794Y36064D01*
X7787Y36060D01*
X7779Y36056D01*
X7771Y36052D01*
X7761Y36048D01*
X7751Y36045D01*
X7740Y36042D01*
X7728Y36039D01*
X7715Y36036D01*
X7701Y36035D01*
X7687Y36035D01*
X7682D01*
X7679Y36035D01*
X7674D01*
X7668Y36036D01*
X7662Y36036D01*
X7656Y36037D01*
X7648Y36039D01*
X7641Y36040D01*
X7625Y36044D01*
X7616Y36047D01*
X7608Y36050D01*
X7599Y36053D01*
X7591Y36057D01*
X7591Y36058D01*
X7589Y36058D01*
X7587Y36060D01*
X7584Y36061D01*
X7580Y36064D01*
X7576Y36066D01*
X7571Y36070D01*
X7566Y36073D01*
X7555Y36082D01*
X7544Y36093D01*
X7533Y36105D01*
X7528Y36112D01*
X7524Y36119D01*
X7523Y36119D01*
X7523Y36121D01*
X7521Y36122D01*
X7520Y36126D01*
X7518Y36129D01*
X7516Y36134D01*
X7514Y36138D01*
X7512Y36144D01*
X7510Y36150D01*
X7507Y36156D01*
X7504Y36170D01*
X7501Y36185D01*
X7501Y36193D01*
X7500Y36201D01*
Y36201D01*
Y36203D01*
Y36205D01*
X7501Y36208D01*
Y36212D01*
X7501Y36216D01*
X7502Y36221D01*
X7503Y36226D01*
X7506Y36238D01*
X7510Y36250D01*
X7512Y36257D01*
X7515Y36264D01*
X7519Y36270D01*
X7523Y36277D01*
X7523Y36277D01*
X7524Y36278D01*
X7525Y36280D01*
X7527Y36282D01*
X7529Y36285D01*
X7532Y36288D01*
X7535Y36292D01*
X7539Y36296D01*
X7544Y36300D01*
X7549Y36305D01*
X7554Y36309D01*
X7560Y36314D01*
X7566Y36318D01*
X7573Y36323D01*
X7581Y36327D01*
X7588Y36330D01*
X7588D01*
X7586Y36331D01*
X7583Y36332D01*
X7579Y36333D01*
X7574Y36335D01*
X7569Y36337D01*
X7562Y36339D01*
X7556Y36342D01*
X7549Y36346D01*
X7542Y36350D01*
X7534Y36354D01*
X7527Y36359D01*
X7520Y36365D01*
X7513Y36371D01*
X7506Y36378D01*
X7500Y36385D01*
X7500Y36385D01*
X7499Y36387D01*
X7497Y36389D01*
X7495Y36392D01*
X7493Y36397D01*
X7490Y36401D01*
X7487Y36407D01*
X7484Y36413D01*
X7482Y36421D01*
X7478Y36428D01*
X7476Y36437D01*
X7474Y36446D01*
X7471Y36456D01*
X7470Y36466D01*
X7469Y36477D01*
X7469Y36488D01*
Y36489D01*
Y36492D01*
X7469Y36496D01*
X7470Y36502D01*
X7470Y36509D01*
X7472Y36518D01*
X7474Y36527D01*
X7477Y36537D01*
X7480Y36548D01*
X7483Y36559D01*
X7489Y36571D01*
X7495Y36583D01*
X7501Y36595D01*
X7510Y36607D01*
X7519Y36619D01*
X7530Y36630D01*
X7531Y36630D01*
X7533Y36632D01*
X7536Y36636D01*
X7541Y36639D01*
X7547Y36643D01*
X7554Y36648D01*
X7563Y36654D01*
X7572Y36659D01*
X7583Y36665D01*
X7595Y36670D01*
X7607Y36675D01*
X7621Y36679D01*
X7636Y36683D01*
X7651Y36686D01*
X7667Y36688D01*
X7685Y36688D01*
X7688D01*
X7693Y36688D01*
D02*
G37*
G36*
X8500Y36037D02*
X8208D01*
X8203Y36037D01*
X8195D01*
X8187Y36038D01*
X8178Y36038D01*
X8168Y36039D01*
X8158Y36040D01*
X8147Y36041D01*
X8126Y36044D01*
X8115Y36046D01*
X8105Y36048D01*
X8095Y36051D01*
X8087Y36054D01*
X8086D01*
X8085Y36055D01*
X8083Y36056D01*
X8079Y36058D01*
X8076Y36060D01*
X8071Y36062D01*
X8066Y36065D01*
X8061Y36068D01*
X8056Y36072D01*
X8050Y36077D01*
X8044Y36082D01*
X8038Y36087D01*
X8032Y36094D01*
X8026Y36100D01*
X8021Y36108D01*
X8016Y36115D01*
X8015Y36116D01*
X8014Y36117D01*
X8013Y36120D01*
X8011Y36123D01*
X8010Y36127D01*
X8007Y36132D01*
X8004Y36138D01*
X8002Y36144D01*
X8000Y36151D01*
X7997Y36158D01*
X7995Y36166D01*
X7993Y36174D01*
X7991Y36183D01*
X7990Y36192D01*
X7989Y36202D01*
X7989Y36212D01*
Y36213D01*
Y36214D01*
X7989Y36218D01*
Y36223D01*
X7990Y36229D01*
X7991Y36236D01*
X7992Y36243D01*
X7994Y36251D01*
X7997Y36260D01*
X7999Y36269D01*
X8003Y36279D01*
X8007Y36289D01*
X8012Y36299D01*
X8018Y36308D01*
X8025Y36317D01*
X8033Y36326D01*
X8034Y36327D01*
X8035Y36328D01*
X8038Y36330D01*
X8041Y36334D01*
X8046Y36337D01*
X8052Y36342D01*
X8059Y36346D01*
X8066Y36351D01*
X8076Y36356D01*
X8085Y36361D01*
X8097Y36366D01*
X8109Y36371D01*
X8122Y36375D01*
X8137Y36379D01*
X8152Y36383D01*
X8169Y36385D01*
X8169D01*
X8168Y36386D01*
X8166Y36387D01*
X8163Y36388D01*
X8161Y36390D01*
X8157Y36391D01*
X8150Y36396D01*
X8142Y36400D01*
X8133Y36406D01*
X8126Y36411D01*
X8118Y36417D01*
X8118Y36418D01*
X8116Y36419D01*
X8114Y36421D01*
X8112Y36423D01*
X8108Y36427D01*
X8105Y36431D01*
X8100Y36435D01*
X8095Y36441D01*
X8090Y36447D01*
X8085Y36453D01*
X8079Y36460D01*
X8073Y36468D01*
X8067Y36476D01*
X8060Y36484D01*
X8048Y36503D01*
X7937Y36677D01*
X8043D01*
X8128Y36544D01*
X8128Y36543D01*
X8130Y36541D01*
X8132Y36538D01*
X8134Y36534D01*
X8137Y36529D01*
X8141Y36524D01*
X8145Y36518D01*
X8149Y36511D01*
X8159Y36497D01*
X8169Y36482D01*
X8179Y36468D01*
X8184Y36462D01*
X8189Y36456D01*
X8189Y36455D01*
X8190Y36454D01*
X8191Y36453D01*
X8193Y36451D01*
X8198Y36445D01*
X8203Y36439D01*
X8210Y36432D01*
X8217Y36424D01*
X8224Y36418D01*
X8232Y36413D01*
X8233Y36412D01*
X8235Y36411D01*
X8239Y36409D01*
X8244Y36406D01*
X8249Y36403D01*
X8256Y36400D01*
X8263Y36398D01*
X8270Y36396D01*
X8271D01*
X8273Y36395D01*
X8277Y36395D01*
X8281Y36394D01*
X8288Y36393D01*
X8296Y36393D01*
X8306Y36392D01*
X8415D01*
Y36677D01*
X8500D01*
Y36037D01*
D02*
G37*
G36*
X24462Y22208D02*
X24462Y22203D01*
Y22195D01*
X24461Y22187D01*
X24461Y22178D01*
X24460Y22168D01*
X24459Y22158D01*
X24458Y22147D01*
X24455Y22126D01*
X24453Y22115D01*
X24451Y22105D01*
X24448Y22096D01*
X24445Y22087D01*
Y22086D01*
X24444Y22085D01*
X24443Y22083D01*
X24441Y22079D01*
X24440Y22076D01*
X24437Y22071D01*
X24434Y22066D01*
X24431Y22061D01*
X24427Y22056D01*
X24422Y22050D01*
X24417Y22044D01*
X24412Y22038D01*
X24405Y22032D01*
X24399Y22026D01*
X24391Y22021D01*
X24384Y22016D01*
X24383Y22015D01*
X24382Y22014D01*
X24379Y22013D01*
X24376Y22011D01*
X24372Y22010D01*
X24367Y22007D01*
X24361Y22004D01*
X24355Y22002D01*
X24348Y22000D01*
X24341Y21997D01*
X24333Y21995D01*
X24325Y21993D01*
X24316Y21991D01*
X24307Y21990D01*
X24297Y21989D01*
X24287Y21989D01*
X24287D01*
X24285D01*
X24281Y21989D01*
X24276D01*
X24270Y21990D01*
X24263Y21991D01*
X24256Y21992D01*
X24248Y21994D01*
X24239Y21997D01*
X24230Y21999D01*
X24220Y22003D01*
X24210Y22007D01*
X24201Y22012D01*
X24191Y22018D01*
X24182Y22025D01*
X24173Y22033D01*
X24172Y22034D01*
X24171Y22035D01*
X24169Y22038D01*
X24165Y22041D01*
X24162Y22046D01*
X24158Y22052D01*
X24153Y22059D01*
X24148Y22066D01*
X24143Y22076D01*
X24138Y22085D01*
X24133Y22097D01*
X24128Y22109D01*
X24124Y22122D01*
X24120Y22137D01*
X24116Y22152D01*
X24114Y22169D01*
Y22169D01*
X24113Y22168D01*
X24112Y22166D01*
X24111Y22163D01*
X24109Y22161D01*
X24108Y22157D01*
X24103Y22150D01*
X24099Y22142D01*
X24093Y22133D01*
X24088Y22126D01*
X24082Y22118D01*
X24081Y22118D01*
X24080Y22116D01*
X24078Y22114D01*
X24076Y22112D01*
X24072Y22108D01*
X24068Y22105D01*
X24064Y22100D01*
X24058Y22096D01*
X24052Y22090D01*
X24046Y22085D01*
X24039Y22079D01*
X24031Y22073D01*
X24023Y22067D01*
X24015Y22060D01*
X23996Y22048D01*
X23822Y21937D01*
Y22043D01*
X23956Y22128D01*
X23956Y22128D01*
X23958Y22130D01*
X23961Y22132D01*
X23965Y22134D01*
X23970Y22137D01*
X23975Y22141D01*
X23981Y22145D01*
X23988Y22149D01*
X24002Y22159D01*
X24017Y22169D01*
X24031Y22179D01*
X24037Y22184D01*
X24043Y22189D01*
X24044Y22189D01*
X24045Y22190D01*
X24046Y22191D01*
X24048Y22193D01*
X24054Y22198D01*
X24060Y22203D01*
X24067Y22210D01*
X24075Y22217D01*
X24081Y22224D01*
X24086Y22232D01*
X24087Y22233D01*
X24088Y22235D01*
X24091Y22239D01*
X24093Y22244D01*
X24096Y22249D01*
X24099Y22256D01*
X24101Y22263D01*
X24103Y22270D01*
Y22271D01*
X24104Y22273D01*
X24104Y22277D01*
X24105Y22281D01*
X24106Y22288D01*
X24106Y22296D01*
X24107Y22306D01*
Y22415D01*
X23822D01*
Y22500D01*
X24462D01*
Y22208D01*
D02*
G37*
G36*
X24134Y21891D02*
X24139D01*
X24145Y21890D01*
X24152D01*
X24159Y21890D01*
X24167Y21889D01*
X24176Y21888D01*
X24185Y21887D01*
X24204Y21886D01*
X24225Y21882D01*
X24246Y21879D01*
X24269Y21875D01*
X24291Y21869D01*
X24313Y21863D01*
X24335Y21855D01*
X24355Y21845D01*
X24365Y21840D01*
X24374Y21835D01*
X24383Y21829D01*
X24391Y21823D01*
X24392Y21822D01*
X24394Y21820D01*
X24398Y21817D01*
X24403Y21812D01*
X24408Y21806D01*
X24414Y21799D01*
X24421Y21790D01*
X24428Y21780D01*
X24434Y21769D01*
X24441Y21757D01*
X24447Y21744D01*
X24453Y21730D01*
X24458Y21714D01*
X24461Y21698D01*
X24464Y21680D01*
X24465Y21662D01*
Y21659D01*
X24464Y21654D01*
Y21649D01*
X24463Y21643D01*
X24462Y21636D01*
X24461Y21627D01*
X24459Y21618D01*
X24457Y21609D01*
X24454Y21599D01*
X24451Y21588D01*
X24446Y21578D01*
X24442Y21568D01*
X24436Y21557D01*
X24429Y21548D01*
X24422Y21538D01*
X24422Y21538D01*
X24420Y21536D01*
X24417Y21534D01*
X24414Y21531D01*
X24410Y21527D01*
X24404Y21523D01*
X24398Y21518D01*
X24391Y21513D01*
X24384Y21508D01*
X24375Y21503D01*
X24365Y21498D01*
X24354Y21494D01*
X24343Y21489D01*
X24331Y21485D01*
X24318Y21483D01*
X24305Y21480D01*
X24299Y21558D01*
X24299D01*
X24301Y21559D01*
X24304Y21559D01*
X24306Y21560D01*
X24311Y21562D01*
X24315Y21562D01*
X24325Y21566D01*
X24336Y21570D01*
X24347Y21575D01*
X24357Y21581D01*
X24362Y21585D01*
X24366Y21588D01*
X24366Y21589D01*
X24367Y21590D01*
X24369Y21592D01*
X24371Y21594D01*
X24374Y21597D01*
X24377Y21601D01*
X24380Y21605D01*
X24383Y21610D01*
X24386Y21616D01*
X24389Y21622D01*
X24392Y21628D01*
X24395Y21635D01*
X24397Y21642D01*
X24398Y21650D01*
X24399Y21658D01*
X24400Y21667D01*
Y21670D01*
X24399Y21673D01*
Y21676D01*
X24399Y21680D01*
X24398Y21684D01*
X24397Y21689D01*
X24395Y21699D01*
X24391Y21710D01*
X24385Y21722D01*
X24382Y21727D01*
X24379Y21733D01*
X24378Y21733D01*
X24377Y21734D01*
X24376Y21736D01*
X24373Y21739D01*
X24371Y21742D01*
X24367Y21746D01*
X24363Y21749D01*
X24359Y21754D01*
X24354Y21758D01*
X24348Y21763D01*
X24341Y21768D01*
X24334Y21773D01*
X24326Y21778D01*
X24318Y21783D01*
X24309Y21787D01*
X24300Y21791D01*
X24299D01*
X24298Y21792D01*
X24294Y21793D01*
X24290Y21795D01*
X24285Y21796D01*
X24279Y21798D01*
X24271Y21800D01*
X24262Y21802D01*
X24252Y21804D01*
X24241Y21806D01*
X24229Y21808D01*
X24216Y21809D01*
X24201Y21811D01*
X24186Y21812D01*
X24170Y21813D01*
X24152Y21813D01*
X24152Y21813D01*
X24154Y21812D01*
X24156Y21810D01*
X24159Y21808D01*
X24163Y21805D01*
X24167Y21802D01*
X24171Y21798D01*
X24177Y21794D01*
X24182Y21789D01*
X24187Y21784D01*
X24197Y21772D01*
X24207Y21759D01*
X24212Y21752D01*
X24216Y21744D01*
X24217Y21744D01*
X24217Y21742D01*
X24218Y21740D01*
X24219Y21737D01*
X24221Y21733D01*
X24223Y21729D01*
X24225Y21724D01*
X24227Y21718D01*
X24229Y21712D01*
X24231Y21705D01*
X24234Y21691D01*
X24237Y21674D01*
X24238Y21666D01*
Y21654D01*
X24237Y21650D01*
X24237Y21645D01*
X24236Y21638D01*
X24234Y21630D01*
X24232Y21621D01*
X24230Y21611D01*
X24227Y21601D01*
X24223Y21591D01*
X24219Y21580D01*
X24213Y21568D01*
X24206Y21557D01*
X24199Y21546D01*
X24189Y21535D01*
X24179Y21524D01*
X24179Y21524D01*
X24177Y21522D01*
X24173Y21519D01*
X24169Y21515D01*
X24163Y21511D01*
X24156Y21507D01*
X24148Y21501D01*
X24139Y21496D01*
X24129Y21491D01*
X24117Y21486D01*
X24105Y21482D01*
X24092Y21477D01*
X24078Y21474D01*
X24063Y21471D01*
X24047Y21469D01*
X24030Y21469D01*
X24029D01*
X24027D01*
X24024D01*
X24020Y21469D01*
X24014Y21470D01*
X24008Y21470D01*
X24001Y21471D01*
X23993Y21472D01*
X23985Y21473D01*
X23976Y21475D01*
X23967Y21477D01*
X23957Y21480D01*
X23948Y21483D01*
X23938Y21486D01*
X23928Y21490D01*
X23918Y21495D01*
X23918Y21495D01*
X23916Y21496D01*
X23913Y21498D01*
X23910Y21500D01*
X23905Y21502D01*
X23900Y21506D01*
X23895Y21509D01*
X23889Y21513D01*
X23882Y21519D01*
X23876Y21524D01*
X23870Y21530D01*
X23863Y21536D01*
X23857Y21543D01*
X23850Y21550D01*
X23845Y21558D01*
X23839Y21566D01*
X23839Y21567D01*
X23838Y21568D01*
X23837Y21571D01*
X23835Y21574D01*
X23833Y21579D01*
X23830Y21584D01*
X23828Y21589D01*
X23826Y21596D01*
X23823Y21603D01*
X23821Y21611D01*
X23818Y21620D01*
X23816Y21629D01*
X23814Y21638D01*
X23813Y21648D01*
X23812Y21659D01*
X23812Y21669D01*
Y21673D01*
X23812Y21676D01*
Y21679D01*
X23813Y21685D01*
X23814Y21694D01*
X23815Y21703D01*
X23818Y21714D01*
X23821Y21726D01*
X23825Y21739D01*
X23829Y21752D01*
X23835Y21765D01*
X23842Y21778D01*
X23851Y21791D01*
X23860Y21805D01*
X23871Y21817D01*
X23884Y21829D01*
X23885Y21830D01*
X23887Y21832D01*
X23892Y21835D01*
X23898Y21839D01*
X23906Y21844D01*
X23910Y21846D01*
X23915Y21849D01*
X23921Y21851D01*
X23927Y21854D01*
X23934Y21857D01*
X23941Y21860D01*
X23948Y21863D01*
X23956Y21866D01*
X23965Y21869D01*
X23974Y21872D01*
X23983Y21874D01*
X23993Y21877D01*
X24004Y21879D01*
X24015Y21881D01*
X24026Y21884D01*
X24038Y21886D01*
X24051Y21887D01*
X24064Y21888D01*
X24078Y21890D01*
X24091Y21890D01*
X24106Y21891D01*
X24121D01*
X24122D01*
X24124D01*
X24126D01*
X24130D01*
X24134Y21891D01*
D02*
G37*
G36*
X17619Y23531D02*
X17621Y23529D01*
X17625Y23525D01*
X17630Y23521D01*
X17636Y23515D01*
X17644Y23509D01*
X17653Y23501D01*
X17664Y23493D01*
X17676Y23485D01*
X17689Y23475D01*
X17703Y23465D01*
X17718Y23455D01*
X17735Y23444D01*
X17752Y23433D01*
X17771Y23421D01*
X17791Y23410D01*
X17791D01*
X17792Y23410D01*
X17793Y23409D01*
X17795Y23407D01*
X17798Y23406D01*
X17801Y23405D01*
X17805Y23402D01*
X17809Y23401D01*
X17814Y23398D01*
X17819Y23395D01*
X17831Y23389D01*
X17844Y23383D01*
X17859Y23376D01*
X17875Y23369D01*
X17892Y23361D01*
X17910Y23353D01*
X17930Y23346D01*
X17950Y23338D01*
X17970Y23331D01*
X17991Y23324D01*
X18013Y23318D01*
X18014Y23317D01*
X18016Y23317D01*
X18020Y23315D01*
X18026Y23314D01*
X18034Y23312D01*
X18043Y23310D01*
X18053Y23308D01*
X18065Y23305D01*
X18077Y23303D01*
X18091Y23300D01*
X18105Y23297D01*
X18121Y23295D01*
X18136Y23293D01*
X18153Y23291D01*
X18171Y23289D01*
X18188Y23288D01*
Y23207D01*
X18187D01*
X18185D01*
X18180Y23207D01*
X18175D01*
X18167Y23208D01*
X18159Y23209D01*
X18148Y23210D01*
X18137Y23211D01*
X18124Y23212D01*
X18111Y23214D01*
X18096Y23217D01*
X18080Y23219D01*
X18062Y23223D01*
X18044Y23227D01*
X18026Y23231D01*
X18006Y23236D01*
X18006D01*
X18005Y23236D01*
X18003Y23237D01*
X18001Y23237D01*
X17999Y23238D01*
X17995Y23239D01*
X17992Y23240D01*
X17988Y23242D01*
X17978Y23244D01*
X17967Y23248D01*
X17954Y23252D01*
X17940Y23257D01*
X17925Y23262D01*
X17909Y23268D01*
X17891Y23275D01*
X17874Y23282D01*
X17856Y23290D01*
X17837Y23299D01*
X17818Y23308D01*
X17800Y23317D01*
X17799D01*
X17799Y23318D01*
X17798Y23319D01*
X17795Y23320D01*
X17793Y23321D01*
X17790Y23323D01*
X17783Y23327D01*
X17775Y23332D01*
X17765Y23337D01*
X17754Y23344D01*
X17742Y23352D01*
X17729Y23359D01*
X17715Y23368D01*
X17701Y23378D01*
X17687Y23388D01*
X17659Y23408D01*
X17645Y23419D01*
X17632Y23431D01*
Y23117D01*
X17557D01*
Y23531D01*
X17618D01*
X17619Y23531D01*
D02*
G37*
G36*
X18188Y22957D02*
X18055Y22872D01*
X18055Y22872D01*
X18053Y22870D01*
X18050Y22868D01*
X18046Y22866D01*
X18041Y22863D01*
X18035Y22859D01*
X18029Y22855D01*
X18023Y22851D01*
X18008Y22841D01*
X17994Y22831D01*
X17980Y22821D01*
X17973Y22816D01*
X17967Y22811D01*
X17967Y22811D01*
X17966Y22810D01*
X17965Y22809D01*
X17962Y22807D01*
X17957Y22802D01*
X17950Y22797D01*
X17943Y22790D01*
X17936Y22783D01*
X17929Y22776D01*
X17924Y22768D01*
X17924Y22767D01*
X17922Y22765D01*
X17920Y22761D01*
X17918Y22756D01*
X17915Y22751D01*
X17912Y22744D01*
X17909Y22737D01*
X17907Y22730D01*
Y22729D01*
X17907Y22727D01*
X17906Y22723D01*
X17905Y22719D01*
X17905Y22712D01*
X17904Y22704D01*
X17904Y22694D01*
Y22585D01*
X18188D01*
Y22500D01*
X17548D01*
Y22792D01*
X17549Y22797D01*
Y22805D01*
X17549Y22813D01*
X17550Y22822D01*
X17551Y22832D01*
X17552Y22842D01*
X17553Y22853D01*
X17556Y22874D01*
X17558Y22885D01*
X17560Y22895D01*
X17563Y22904D01*
X17566Y22913D01*
Y22914D01*
X17567Y22915D01*
X17568Y22917D01*
X17569Y22921D01*
X17571Y22924D01*
X17574Y22929D01*
X17577Y22934D01*
X17580Y22939D01*
X17584Y22944D01*
X17588Y22950D01*
X17593Y22956D01*
X17599Y22962D01*
X17605Y22968D01*
X17612Y22974D01*
X17619Y22979D01*
X17627Y22984D01*
X17628Y22985D01*
X17629Y22986D01*
X17631Y22987D01*
X17634Y22989D01*
X17639Y22990D01*
X17644Y22993D01*
X17649Y22996D01*
X17655Y22998D01*
X17662Y23000D01*
X17670Y23003D01*
X17677Y23005D01*
X17686Y23007D01*
X17695Y23009D01*
X17704Y23010D01*
X17713Y23011D01*
X17723Y23011D01*
X17724D01*
X17726D01*
X17730Y23011D01*
X17735D01*
X17740Y23010D01*
X17747Y23009D01*
X17755Y23008D01*
X17763Y23006D01*
X17772Y23003D01*
X17781Y23001D01*
X17791Y22997D01*
X17800Y22993D01*
X17810Y22988D01*
X17819Y22982D01*
X17829Y22975D01*
X17838Y22967D01*
X17838Y22966D01*
X17840Y22965D01*
X17842Y22962D01*
X17845Y22959D01*
X17849Y22954D01*
X17853Y22948D01*
X17858Y22941D01*
X17863Y22934D01*
X17868Y22924D01*
X17873Y22915D01*
X17878Y22903D01*
X17883Y22891D01*
X17887Y22878D01*
X17891Y22863D01*
X17894Y22848D01*
X17897Y22831D01*
Y22831D01*
X17898Y22832D01*
X17898Y22834D01*
X17900Y22837D01*
X17901Y22839D01*
X17903Y22843D01*
X17907Y22850D01*
X17912Y22858D01*
X17917Y22867D01*
X17923Y22874D01*
X17929Y22882D01*
X17929Y22882D01*
X17930Y22884D01*
X17933Y22886D01*
X17935Y22888D01*
X17939Y22892D01*
X17942Y22895D01*
X17947Y22900D01*
X17952Y22904D01*
X17958Y22910D01*
X17965Y22915D01*
X17972Y22921D01*
X17979Y22927D01*
X17988Y22933D01*
X17996Y22940D01*
X18014Y22952D01*
X18188Y23063D01*
Y22957D01*
D02*
G37*
%LPC*%
G36*
X8415Y31320D02*
X8224D01*
X8219Y31319D01*
X8213D01*
X8207Y31319D01*
X8200Y31318D01*
X8186Y31317D01*
X8171Y31315D01*
X8156Y31312D01*
X8150Y31310D01*
X8143Y31308D01*
X8143D01*
X8142Y31308D01*
X8140Y31307D01*
X8138Y31306D01*
X8135Y31305D01*
X8132Y31303D01*
X8125Y31299D01*
X8116Y31293D01*
X8108Y31287D01*
X8100Y31279D01*
X8093Y31270D01*
Y31269D01*
X8092Y31268D01*
X8092Y31267D01*
X8090Y31265D01*
X8089Y31263D01*
X8088Y31260D01*
X8084Y31253D01*
X8082Y31244D01*
X8079Y31235D01*
X8077Y31224D01*
X8076Y31213D01*
Y31212D01*
Y31211D01*
Y31208D01*
X8077Y31205D01*
X8077Y31201D01*
X8078Y31197D01*
X8079Y31192D01*
X8080Y31186D01*
X8082Y31181D01*
X8084Y31175D01*
X8087Y31168D01*
X8090Y31162D01*
X8094Y31156D01*
X8098Y31150D01*
X8103Y31144D01*
X8109Y31138D01*
X8110Y31138D01*
X8111Y31137D01*
X8113Y31135D01*
X8115Y31134D01*
X8119Y31131D01*
X8124Y31129D01*
X8129Y31126D01*
X8135Y31123D01*
X8141Y31121D01*
X8149Y31118D01*
X8158Y31115D01*
X8167Y31113D01*
X8177Y31111D01*
X8188Y31110D01*
X8200Y31109D01*
X8213Y31109D01*
X8415D01*
Y31320D01*
D02*
G37*
G36*
X24364Y32825D02*
X24163Y32537D01*
X24364D01*
Y32825D01*
D02*
G37*
G36*
X23787Y32881D02*
X23585D01*
Y32670D01*
X23776D01*
X23781Y32670D01*
X23787D01*
X23793Y32670D01*
X23800Y32671D01*
X23814Y32672D01*
X23829Y32675D01*
X23844Y32677D01*
X23850Y32679D01*
X23857Y32681D01*
X23857D01*
X23858Y32682D01*
X23860Y32683D01*
X23862Y32683D01*
X23865Y32685D01*
X23868Y32686D01*
X23875Y32690D01*
X23884Y32696D01*
X23892Y32702D01*
X23900Y32710D01*
X23907Y32719D01*
Y32720D01*
X23908Y32721D01*
X23908Y32722D01*
X23910Y32724D01*
X23911Y32726D01*
X23912Y32730D01*
X23916Y32737D01*
X23918Y32745D01*
X23921Y32755D01*
X23923Y32765D01*
X23924Y32777D01*
Y32777D01*
Y32779D01*
Y32781D01*
X23923Y32784D01*
X23923Y32788D01*
X23922Y32793D01*
X23921Y32798D01*
X23920Y32803D01*
X23918Y32809D01*
X23916Y32815D01*
X23913Y32821D01*
X23910Y32827D01*
X23906Y32834D01*
X23902Y32840D01*
X23897Y32846D01*
X23891Y32851D01*
X23890Y32852D01*
X23889Y32853D01*
X23887Y32854D01*
X23885Y32856D01*
X23881Y32858D01*
X23876Y32860D01*
X23871Y32863D01*
X23865Y32866D01*
X23859Y32869D01*
X23851Y32872D01*
X23842Y32874D01*
X23833Y32876D01*
X23823Y32878D01*
X23812Y32879D01*
X23800Y32880D01*
X23787Y32881D01*
D02*
G37*
G36*
X8787Y41881D02*
X8585D01*
Y41670D01*
X8776D01*
X8781Y41670D01*
X8787D01*
X8793Y41670D01*
X8800Y41671D01*
X8814Y41672D01*
X8829Y41675D01*
X8844Y41677D01*
X8850Y41679D01*
X8857Y41681D01*
X8857D01*
X8858Y41682D01*
X8860Y41682D01*
X8862Y41683D01*
X8865Y41685D01*
X8868Y41686D01*
X8875Y41690D01*
X8884Y41696D01*
X8892Y41702D01*
X8900Y41710D01*
X8907Y41719D01*
Y41720D01*
X8908Y41721D01*
X8908Y41722D01*
X8910Y41724D01*
X8911Y41726D01*
X8912Y41730D01*
X8916Y41737D01*
X8918Y41745D01*
X8921Y41755D01*
X8923Y41765D01*
X8924Y41777D01*
Y41777D01*
Y41779D01*
Y41781D01*
X8923Y41784D01*
X8923Y41788D01*
X8922Y41793D01*
X8921Y41798D01*
X8920Y41803D01*
X8918Y41809D01*
X8916Y41815D01*
X8913Y41821D01*
X8910Y41827D01*
X8906Y41834D01*
X8902Y41840D01*
X8897Y41846D01*
X8891Y41851D01*
X8890Y41852D01*
X8889Y41853D01*
X8887Y41854D01*
X8885Y41856D01*
X8881Y41858D01*
X8876Y41860D01*
X8871Y41863D01*
X8865Y41866D01*
X8859Y41869D01*
X8851Y41872D01*
X8842Y41874D01*
X8833Y41876D01*
X8823Y41878D01*
X8812Y41879D01*
X8800Y41880D01*
X8787Y41881D01*
D02*
G37*
G36*
X40223Y20424D02*
X40223D01*
X40221D01*
X40219D01*
X40216Y20423D01*
X40212Y20423D01*
X40207Y20422D01*
X40202Y20421D01*
X40197Y20420D01*
X40191Y20418D01*
X40185Y20416D01*
X40179Y20413D01*
X40173Y20410D01*
X40166Y20406D01*
X40160Y20402D01*
X40154Y20397D01*
X40149Y20391D01*
X40148Y20390D01*
X40147Y20389D01*
X40146Y20387D01*
X40144Y20385D01*
X40142Y20381D01*
X40140Y20376D01*
X40137Y20371D01*
X40134Y20365D01*
X40131Y20359D01*
X40128Y20351D01*
X40126Y20342D01*
X40124Y20333D01*
X40122Y20323D01*
X40121Y20312D01*
X40120Y20300D01*
X40119Y20287D01*
Y20085D01*
X40330D01*
Y20276D01*
X40330Y20281D01*
Y20287D01*
X40330Y20293D01*
X40329Y20300D01*
X40328Y20314D01*
X40325Y20329D01*
X40323Y20344D01*
X40321Y20350D01*
X40319Y20357D01*
Y20357D01*
X40318Y20358D01*
X40318Y20360D01*
X40317Y20362D01*
X40315Y20365D01*
X40314Y20368D01*
X40310Y20375D01*
X40304Y20384D01*
X40298Y20392D01*
X40290Y20400D01*
X40281Y20407D01*
X40280D01*
X40279Y20408D01*
X40278Y20408D01*
X40276Y20410D01*
X40274Y20411D01*
X40270Y20412D01*
X40263Y20416D01*
X40255Y20418D01*
X40245Y20421D01*
X40235Y20423D01*
X40223Y20424D01*
D02*
G37*
G36*
X8415Y36319D02*
X8224D01*
X8219Y36318D01*
X8213D01*
X8207Y36318D01*
X8200Y36317D01*
X8186Y36316D01*
X8171Y36314D01*
X8156Y36311D01*
X8150Y36309D01*
X8143Y36307D01*
X8143D01*
X8142Y36307D01*
X8140Y36306D01*
X8138Y36305D01*
X8135Y36304D01*
X8132Y36302D01*
X8125Y36298D01*
X8116Y36293D01*
X8108Y36286D01*
X8100Y36278D01*
X8093Y36269D01*
Y36268D01*
X8092Y36268D01*
X8092Y36266D01*
X8090Y36264D01*
X8089Y36262D01*
X8088Y36259D01*
X8084Y36252D01*
X8082Y36244D01*
X8079Y36234D01*
X8077Y36223D01*
X8076Y36212D01*
Y36211D01*
Y36210D01*
Y36207D01*
X8077Y36204D01*
X8077Y36200D01*
X8078Y36196D01*
X8079Y36191D01*
X8080Y36185D01*
X8082Y36180D01*
X8084Y36174D01*
X8087Y36167D01*
X8090Y36161D01*
X8094Y36155D01*
X8098Y36149D01*
X8103Y36143D01*
X8109Y36137D01*
X8110Y36137D01*
X8111Y36136D01*
X8113Y36134D01*
X8115Y36133D01*
X8119Y36130D01*
X8124Y36128D01*
X8129Y36125D01*
X8135Y36122D01*
X8141Y36120D01*
X8149Y36117D01*
X8158Y36115D01*
X8167Y36112D01*
X8177Y36110D01*
X8188Y36109D01*
X8200Y36108D01*
X8213Y36108D01*
X8415D01*
Y36319D01*
D02*
G37*
G36*
X24391Y22415D02*
X24180D01*
Y22224D01*
X24181Y22219D01*
Y22213D01*
X24181Y22207D01*
X24182Y22200D01*
X24183Y22186D01*
X24185Y22171D01*
X24188Y22156D01*
X24190Y22150D01*
X24192Y22143D01*
Y22143D01*
X24192Y22142D01*
X24193Y22140D01*
X24194Y22138D01*
X24195Y22135D01*
X24197Y22132D01*
X24201Y22125D01*
X24207Y22116D01*
X24213Y22108D01*
X24221Y22100D01*
X24230Y22093D01*
X24231D01*
X24232Y22092D01*
X24233Y22092D01*
X24235Y22090D01*
X24237Y22089D01*
X24240Y22088D01*
X24247Y22084D01*
X24256Y22082D01*
X24265Y22079D01*
X24276Y22077D01*
X24287Y22076D01*
X24288D01*
X24289D01*
X24292D01*
X24295Y22077D01*
X24299Y22077D01*
X24303Y22078D01*
X24308Y22079D01*
X24314Y22080D01*
X24319Y22082D01*
X24325Y22084D01*
X24332Y22087D01*
X24338Y22090D01*
X24344Y22094D01*
X24350Y22098D01*
X24356Y22103D01*
X24362Y22109D01*
X24362Y22110D01*
X24363Y22111D01*
X24365Y22113D01*
X24366Y22115D01*
X24369Y22119D01*
X24371Y22124D01*
X24374Y22129D01*
X24377Y22135D01*
X24379Y22141D01*
X24382Y22149D01*
X24385Y22158D01*
X24387Y22167D01*
X24389Y22177D01*
X24390Y22188D01*
X24391Y22200D01*
X24391Y22213D01*
Y22415D01*
D02*
G37*
G36*
X24030Y21801D02*
X24029D01*
X24028D01*
X24026D01*
X24023Y21801D01*
X24019D01*
X24015Y21800D01*
X24010Y21800D01*
X24005Y21799D01*
X23993Y21797D01*
X23980Y21794D01*
X23966Y21789D01*
X23952Y21784D01*
X23951D01*
X23950Y21783D01*
X23948Y21782D01*
X23946Y21781D01*
X23943Y21779D01*
X23939Y21777D01*
X23931Y21771D01*
X23922Y21765D01*
X23913Y21757D01*
X23903Y21747D01*
X23895Y21736D01*
Y21736D01*
X23895Y21735D01*
X23894Y21733D01*
X23893Y21731D01*
X23891Y21728D01*
X23889Y21725D01*
X23888Y21721D01*
X23886Y21716D01*
X23882Y21707D01*
X23879Y21696D01*
X23877Y21684D01*
X23876Y21671D01*
Y21669D01*
X23877Y21666D01*
Y21663D01*
X23878Y21659D01*
X23879Y21654D01*
X23880Y21648D01*
X23882Y21642D01*
X23883Y21635D01*
X23886Y21628D01*
X23889Y21621D01*
X23893Y21614D01*
X23898Y21607D01*
X23903Y21599D01*
X23909Y21593D01*
X23916Y21586D01*
X23917Y21585D01*
X23918Y21584D01*
X23920Y21582D01*
X23924Y21580D01*
X23928Y21577D01*
X23932Y21574D01*
X23938Y21571D01*
X23945Y21568D01*
X23952Y21564D01*
X23961Y21561D01*
X23969Y21558D01*
X23979Y21555D01*
X23990Y21553D01*
X24001Y21551D01*
X24013Y21550D01*
X24025Y21550D01*
X24026D01*
X24028D01*
X24032D01*
X24036Y21550D01*
X24042Y21550D01*
X24048Y21551D01*
X24055Y21552D01*
X24063Y21554D01*
X24072Y21556D01*
X24080Y21558D01*
X24089Y21561D01*
X24097Y21564D01*
X24106Y21569D01*
X24114Y21574D01*
X24122Y21579D01*
X24130Y21585D01*
X24130Y21586D01*
X24132Y21587D01*
X24134Y21589D01*
X24136Y21592D01*
X24139Y21595D01*
X24142Y21599D01*
X24146Y21604D01*
X24149Y21609D01*
X24152Y21616D01*
X24156Y21622D01*
X24159Y21630D01*
X24162Y21637D01*
X24164Y21646D01*
X24166Y21654D01*
X24168Y21664D01*
X24168Y21674D01*
Y21676D01*
X24168Y21679D01*
Y21683D01*
X24167Y21687D01*
X24166Y21693D01*
X24165Y21698D01*
X24164Y21705D01*
X24161Y21712D01*
X24159Y21719D01*
X24156Y21727D01*
X24152Y21734D01*
X24148Y21742D01*
X24142Y21750D01*
X24137Y21757D01*
X24130Y21764D01*
X24129Y21765D01*
X24128Y21765D01*
X24126Y21767D01*
X24123Y21770D01*
X24119Y21773D01*
X24115Y21776D01*
X24109Y21779D01*
X24103Y21783D01*
X24096Y21786D01*
X24089Y21789D01*
X24080Y21792D01*
X24072Y21795D01*
X24062Y21798D01*
X24052Y21800D01*
X24041Y21801D01*
X24030Y21801D01*
D02*
G37*
G36*
X17723Y22924D02*
X17723D01*
X17721D01*
X17719D01*
X17716Y22923D01*
X17712Y22923D01*
X17707Y22922D01*
X17702Y22921D01*
X17697Y22920D01*
X17691Y22918D01*
X17685Y22916D01*
X17679Y22913D01*
X17673Y22910D01*
X17666Y22906D01*
X17660Y22902D01*
X17654Y22897D01*
X17649Y22891D01*
X17648Y22890D01*
X17647Y22889D01*
X17646Y22887D01*
X17644Y22885D01*
X17642Y22881D01*
X17640Y22876D01*
X17637Y22871D01*
X17634Y22865D01*
X17631Y22859D01*
X17628Y22851D01*
X17626Y22842D01*
X17624Y22833D01*
X17622Y22823D01*
X17621Y22812D01*
X17620Y22800D01*
X17619Y22787D01*
Y22585D01*
X17830D01*
Y22776D01*
X17830Y22781D01*
Y22787D01*
X17830Y22793D01*
X17829Y22800D01*
X17828Y22814D01*
X17825Y22829D01*
X17823Y22844D01*
X17821Y22850D01*
X17819Y22857D01*
Y22857D01*
X17818Y22858D01*
X17817Y22860D01*
X17817Y22862D01*
X17815Y22865D01*
X17814Y22868D01*
X17810Y22875D01*
X17804Y22884D01*
X17798Y22892D01*
X17790Y22900D01*
X17781Y22907D01*
X17780D01*
X17779Y22908D01*
X17778Y22908D01*
X17776Y22910D01*
X17774Y22911D01*
X17770Y22912D01*
X17763Y22916D01*
X17755Y22918D01*
X17745Y22921D01*
X17735Y22923D01*
X17723Y22924D01*
D02*
G37*
%LPD*%
D11*
X14225Y30150D02*
Y32850D01*
X2775D02*
X14225D01*
X2775Y30150D02*
Y32850D01*
Y30150D02*
X14225D01*
X17775Y31150D02*
Y33850D01*
Y31150D02*
X29225D01*
Y33850D01*
X17775D02*
X29225D01*
X37375Y29875D02*
X43625D01*
Y38125D01*
X37375D02*
X43625D01*
X37375Y29875D02*
Y38125D01*
X2775Y40150D02*
Y42850D01*
Y40150D02*
X14225D01*
Y42850D01*
X2775D02*
X14225D01*
X39150Y14275D02*
X41850D01*
Y25725D01*
X39150D02*
X41850D01*
X39150Y14275D02*
Y25725D01*
X14225Y35150D02*
Y37850D01*
X2775D02*
X14225D01*
X2775Y35150D02*
Y37850D01*
Y35150D02*
X14225D01*
X22650Y28225D02*
X25350D01*
X22650Y16775D02*
Y28225D01*
Y16775D02*
X25350D01*
Y28225D01*
X16650Y16775D02*
X19350D01*
Y28225D01*
X16650D02*
X19350D01*
X16650Y16775D02*
Y28225D01*
M02*
