G04*
G04 #@! TF.GenerationSoftware,Altium Limited,Altium Designer,26.6.0 (10)*
G04*
G04 Layer_Color=65535*
G04 Board_Origin=12165354|10000000*
%FSLAX43Y43*%
%MOMM*%
G71*
G04*
G04 #@! TF.SameCoordinates,0C82E001-9655-4BCD-8518-51B5F1C42B65*
G04*
G04*
G04 #@! TF.FilePolarity,Positive*
G04*
G01*
G75*
%ADD10C,0.250*%
%ADD11C,0.200*%
%ADD12C,0.600*%
%ADD13C,0.150*%
%ADD14C,0.254*%
G36*
X34574Y30931D02*
Y30931D01*
Y30930D01*
Y30928D01*
Y30925D01*
Y30922D01*
Y30917D01*
X34573Y30908D01*
Y30895D01*
X34572Y30881D01*
X34571Y30865D01*
X34569Y30849D01*
X34567Y30831D01*
X34565Y30812D01*
X34560Y30774D01*
X34555Y30755D01*
X34551Y30736D01*
X34546Y30718D01*
X34540Y30702D01*
X34540Y30701D01*
X34539Y30698D01*
X34537Y30694D01*
X34534Y30688D01*
X34530Y30680D01*
X34526Y30672D01*
X34520Y30663D01*
X34513Y30653D01*
X34506Y30642D01*
X34497Y30630D01*
X34488Y30619D01*
X34476Y30608D01*
X34465Y30596D01*
X34452Y30585D01*
X34438Y30574D01*
X34422Y30563D01*
X34422Y30562D01*
X34418Y30561D01*
X34413Y30558D01*
X34407Y30555D01*
X34398Y30551D01*
X34388Y30546D01*
X34376Y30542D01*
X34363Y30537D01*
X34347Y30532D01*
X34330Y30527D01*
X34312Y30523D01*
X34292Y30519D01*
X34270Y30515D01*
X34248Y30513D01*
X34224Y30511D01*
X34198Y30510D01*
X34185D01*
X34176Y30511D01*
X34164Y30512D01*
X34151Y30513D01*
X34136Y30515D01*
X34120Y30516D01*
X34103Y30519D01*
X34085Y30522D01*
X34067Y30526D01*
X34048Y30530D01*
X34030Y30535D01*
X34011Y30542D01*
X33994Y30549D01*
X33977Y30557D01*
X33976Y30558D01*
X33974Y30559D01*
X33969Y30562D01*
X33963Y30565D01*
X33956Y30570D01*
X33948Y30576D01*
X33940Y30583D01*
X33930Y30591D01*
X33920Y30600D01*
X33910Y30610D01*
X33900Y30621D01*
X33890Y30633D01*
X33880Y30646D01*
X33871Y30660D01*
X33863Y30675D01*
X33855Y30691D01*
X33854Y30692D01*
X33854Y30695D01*
X33852Y30700D01*
X33850Y30707D01*
X33847Y30716D01*
X33844Y30727D01*
X33841Y30739D01*
X33837Y30754D01*
X33834Y30770D01*
X33830Y30789D01*
X33827Y30808D01*
X33825Y30829D01*
X33823Y30852D01*
X33820Y30877D01*
X33820Y30904D01*
X33819Y30931D01*
Y31486D01*
X33946D01*
Y30932D01*
Y30931D01*
Y30927D01*
Y30920D01*
X33947Y30912D01*
Y30902D01*
X33947Y30890D01*
X33948Y30877D01*
X33949Y30862D01*
X33950Y30847D01*
X33951Y30832D01*
X33956Y30802D01*
X33958Y30787D01*
X33961Y30773D01*
X33965Y30759D01*
X33969Y30748D01*
Y30747D01*
X33970Y30745D01*
X33972Y30742D01*
X33974Y30738D01*
X33976Y30733D01*
X33979Y30727D01*
X33988Y30714D01*
X33999Y30700D01*
X34005Y30692D01*
X34013Y30684D01*
X34020Y30677D01*
X34029Y30670D01*
X34038Y30663D01*
X34049Y30657D01*
X34049D01*
X34051Y30655D01*
X34054Y30654D01*
X34059Y30652D01*
X34065Y30649D01*
X34071Y30646D01*
X34078Y30644D01*
X34087Y30641D01*
X34097Y30638D01*
X34108Y30635D01*
X34119Y30632D01*
X34131Y30630D01*
X34144Y30628D01*
X34158Y30626D01*
X34172Y30626D01*
X34187Y30625D01*
X34194D01*
X34200Y30626D01*
X34210D01*
X34222Y30627D01*
X34234Y30628D01*
X34249Y30630D01*
X34265Y30632D01*
X34281Y30636D01*
X34298Y30640D01*
X34314Y30646D01*
X34331Y30651D01*
X34347Y30659D01*
X34361Y30667D01*
X34375Y30677D01*
X34387Y30688D01*
X34388Y30689D01*
X34390Y30691D01*
X34393Y30695D01*
X34396Y30700D01*
X34401Y30708D01*
X34406Y30718D01*
X34411Y30729D01*
X34417Y30743D01*
X34422Y30758D01*
X34428Y30775D01*
X34433Y30795D01*
X34438Y30818D01*
X34441Y30843D01*
X34444Y30870D01*
X34446Y30899D01*
X34447Y30932D01*
Y31486D01*
X34574D01*
Y30931D01*
D02*
G37*
G36*
X35181Y30526D02*
X35063D01*
Y31277D01*
X35062Y31276D01*
X35061Y31275D01*
X35059Y31273D01*
X35055Y31270D01*
X35051Y31266D01*
X35046Y31261D01*
X35039Y31257D01*
X35033Y31251D01*
X35025Y31245D01*
X35017Y31239D01*
X35008Y31232D01*
X34998Y31225D01*
X34987Y31218D01*
X34976Y31210D01*
X34951Y31195D01*
X34950Y31194D01*
X34948Y31193D01*
X34944Y31191D01*
X34939Y31189D01*
X34933Y31185D01*
X34926Y31181D01*
X34918Y31177D01*
X34910Y31172D01*
X34890Y31162D01*
X34870Y31153D01*
X34848Y31143D01*
X34827Y31135D01*
Y31248D01*
X34829Y31249D01*
X34831Y31250D01*
X34837Y31253D01*
X34844Y31257D01*
X34852Y31261D01*
X34863Y31266D01*
X34874Y31273D01*
X34886Y31279D01*
X34899Y31288D01*
X34913Y31296D01*
X34942Y31316D01*
X34972Y31337D01*
X35000Y31361D01*
X35001Y31361D01*
X35003Y31363D01*
X35007Y31367D01*
X35012Y31372D01*
X35018Y31378D01*
X35025Y31385D01*
X35033Y31393D01*
X35041Y31401D01*
X35049Y31411D01*
X35058Y31422D01*
X35076Y31443D01*
X35091Y31466D01*
X35098Y31478D01*
X35105Y31490D01*
X35181D01*
Y30526D01*
D02*
G37*
G36*
X47580Y38125D02*
X47449D01*
X47077Y39085D01*
X47215D01*
X47464Y38388D01*
X47465Y38387D01*
X47466Y38384D01*
X47467Y38379D01*
X47469Y38373D01*
X47472Y38366D01*
X47475Y38357D01*
X47478Y38347D01*
X47482Y38336D01*
X47486Y38324D01*
X47490Y38312D01*
X47498Y38286D01*
X47507Y38258D01*
X47515Y38230D01*
Y38231D01*
X47516Y38234D01*
X47517Y38238D01*
X47519Y38243D01*
X47521Y38251D01*
X47523Y38259D01*
X47527Y38269D01*
X47529Y38279D01*
X47534Y38290D01*
X47537Y38303D01*
X47542Y38316D01*
X47546Y38329D01*
X47556Y38358D01*
X47567Y38388D01*
X47826Y39085D01*
X47956D01*
X47580Y38125D01*
D02*
G37*
G36*
X49434D02*
X49316D01*
Y38876D01*
X49315Y38875D01*
X49314Y38874D01*
X49312Y38872D01*
X49308Y38869D01*
X49304Y38865D01*
X49298Y38860D01*
X49292Y38856D01*
X49286Y38850D01*
X49278Y38844D01*
X49269Y38838D01*
X49260Y38831D01*
X49250Y38824D01*
X49239Y38817D01*
X49228Y38809D01*
X49203Y38794D01*
X49203Y38793D01*
X49201Y38792D01*
X49196Y38790D01*
X49192Y38788D01*
X49186Y38784D01*
X49179Y38780D01*
X49171Y38776D01*
X49162Y38771D01*
X49143Y38761D01*
X49122Y38752D01*
X49101Y38742D01*
X49080Y38734D01*
Y38847D01*
X49081Y38848D01*
X49084Y38849D01*
X49090Y38852D01*
X49097Y38856D01*
X49105Y38860D01*
X49115Y38865D01*
X49126Y38872D01*
X49138Y38878D01*
X49151Y38887D01*
X49165Y38895D01*
X49194Y38915D01*
X49224Y38936D01*
X49253Y38960D01*
X49253Y38960D01*
X49256Y38962D01*
X49259Y38966D01*
X49264Y38971D01*
X49271Y38977D01*
X49278Y38984D01*
X49285Y38992D01*
X49293Y39000D01*
X49302Y39010D01*
X49311Y39021D01*
X49328Y39042D01*
X49344Y39065D01*
X49351Y39077D01*
X49357Y39089D01*
X49434D01*
Y38125D01*
D02*
G37*
G36*
X48518Y39084D02*
X48529D01*
X48541Y39084D01*
X48554Y39083D01*
X48570Y39082D01*
X48585Y39080D01*
X48601Y39079D01*
X48633Y39074D01*
X48649Y39071D01*
X48664Y39068D01*
X48678Y39064D01*
X48692Y39059D01*
X48692D01*
X48694Y39057D01*
X48698Y39056D01*
X48703Y39054D01*
X48708Y39051D01*
X48714Y39047D01*
X48722Y39043D01*
X48730Y39038D01*
X48738Y39032D01*
X48747Y39025D01*
X48756Y39018D01*
X48765Y39010D01*
X48773Y39000D01*
X48782Y38990D01*
X48791Y38979D01*
X48798Y38967D01*
X48799Y38967D01*
X48800Y38964D01*
X48802Y38961D01*
X48805Y38956D01*
X48807Y38950D01*
X48811Y38942D01*
X48815Y38934D01*
X48818Y38925D01*
X48822Y38915D01*
X48826Y38903D01*
X48830Y38892D01*
X48832Y38879D01*
X48835Y38866D01*
X48837Y38852D01*
X48838Y38838D01*
X48839Y38823D01*
Y38822D01*
Y38819D01*
X48838Y38813D01*
Y38806D01*
X48837Y38797D01*
X48835Y38787D01*
X48833Y38776D01*
X48830Y38763D01*
X48827Y38750D01*
X48823Y38736D01*
X48817Y38722D01*
X48811Y38707D01*
X48803Y38693D01*
X48794Y38679D01*
X48784Y38664D01*
X48772Y38651D01*
X48771Y38650D01*
X48769Y38648D01*
X48765Y38645D01*
X48760Y38640D01*
X48753Y38634D01*
X48744Y38628D01*
X48734Y38621D01*
X48722Y38614D01*
X48708Y38606D01*
X48694Y38598D01*
X48676Y38591D01*
X48658Y38584D01*
X48638Y38578D01*
X48617Y38571D01*
X48593Y38566D01*
X48568Y38562D01*
X48569D01*
X48570Y38561D01*
X48573Y38560D01*
X48576Y38558D01*
X48581Y38556D01*
X48585Y38553D01*
X48597Y38547D01*
X48609Y38540D01*
X48622Y38532D01*
X48633Y38523D01*
X48644Y38514D01*
X48645Y38514D01*
X48647Y38512D01*
X48650Y38509D01*
X48654Y38505D01*
X48659Y38500D01*
X48665Y38494D01*
X48671Y38487D01*
X48678Y38479D01*
X48686Y38470D01*
X48694Y38460D01*
X48703Y38450D01*
X48712Y38439D01*
X48721Y38426D01*
X48731Y38414D01*
X48750Y38386D01*
X48916Y38125D01*
X48757D01*
X48630Y38325D01*
X48629Y38326D01*
X48627Y38329D01*
X48624Y38333D01*
X48621Y38339D01*
X48616Y38347D01*
X48610Y38355D01*
X48604Y38364D01*
X48598Y38374D01*
X48583Y38395D01*
X48568Y38417D01*
X48553Y38438D01*
X48545Y38448D01*
X48538Y38457D01*
X48538Y38458D01*
X48537Y38459D01*
X48535Y38461D01*
X48532Y38464D01*
X48525Y38473D01*
X48517Y38483D01*
X48506Y38493D01*
X48496Y38504D01*
X48485Y38514D01*
X48474Y38521D01*
X48472Y38522D01*
X48469Y38524D01*
X48463Y38528D01*
X48456Y38531D01*
X48448Y38535D01*
X48438Y38540D01*
X48427Y38544D01*
X48416Y38547D01*
X48416D01*
X48412Y38548D01*
X48407Y38548D01*
X48400Y38550D01*
X48390Y38550D01*
X48377Y38551D01*
X48363Y38552D01*
X48199D01*
Y38125D01*
X48072D01*
Y39085D01*
X48509D01*
X48518Y39084D01*
D02*
G37*
G36*
X37665Y39736D02*
X37674D01*
X37685Y39735D01*
X37697Y39734D01*
X37710Y39733D01*
X37724Y39730D01*
X37740Y39728D01*
X37771Y39722D01*
X37787Y39718D01*
X37803Y39714D01*
X37819Y39708D01*
X37835Y39702D01*
X37835Y39701D01*
X37838Y39701D01*
X37842Y39699D01*
X37848Y39696D01*
X37855Y39692D01*
X37862Y39688D01*
X37871Y39683D01*
X37880Y39676D01*
X37891Y39670D01*
X37900Y39663D01*
X37911Y39654D01*
X37921Y39645D01*
X37932Y39636D01*
X37941Y39624D01*
X37951Y39613D01*
X37959Y39601D01*
X37960Y39600D01*
X37961Y39598D01*
X37964Y39594D01*
X37966Y39589D01*
X37970Y39583D01*
X37974Y39575D01*
X37977Y39567D01*
X37982Y39557D01*
X37986Y39547D01*
X37991Y39535D01*
X37995Y39522D01*
X37998Y39509D01*
X38002Y39495D01*
X38004Y39481D01*
X38006Y39466D01*
X38007Y39450D01*
X37885Y39441D01*
Y39443D01*
X37884Y39445D01*
X37884Y39450D01*
X37882Y39457D01*
X37881Y39464D01*
X37879Y39473D01*
X37876Y39482D01*
X37873Y39493D01*
X37869Y39504D01*
X37864Y39515D01*
X37859Y39526D01*
X37853Y39538D01*
X37846Y39549D01*
X37837Y39559D01*
X37828Y39570D01*
X37819Y39579D01*
X37818Y39579D01*
X37816Y39581D01*
X37813Y39583D01*
X37808Y39586D01*
X37802Y39590D01*
X37795Y39593D01*
X37787Y39597D01*
X37777Y39602D01*
X37766Y39606D01*
X37753Y39611D01*
X37740Y39614D01*
X37725Y39618D01*
X37708Y39621D01*
X37691Y39623D01*
X37672Y39624D01*
X37652Y39625D01*
X37641D01*
X37633Y39624D01*
X37624Y39624D01*
X37613Y39623D01*
X37601Y39622D01*
X37588Y39620D01*
X37561Y39615D01*
X37547Y39611D01*
X37533Y39607D01*
X37520Y39602D01*
X37507Y39597D01*
X37495Y39590D01*
X37484Y39583D01*
X37484Y39582D01*
X37482Y39581D01*
X37480Y39579D01*
X37476Y39575D01*
X37473Y39571D01*
X37468Y39566D01*
X37464Y39561D01*
X37459Y39554D01*
X37454Y39547D01*
X37449Y39539D01*
X37441Y39522D01*
X37437Y39513D01*
X37434Y39502D01*
X37433Y39492D01*
X37432Y39481D01*
Y39480D01*
Y39479D01*
Y39476D01*
X37433Y39473D01*
X37434Y39468D01*
X37434Y39463D01*
X37437Y39451D01*
X37441Y39437D01*
X37448Y39423D01*
X37452Y39416D01*
X37457Y39409D01*
X37463Y39402D01*
X37469Y39396D01*
X37470Y39395D01*
X37471Y39394D01*
X37473Y39392D01*
X37477Y39390D01*
X37482Y39387D01*
X37489Y39383D01*
X37497Y39379D01*
X37507Y39374D01*
X37518Y39369D01*
X37532Y39364D01*
X37548Y39358D01*
X37565Y39352D01*
X37585Y39346D01*
X37607Y39339D01*
X37632Y39333D01*
X37660Y39326D01*
X37661D01*
X37662Y39326D01*
X37664D01*
X37667Y39325D01*
X37670Y39324D01*
X37674Y39323D01*
X37685Y39321D01*
X37697Y39317D01*
X37712Y39314D01*
X37728Y39310D01*
X37744Y39305D01*
X37780Y39296D01*
X37797Y39292D01*
X37814Y39286D01*
X37831Y39281D01*
X37846Y39276D01*
X37860Y39271D01*
X37872Y39266D01*
X37873Y39265D01*
X37875Y39264D01*
X37880Y39262D01*
X37886Y39259D01*
X37893Y39255D01*
X37900Y39251D01*
X37909Y39245D01*
X37919Y39239D01*
X37929Y39233D01*
X37939Y39225D01*
X37960Y39208D01*
X37979Y39189D01*
X37988Y39179D01*
X37996Y39167D01*
X37997Y39167D01*
X37998Y39165D01*
X38000Y39161D01*
X38002Y39157D01*
X38005Y39151D01*
X38009Y39145D01*
X38013Y39137D01*
X38016Y39129D01*
X38020Y39119D01*
X38024Y39109D01*
X38027Y39097D01*
X38030Y39085D01*
X38033Y39072D01*
X38035Y39059D01*
X38036Y39046D01*
X38036Y39032D01*
Y39031D01*
Y39028D01*
Y39024D01*
X38036Y39018D01*
X38035Y39011D01*
X38034Y39004D01*
X38033Y38995D01*
X38031Y38984D01*
X38029Y38974D01*
X38025Y38962D01*
X38022Y38950D01*
X38018Y38938D01*
X38013Y38925D01*
X38007Y38912D01*
X38000Y38900D01*
X37992Y38887D01*
X37991Y38886D01*
X37990Y38884D01*
X37987Y38880D01*
X37984Y38876D01*
X37979Y38870D01*
X37974Y38863D01*
X37968Y38856D01*
X37960Y38848D01*
X37952Y38840D01*
X37942Y38832D01*
X37932Y38823D01*
X37921Y38814D01*
X37909Y38805D01*
X37896Y38797D01*
X37882Y38790D01*
X37866Y38782D01*
X37866Y38781D01*
X37863Y38781D01*
X37858Y38778D01*
X37852Y38776D01*
X37844Y38774D01*
X37835Y38770D01*
X37825Y38767D01*
X37813Y38763D01*
X37800Y38760D01*
X37785Y38756D01*
X37770Y38753D01*
X37754Y38750D01*
X37737Y38748D01*
X37719Y38746D01*
X37701Y38745D01*
X37682Y38744D01*
X37670D01*
X37661Y38745D01*
X37649Y38746D01*
X37636Y38747D01*
X37622Y38748D01*
X37606Y38749D01*
X37589Y38751D01*
X37572Y38753D01*
X37535Y38760D01*
X37516Y38765D01*
X37498Y38769D01*
X37480Y38776D01*
X37464Y38782D01*
X37463Y38783D01*
X37459Y38784D01*
X37455Y38786D01*
X37449Y38789D01*
X37441Y38793D01*
X37433Y38798D01*
X37423Y38804D01*
X37414Y38810D01*
X37403Y38818D01*
X37391Y38826D01*
X37380Y38836D01*
X37369Y38846D01*
X37357Y38857D01*
X37346Y38869D01*
X37335Y38882D01*
X37326Y38896D01*
X37325Y38897D01*
X37324Y38900D01*
X37321Y38904D01*
X37318Y38909D01*
X37314Y38917D01*
X37310Y38925D01*
X37305Y38935D01*
X37301Y38946D01*
X37296Y38959D01*
X37291Y38972D01*
X37287Y38986D01*
X37283Y39001D01*
X37279Y39017D01*
X37276Y39034D01*
X37274Y39051D01*
X37274Y39069D01*
X37394Y39079D01*
Y39079D01*
X37394Y39076D01*
Y39072D01*
X37396Y39068D01*
X37396Y39061D01*
X37398Y39054D01*
X37400Y39046D01*
X37402Y39037D01*
X37407Y39018D01*
X37414Y38998D01*
X37422Y38979D01*
X37432Y38960D01*
X37433Y38959D01*
X37434Y38958D01*
X37436Y38956D01*
X37439Y38952D01*
X37441Y38948D01*
X37446Y38944D01*
X37450Y38939D01*
X37456Y38934D01*
X37462Y38928D01*
X37470Y38922D01*
X37477Y38916D01*
X37486Y38909D01*
X37495Y38903D01*
X37506Y38897D01*
X37517Y38891D01*
X37529Y38886D01*
X37529D01*
X37532Y38885D01*
X37536Y38883D01*
X37541Y38882D01*
X37547Y38880D01*
X37554Y38877D01*
X37563Y38874D01*
X37572Y38872D01*
X37582Y38869D01*
X37594Y38866D01*
X37606Y38864D01*
X37619Y38862D01*
X37647Y38859D01*
X37676Y38857D01*
X37683D01*
X37689Y38858D01*
X37695D01*
X37702Y38859D01*
X37710Y38860D01*
X37719Y38860D01*
X37740Y38863D01*
X37761Y38866D01*
X37783Y38872D01*
X37804Y38879D01*
X37805D01*
X37807Y38880D01*
X37810Y38881D01*
X37813Y38883D01*
X37818Y38885D01*
X37823Y38888D01*
X37835Y38894D01*
X37848Y38903D01*
X37862Y38913D01*
X37875Y38925D01*
X37887Y38938D01*
Y38939D01*
X37888Y38940D01*
X37889Y38942D01*
X37891Y38945D01*
X37893Y38948D01*
X37896Y38952D01*
X37900Y38963D01*
X37905Y38975D01*
X37910Y38989D01*
X37913Y39004D01*
X37914Y39020D01*
Y39021D01*
Y39023D01*
Y39025D01*
X37914Y39028D01*
Y39032D01*
X37913Y39036D01*
X37911Y39047D01*
X37908Y39059D01*
X37903Y39072D01*
X37896Y39086D01*
X37887Y39099D01*
Y39099D01*
X37886Y39100D01*
X37882Y39104D01*
X37875Y39111D01*
X37871Y39115D01*
X37866Y39119D01*
X37861Y39123D01*
X37855Y39128D01*
X37848Y39133D01*
X37839Y39138D01*
X37831Y39142D01*
X37821Y39147D01*
X37812Y39151D01*
X37801Y39156D01*
X37800D01*
X37799Y39157D01*
X37796Y39158D01*
X37792Y39159D01*
X37787Y39160D01*
X37782Y39163D01*
X37774Y39165D01*
X37765Y39167D01*
X37754Y39171D01*
X37742Y39174D01*
X37728Y39178D01*
X37713Y39182D01*
X37695Y39187D01*
X37675Y39192D01*
X37654Y39197D01*
X37630Y39203D01*
X37629D01*
X37629Y39203D01*
X37627D01*
X37624Y39204D01*
X37618Y39206D01*
X37609Y39208D01*
X37598Y39211D01*
X37586Y39215D01*
X37572Y39218D01*
X37558Y39222D01*
X37527Y39231D01*
X37497Y39242D01*
X37482Y39247D01*
X37468Y39253D01*
X37457Y39258D01*
X37446Y39263D01*
X37445Y39264D01*
X37443Y39265D01*
X37439Y39267D01*
X37434Y39269D01*
X37429Y39273D01*
X37422Y39278D01*
X37415Y39283D01*
X37407Y39288D01*
X37390Y39301D01*
X37373Y39316D01*
X37357Y39333D01*
X37350Y39343D01*
X37343Y39353D01*
X37342Y39353D01*
X37342Y39355D01*
X37340Y39358D01*
X37338Y39362D01*
X37335Y39367D01*
X37333Y39373D01*
X37330Y39380D01*
X37326Y39387D01*
X37324Y39396D01*
X37320Y39405D01*
X37315Y39425D01*
X37311Y39448D01*
X37310Y39459D01*
X37310Y39472D01*
Y39473D01*
Y39475D01*
Y39479D01*
X37310Y39484D01*
X37311Y39491D01*
X37312Y39498D01*
X37313Y39507D01*
X37315Y39516D01*
X37317Y39527D01*
X37319Y39537D01*
X37323Y39548D01*
X37327Y39560D01*
X37332Y39572D01*
X37337Y39583D01*
X37344Y39596D01*
X37351Y39608D01*
X37351Y39608D01*
X37353Y39611D01*
X37355Y39614D01*
X37358Y39618D01*
X37362Y39624D01*
X37368Y39629D01*
X37374Y39636D01*
X37381Y39643D01*
X37389Y39651D01*
X37398Y39659D01*
X37407Y39667D01*
X37419Y39675D01*
X37430Y39683D01*
X37443Y39690D01*
X37456Y39697D01*
X37471Y39703D01*
X37471Y39704D01*
X37474Y39705D01*
X37478Y39706D01*
X37484Y39709D01*
X37492Y39711D01*
X37500Y39714D01*
X37511Y39717D01*
X37523Y39720D01*
X37535Y39724D01*
X37548Y39726D01*
X37563Y39729D01*
X37578Y39732D01*
X37595Y39734D01*
X37611Y39735D01*
X37629Y39736D01*
X37647Y39737D01*
X37657D01*
X37665Y39736D01*
D02*
G37*
G36*
X39093Y38760D02*
X38970D01*
X38769Y39491D01*
Y39493D01*
X38768Y39495D01*
X38767Y39500D01*
X38765Y39506D01*
X38763Y39513D01*
X38761Y39521D01*
X38758Y39530D01*
X38755Y39540D01*
X38750Y39559D01*
X38748Y39568D01*
X38745Y39577D01*
X38743Y39586D01*
X38741Y39592D01*
X38739Y39599D01*
X38738Y39604D01*
Y39603D01*
X38737Y39601D01*
X38737Y39597D01*
X38735Y39592D01*
X38734Y39587D01*
X38733Y39580D01*
X38730Y39573D01*
X38728Y39565D01*
X38724Y39547D01*
X38719Y39529D01*
X38715Y39509D01*
X38710Y39491D01*
X38508Y38760D01*
X38376D01*
X38123Y39720D01*
X38253D01*
X38398Y39090D01*
Y39089D01*
X38400Y39086D01*
X38400Y39081D01*
X38402Y39074D01*
X38405Y39065D01*
X38407Y39054D01*
X38409Y39042D01*
X38412Y39029D01*
X38416Y39015D01*
X38418Y39000D01*
X38422Y38983D01*
X38425Y38966D01*
X38432Y38931D01*
X38439Y38894D01*
Y38895D01*
X38440Y38896D01*
Y38898D01*
X38441Y38901D01*
X38442Y38905D01*
X38443Y38909D01*
X38445Y38918D01*
X38448Y38931D01*
X38451Y38944D01*
X38454Y38959D01*
X38459Y38974D01*
X38466Y39005D01*
X38470Y39020D01*
X38473Y39034D01*
X38477Y39047D01*
X38479Y39057D01*
X38482Y39066D01*
X38482Y39069D01*
X38483Y39072D01*
X38665Y39720D01*
X38818D01*
X38955Y39234D01*
Y39233D01*
X38956Y39232D01*
X38957Y39229D01*
X38957Y39226D01*
X38959Y39222D01*
X38960Y39216D01*
X38961Y39210D01*
X38963Y39203D01*
X38966Y39196D01*
X38968Y39188D01*
X38972Y39168D01*
X38978Y39147D01*
X38984Y39124D01*
X38990Y39098D01*
X38996Y39072D01*
X39002Y39043D01*
X39009Y39014D01*
X39020Y38955D01*
X39030Y38894D01*
Y38896D01*
X39031Y38898D01*
X39032Y38903D01*
X39034Y38910D01*
X39036Y38919D01*
X39038Y38929D01*
X39040Y38941D01*
X39043Y38955D01*
X39047Y38969D01*
X39050Y38985D01*
X39054Y39002D01*
X39058Y39020D01*
X39063Y39040D01*
X39067Y39060D01*
X39072Y39081D01*
X39078Y39103D01*
X39228Y39720D01*
X39357D01*
X39093Y38760D01*
D02*
G37*
G36*
X39870D02*
X39753D01*
Y39511D01*
X39752Y39510D01*
X39750Y39509D01*
X39748Y39507D01*
X39745Y39504D01*
X39741Y39500D01*
X39735Y39495D01*
X39729Y39491D01*
X39723Y39485D01*
X39714Y39479D01*
X39706Y39473D01*
X39697Y39466D01*
X39687Y39459D01*
X39676Y39452D01*
X39665Y39444D01*
X39640Y39429D01*
X39640Y39428D01*
X39637Y39427D01*
X39633Y39425D01*
X39628Y39423D01*
X39623Y39419D01*
X39616Y39415D01*
X39608Y39411D01*
X39599Y39406D01*
X39580Y39396D01*
X39559Y39387D01*
X39538Y39377D01*
X39517Y39369D01*
Y39482D01*
X39518Y39483D01*
X39521Y39484D01*
X39527Y39487D01*
X39533Y39491D01*
X39542Y39495D01*
X39552Y39500D01*
X39563Y39507D01*
X39575Y39513D01*
X39588Y39522D01*
X39602Y39530D01*
X39631Y39550D01*
X39661Y39571D01*
X39689Y39595D01*
X39690Y39595D01*
X39693Y39597D01*
X39696Y39601D01*
X39701Y39606D01*
X39708Y39612D01*
X39714Y39619D01*
X39722Y39627D01*
X39730Y39636D01*
X39739Y39645D01*
X39748Y39656D01*
X39765Y39677D01*
X39781Y39700D01*
X39788Y39712D01*
X39794Y39724D01*
X39870D01*
Y38760D01*
D02*
G37*
G36*
X18094Y29685D02*
X18094Y29683D01*
X18090Y29681D01*
X18085Y29674D01*
X18078Y29667D01*
X18070Y29657D01*
X18060Y29645D01*
X18049Y29631D01*
X18037Y29615D01*
X18024Y29598D01*
X18010Y29579D01*
X17994Y29557D01*
X17979Y29534D01*
X17962Y29509D01*
X17947Y29483D01*
X17929Y29455D01*
X17913Y29425D01*
Y29425D01*
X17912Y29423D01*
X17910Y29421D01*
X17908Y29418D01*
X17906Y29414D01*
X17904Y29409D01*
X17901Y29404D01*
X17898Y29398D01*
X17894Y29391D01*
X17890Y29382D01*
X17881Y29365D01*
X17872Y29346D01*
X17861Y29323D01*
X17850Y29299D01*
X17839Y29273D01*
X17827Y29246D01*
X17816Y29217D01*
X17804Y29187D01*
X17794Y29156D01*
X17784Y29124D01*
X17774Y29093D01*
X17773Y29091D01*
X17772Y29087D01*
X17770Y29081D01*
X17768Y29072D01*
X17766Y29060D01*
X17762Y29047D01*
X17759Y29031D01*
X17755Y29014D01*
X17751Y28995D01*
X17748Y28975D01*
X17743Y28953D01*
X17740Y28930D01*
X17736Y28907D01*
X17734Y28882D01*
X17731Y28855D01*
X17729Y28829D01*
X17607D01*
Y28830D01*
Y28834D01*
X17608Y28841D01*
Y28849D01*
X17609Y28860D01*
X17610Y28873D01*
X17612Y28889D01*
X17614Y28905D01*
X17616Y28925D01*
X17619Y28945D01*
X17622Y28968D01*
X17626Y28992D01*
X17632Y29018D01*
X17637Y29045D01*
X17643Y29073D01*
X17651Y29102D01*
Y29103D01*
X17652Y29104D01*
X17653Y29106D01*
X17653Y29109D01*
X17655Y29113D01*
X17656Y29118D01*
X17657Y29124D01*
X17659Y29130D01*
X17664Y29144D01*
X17669Y29161D01*
X17675Y29180D01*
X17682Y29201D01*
X17691Y29224D01*
X17700Y29249D01*
X17710Y29274D01*
X17720Y29301D01*
X17732Y29328D01*
X17745Y29355D01*
X17759Y29384D01*
X17773Y29411D01*
Y29412D01*
X17774Y29413D01*
X17775Y29415D01*
X17777Y29418D01*
X17779Y29422D01*
X17781Y29426D01*
X17787Y29436D01*
X17795Y29449D01*
X17803Y29464D01*
X17813Y29481D01*
X17824Y29499D01*
X17836Y29518D01*
X17849Y29538D01*
X17864Y29559D01*
X17879Y29581D01*
X17910Y29623D01*
X17926Y29644D01*
X17943Y29663D01*
X17473D01*
Y29776D01*
X18094D01*
Y29685D01*
D02*
G37*
G36*
X16993Y29788D02*
X17004D01*
X17017Y29787D01*
X17030Y29787D01*
X17045Y29785D01*
X17060Y29784D01*
X17076Y29782D01*
X17109Y29778D01*
X17124Y29775D01*
X17139Y29771D01*
X17154Y29767D01*
X17167Y29762D01*
X17168D01*
X17170Y29761D01*
X17173Y29760D01*
X17178Y29757D01*
X17184Y29755D01*
X17190Y29751D01*
X17198Y29746D01*
X17205Y29742D01*
X17214Y29735D01*
X17223Y29729D01*
X17232Y29721D01*
X17241Y29713D01*
X17249Y29703D01*
X17258Y29694D01*
X17266Y29683D01*
X17274Y29671D01*
X17275Y29670D01*
X17276Y29668D01*
X17277Y29665D01*
X17280Y29660D01*
X17283Y29653D01*
X17286Y29646D01*
X17291Y29638D01*
X17294Y29629D01*
X17297Y29618D01*
X17302Y29607D01*
X17305Y29595D01*
X17308Y29583D01*
X17311Y29570D01*
X17313Y29556D01*
X17313Y29541D01*
X17314Y29527D01*
Y29525D01*
Y29522D01*
X17313Y29517D01*
Y29509D01*
X17312Y29501D01*
X17311Y29491D01*
X17309Y29479D01*
X17306Y29467D01*
X17302Y29454D01*
X17298Y29440D01*
X17293Y29425D01*
X17286Y29411D01*
X17279Y29396D01*
X17270Y29382D01*
X17259Y29368D01*
X17248Y29355D01*
X17247Y29354D01*
X17245Y29352D01*
X17241Y29348D01*
X17235Y29344D01*
X17228Y29338D01*
X17219Y29332D01*
X17209Y29325D01*
X17198Y29317D01*
X17184Y29310D01*
X17169Y29302D01*
X17152Y29295D01*
X17134Y29287D01*
X17114Y29281D01*
X17092Y29275D01*
X17069Y29270D01*
X17044Y29266D01*
X17044D01*
X17046Y29264D01*
X17049Y29264D01*
X17052Y29262D01*
X17056Y29260D01*
X17061Y29257D01*
X17072Y29251D01*
X17085Y29244D01*
X17097Y29235D01*
X17109Y29227D01*
X17120Y29218D01*
X17121Y29217D01*
X17123Y29216D01*
X17126Y29212D01*
X17130Y29209D01*
X17135Y29203D01*
X17140Y29198D01*
X17147Y29191D01*
X17154Y29183D01*
X17162Y29174D01*
X17170Y29164D01*
X17179Y29154D01*
X17188Y29142D01*
X17197Y29130D01*
X17207Y29117D01*
X17225Y29090D01*
X17391Y28829D01*
X17232D01*
X17105Y29029D01*
X17105Y29029D01*
X17103Y29032D01*
X17100Y29037D01*
X17096Y29043D01*
X17092Y29050D01*
X17086Y29059D01*
X17080Y29068D01*
X17074Y29077D01*
X17059Y29099D01*
X17044Y29121D01*
X17028Y29142D01*
X17021Y29151D01*
X17014Y29160D01*
X17013Y29161D01*
X17012Y29163D01*
X17010Y29165D01*
X17008Y29168D01*
X17001Y29176D01*
X16992Y29186D01*
X16982Y29197D01*
X16972Y29208D01*
X16960Y29217D01*
X16949Y29225D01*
X16948Y29226D01*
X16945Y29228D01*
X16939Y29231D01*
X16931Y29235D01*
X16923Y29239D01*
X16913Y29244D01*
X16903Y29247D01*
X16892Y29251D01*
X16891D01*
X16888Y29251D01*
X16882Y29252D01*
X16875Y29253D01*
X16865Y29254D01*
X16853Y29255D01*
X16838Y29255D01*
X16674D01*
Y28829D01*
X16547D01*
Y29789D01*
X16985D01*
X16993Y29788D01*
D02*
G37*
G36*
X23810Y29817D02*
X23817D01*
X23827Y29815D01*
X23838Y29814D01*
X23851Y29812D01*
X23865Y29810D01*
X23879Y29806D01*
X23894Y29802D01*
X23909Y29797D01*
X23924Y29791D01*
X23940Y29784D01*
X23955Y29775D01*
X23970Y29765D01*
X23984Y29754D01*
X23985Y29753D01*
X23987Y29751D01*
X23991Y29747D01*
X23996Y29742D01*
X24001Y29736D01*
X24007Y29727D01*
X24014Y29718D01*
X24022Y29708D01*
X24030Y29696D01*
X24037Y29683D01*
X24045Y29668D01*
X24051Y29653D01*
X24058Y29636D01*
X24064Y29618D01*
X24068Y29598D01*
X24071Y29578D01*
X23954Y29569D01*
Y29570D01*
X23953Y29572D01*
X23953Y29576D01*
X23951Y29580D01*
X23949Y29587D01*
X23948Y29593D01*
X23942Y29608D01*
X23936Y29624D01*
X23928Y29641D01*
X23919Y29657D01*
X23915Y29664D01*
X23909Y29670D01*
X23908Y29671D01*
X23907Y29672D01*
X23904Y29675D01*
X23901Y29677D01*
X23896Y29682D01*
X23890Y29686D01*
X23884Y29691D01*
X23876Y29696D01*
X23868Y29700D01*
X23859Y29705D01*
X23850Y29709D01*
X23840Y29713D01*
X23829Y29716D01*
X23817Y29718D01*
X23804Y29720D01*
X23792Y29720D01*
X23786D01*
X23782Y29720D01*
X23777D01*
X23772Y29719D01*
X23765Y29718D01*
X23758Y29716D01*
X23743Y29713D01*
X23726Y29707D01*
X23709Y29699D01*
X23701Y29694D01*
X23693Y29689D01*
X23692Y29688D01*
X23691Y29687D01*
X23687Y29684D01*
X23684Y29681D01*
X23679Y29677D01*
X23673Y29672D01*
X23668Y29666D01*
X23661Y29659D01*
X23654Y29651D01*
X23647Y29642D01*
X23639Y29632D01*
X23632Y29622D01*
X23625Y29610D01*
X23618Y29598D01*
X23611Y29585D01*
X23605Y29571D01*
Y29570D01*
X23603Y29567D01*
X23602Y29562D01*
X23600Y29556D01*
X23597Y29549D01*
X23594Y29539D01*
X23591Y29527D01*
X23589Y29514D01*
X23586Y29499D01*
X23582Y29483D01*
X23580Y29464D01*
X23578Y29444D01*
X23575Y29423D01*
X23573Y29400D01*
X23573Y29375D01*
X23572Y29349D01*
X23573Y29350D01*
X23574Y29352D01*
X23576Y29355D01*
X23580Y29359D01*
X23584Y29365D01*
X23589Y29371D01*
X23594Y29378D01*
X23601Y29386D01*
X23608Y29393D01*
X23616Y29401D01*
X23634Y29417D01*
X23653Y29432D01*
X23664Y29439D01*
X23675Y29445D01*
X23676Y29446D01*
X23678Y29447D01*
X23682Y29448D01*
X23686Y29450D01*
X23692Y29453D01*
X23698Y29456D01*
X23706Y29458D01*
X23715Y29461D01*
X23724Y29464D01*
X23734Y29467D01*
X23756Y29472D01*
X23780Y29476D01*
X23793Y29477D01*
X23811D01*
X23817Y29476D01*
X23824Y29476D01*
X23835Y29474D01*
X23847Y29472D01*
X23860Y29469D01*
X23874Y29466D01*
X23890Y29462D01*
X23906Y29456D01*
X23922Y29449D01*
X23940Y29440D01*
X23956Y29430D01*
X23973Y29419D01*
X23989Y29405D01*
X24005Y29390D01*
X24006Y29389D01*
X24009Y29386D01*
X24013Y29381D01*
X24019Y29374D01*
X24025Y29365D01*
X24032Y29355D01*
X24039Y29343D01*
X24047Y29329D01*
X24055Y29314D01*
X24062Y29297D01*
X24069Y29279D01*
X24075Y29259D01*
X24081Y29237D01*
X24085Y29215D01*
X24088Y29191D01*
X24089Y29166D01*
Y29165D01*
Y29162D01*
Y29157D01*
X24088Y29150D01*
X24087Y29142D01*
X24087Y29133D01*
X24085Y29123D01*
X24084Y29111D01*
X24082Y29098D01*
X24079Y29085D01*
X24076Y29071D01*
X24072Y29057D01*
X24067Y29042D01*
X24062Y29028D01*
X24056Y29013D01*
X24049Y28998D01*
X24048Y28997D01*
X24047Y28994D01*
X24045Y28990D01*
X24042Y28985D01*
X24038Y28979D01*
X24033Y28971D01*
X24028Y28963D01*
X24021Y28954D01*
X24014Y28945D01*
X24006Y28935D01*
X23997Y28925D01*
X23987Y28915D01*
X23978Y28906D01*
X23967Y28896D01*
X23955Y28888D01*
X23942Y28879D01*
X23942Y28879D01*
X23940Y28877D01*
X23935Y28876D01*
X23931Y28873D01*
X23924Y28870D01*
X23916Y28866D01*
X23908Y28863D01*
X23897Y28859D01*
X23887Y28855D01*
X23875Y28852D01*
X23862Y28848D01*
X23849Y28845D01*
X23834Y28842D01*
X23820Y28841D01*
X23804Y28839D01*
X23788Y28838D01*
X23781D01*
X23778Y28839D01*
X23774D01*
X23763Y28840D01*
X23751Y28842D01*
X23736Y28844D01*
X23720Y28847D01*
X23702Y28852D01*
X23684Y28858D01*
X23664Y28865D01*
X23645Y28874D01*
X23625Y28884D01*
X23605Y28897D01*
X23584Y28911D01*
X23566Y28928D01*
X23548Y28947D01*
X23547Y28948D01*
X23544Y28951D01*
X23539Y28958D01*
X23533Y28967D01*
X23526Y28979D01*
X23522Y28986D01*
X23519Y28994D01*
X23514Y29002D01*
X23510Y29011D01*
X23505Y29022D01*
X23501Y29032D01*
X23497Y29043D01*
X23493Y29055D01*
X23488Y29068D01*
X23484Y29081D01*
X23480Y29096D01*
X23476Y29110D01*
X23473Y29126D01*
X23469Y29143D01*
X23466Y29160D01*
X23463Y29178D01*
X23461Y29197D01*
X23459Y29216D01*
X23457Y29237D01*
X23456Y29258D01*
X23455Y29280D01*
Y29303D01*
Y29304D01*
Y29307D01*
Y29310D01*
Y29316D01*
X23456Y29322D01*
Y29329D01*
X23456Y29338D01*
Y29349D01*
X23457Y29359D01*
X23458Y29372D01*
X23459Y29384D01*
X23460Y29398D01*
X23463Y29426D01*
X23468Y29458D01*
X23473Y29490D01*
X23480Y29524D01*
X23488Y29558D01*
X23498Y29591D01*
X23510Y29623D01*
X23523Y29654D01*
X23531Y29668D01*
X23539Y29682D01*
X23548Y29695D01*
X23557Y29707D01*
X23559Y29709D01*
X23562Y29712D01*
X23566Y29718D01*
X23574Y29725D01*
X23583Y29733D01*
X23594Y29742D01*
X23607Y29752D01*
X23621Y29763D01*
X23638Y29772D01*
X23656Y29783D01*
X23675Y29792D01*
X23697Y29800D01*
X23720Y29807D01*
X23745Y29813D01*
X23771Y29816D01*
X23799Y29818D01*
X23804D01*
X23810Y29817D01*
D02*
G37*
G36*
X22987Y29813D02*
X22999D01*
X23011Y29813D01*
X23024Y29812D01*
X23039Y29811D01*
X23055Y29809D01*
X23071Y29808D01*
X23103Y29803D01*
X23119Y29800D01*
X23134Y29797D01*
X23148Y29793D01*
X23162Y29788D01*
X23162D01*
X23164Y29786D01*
X23168Y29785D01*
X23173Y29783D01*
X23178Y29780D01*
X23184Y29776D01*
X23192Y29772D01*
X23200Y29767D01*
X23208Y29761D01*
X23217Y29754D01*
X23226Y29747D01*
X23235Y29739D01*
X23243Y29729D01*
X23252Y29719D01*
X23261Y29708D01*
X23268Y29696D01*
X23269Y29696D01*
X23270Y29693D01*
X23272Y29690D01*
X23275Y29685D01*
X23277Y29679D01*
X23281Y29671D01*
X23285Y29663D01*
X23288Y29654D01*
X23292Y29644D01*
X23296Y29632D01*
X23300Y29621D01*
X23302Y29608D01*
X23305Y29595D01*
X23307Y29581D01*
X23308Y29567D01*
X23309Y29552D01*
Y29551D01*
Y29548D01*
X23308Y29542D01*
Y29535D01*
X23306Y29526D01*
X23305Y29516D01*
X23303Y29505D01*
X23300Y29492D01*
X23297Y29479D01*
X23293Y29465D01*
X23287Y29451D01*
X23281Y29436D01*
X23273Y29422D01*
X23264Y29408D01*
X23254Y29393D01*
X23242Y29380D01*
X23241Y29379D01*
X23239Y29377D01*
X23235Y29374D01*
X23229Y29369D01*
X23223Y29363D01*
X23214Y29357D01*
X23204Y29350D01*
X23192Y29343D01*
X23178Y29335D01*
X23164Y29327D01*
X23146Y29320D01*
X23128Y29313D01*
X23108Y29307D01*
X23087Y29300D01*
X23063Y29295D01*
X23038Y29291D01*
X23039D01*
X23040Y29290D01*
X23043Y29289D01*
X23046Y29287D01*
X23051Y29285D01*
X23055Y29282D01*
X23067Y29276D01*
X23079Y29269D01*
X23091Y29261D01*
X23103Y29252D01*
X23114Y29243D01*
X23115Y29243D01*
X23117Y29241D01*
X23120Y29238D01*
X23124Y29234D01*
X23129Y29229D01*
X23134Y29223D01*
X23141Y29216D01*
X23148Y29208D01*
X23156Y29199D01*
X23164Y29189D01*
X23173Y29179D01*
X23182Y29168D01*
X23191Y29155D01*
X23201Y29143D01*
X23220Y29115D01*
X23385Y28854D01*
X23227D01*
X23100Y29054D01*
X23099Y29055D01*
X23097Y29058D01*
X23094Y29062D01*
X23091Y29068D01*
X23086Y29076D01*
X23080Y29084D01*
X23074Y29093D01*
X23068Y29103D01*
X23053Y29124D01*
X23038Y29146D01*
X23023Y29167D01*
X23015Y29177D01*
X23008Y29186D01*
X23008Y29187D01*
X23007Y29188D01*
X23005Y29190D01*
X23002Y29193D01*
X22995Y29202D01*
X22987Y29212D01*
X22976Y29222D01*
X22966Y29233D01*
X22955Y29243D01*
X22944Y29250D01*
X22942Y29251D01*
X22939Y29253D01*
X22933Y29257D01*
X22926Y29260D01*
X22917Y29264D01*
X22908Y29269D01*
X22897Y29273D01*
X22886Y29276D01*
X22886D01*
X22882Y29277D01*
X22877Y29277D01*
X22870Y29279D01*
X22860Y29279D01*
X22847Y29280D01*
X22833Y29281D01*
X22669D01*
Y28854D01*
X22542D01*
Y29814D01*
X22979D01*
X22987Y29813D01*
D02*
G37*
G36*
X4188Y34312D02*
X3804D01*
X3753Y34053D01*
X3754Y34054D01*
X3757Y34056D01*
X3761Y34059D01*
X3768Y34063D01*
X3776Y34067D01*
X3785Y34073D01*
X3796Y34078D01*
X3808Y34084D01*
X3821Y34089D01*
X3835Y34095D01*
X3850Y34100D01*
X3865Y34104D01*
X3882Y34108D01*
X3899Y34111D01*
X3917Y34113D01*
X3934Y34114D01*
X3939D01*
X3946Y34113D01*
X3955Y34112D01*
X3966Y34111D01*
X3978Y34109D01*
X3993Y34106D01*
X4008Y34103D01*
X4024Y34098D01*
X4041Y34092D01*
X4059Y34085D01*
X4077Y34077D01*
X4095Y34067D01*
X4113Y34056D01*
X4130Y34042D01*
X4147Y34026D01*
X4147Y34026D01*
X4150Y34022D01*
X4155Y34017D01*
X4161Y34010D01*
X4167Y34002D01*
X4175Y33992D01*
X4182Y33979D01*
X4190Y33965D01*
X4198Y33950D01*
X4206Y33933D01*
X4213Y33915D01*
X4220Y33895D01*
X4225Y33874D01*
X4230Y33851D01*
X4233Y33827D01*
X4233Y33802D01*
Y33802D01*
Y33801D01*
Y33799D01*
Y33797D01*
X4233Y33790D01*
X4232Y33781D01*
X4231Y33769D01*
X4229Y33756D01*
X4227Y33741D01*
X4224Y33725D01*
X4220Y33708D01*
X4215Y33690D01*
X4208Y33671D01*
X4202Y33653D01*
X4193Y33633D01*
X4182Y33614D01*
X4170Y33596D01*
X4157Y33578D01*
X4156Y33576D01*
X4153Y33573D01*
X4147Y33567D01*
X4141Y33560D01*
X4131Y33551D01*
X4120Y33541D01*
X4107Y33531D01*
X4091Y33520D01*
X4074Y33508D01*
X4055Y33498D01*
X4034Y33488D01*
X4012Y33479D01*
X3987Y33472D01*
X3962Y33466D01*
X3934Y33463D01*
X3905Y33461D01*
X3899D01*
X3892Y33462D01*
X3883Y33463D01*
X3872Y33463D01*
X3859Y33465D01*
X3844Y33467D01*
X3829Y33470D01*
X3813Y33474D01*
X3795Y33479D01*
X3777Y33485D01*
X3759Y33492D01*
X3742Y33500D01*
X3724Y33510D01*
X3707Y33522D01*
X3691Y33534D01*
X3691Y33535D01*
X3688Y33538D01*
X3684Y33542D01*
X3678Y33547D01*
X3672Y33555D01*
X3664Y33564D01*
X3657Y33574D01*
X3648Y33586D01*
X3640Y33599D01*
X3632Y33614D01*
X3624Y33630D01*
X3616Y33647D01*
X3610Y33666D01*
X3605Y33686D01*
X3600Y33707D01*
X3597Y33729D01*
X3720Y33739D01*
Y33739D01*
X3721Y33735D01*
X3722Y33731D01*
X3723Y33725D01*
X3725Y33717D01*
X3727Y33708D01*
X3730Y33698D01*
X3733Y33688D01*
X3742Y33667D01*
X3747Y33655D01*
X3752Y33644D01*
X3759Y33633D01*
X3766Y33622D01*
X3774Y33612D01*
X3783Y33603D01*
X3784Y33603D01*
X3786Y33601D01*
X3788Y33599D01*
X3792Y33596D01*
X3797Y33593D01*
X3804Y33589D01*
X3810Y33585D01*
X3817Y33581D01*
X3826Y33576D01*
X3835Y33573D01*
X3845Y33569D01*
X3856Y33565D01*
X3867Y33562D01*
X3879Y33560D01*
X3892Y33559D01*
X3905Y33558D01*
X3909D01*
X3913Y33559D01*
X3919D01*
X3926Y33560D01*
X3935Y33562D01*
X3945Y33564D01*
X3955Y33567D01*
X3966Y33569D01*
X3978Y33574D01*
X3990Y33579D01*
X4003Y33585D01*
X4014Y33592D01*
X4027Y33601D01*
X4039Y33611D01*
X4050Y33622D01*
X4050Y33623D01*
X4052Y33625D01*
X4055Y33629D01*
X4059Y33634D01*
X4064Y33640D01*
X4068Y33648D01*
X4074Y33657D01*
X4080Y33667D01*
X4084Y33679D01*
X4090Y33691D01*
X4095Y33705D01*
X4100Y33721D01*
X4103Y33737D01*
X4106Y33755D01*
X4108Y33773D01*
X4109Y33792D01*
Y33793D01*
Y33796D01*
X4108Y33802D01*
Y33809D01*
X4107Y33817D01*
X4106Y33827D01*
X4104Y33838D01*
X4102Y33850D01*
X4098Y33863D01*
X4095Y33875D01*
X4090Y33888D01*
X4084Y33902D01*
X4078Y33915D01*
X4070Y33928D01*
X4061Y33940D01*
X4052Y33951D01*
X4051Y33952D01*
X4049Y33954D01*
X4046Y33957D01*
X4041Y33961D01*
X4036Y33965D01*
X4029Y33970D01*
X4021Y33975D01*
X4012Y33981D01*
X4002Y33986D01*
X3991Y33991D01*
X3979Y33997D01*
X3966Y34001D01*
X3951Y34004D01*
X3936Y34007D01*
X3920Y34009D01*
X3903Y34010D01*
X3898D01*
X3894Y34009D01*
X3889D01*
X3883Y34008D01*
X3876Y34008D01*
X3869Y34006D01*
X3853Y34004D01*
X3835Y33999D01*
X3817Y33992D01*
X3800Y33983D01*
X3799D01*
X3798Y33982D01*
X3796Y33981D01*
X3792Y33979D01*
X3784Y33973D01*
X3774Y33965D01*
X3763Y33956D01*
X3751Y33945D01*
X3739Y33931D01*
X3729Y33917D01*
X3618Y33931D01*
X3711Y34424D01*
X4188D01*
Y34312D01*
D02*
G37*
G36*
X3125Y34436D02*
X3136D01*
X3148Y34436D01*
X3161Y34435D01*
X3177Y34433D01*
X3192Y34432D01*
X3208Y34431D01*
X3240Y34426D01*
X3256Y34423D01*
X3271Y34420D01*
X3286Y34415D01*
X3299Y34411D01*
X3299D01*
X3301Y34409D01*
X3305Y34408D01*
X3310Y34406D01*
X3315Y34403D01*
X3322Y34399D01*
X3329Y34395D01*
X3337Y34390D01*
X3345Y34383D01*
X3354Y34377D01*
X3363Y34370D01*
X3372Y34361D01*
X3381Y34352D01*
X3390Y34342D01*
X3398Y34331D01*
X3405Y34319D01*
X3406Y34318D01*
X3408Y34316D01*
X3409Y34313D01*
X3412Y34308D01*
X3415Y34302D01*
X3418Y34294D01*
X3422Y34286D01*
X3426Y34277D01*
X3429Y34266D01*
X3433Y34255D01*
X3437Y34243D01*
X3439Y34231D01*
X3442Y34218D01*
X3444Y34204D01*
X3445Y34189D01*
X3446Y34175D01*
Y34173D01*
Y34171D01*
X3445Y34165D01*
Y34157D01*
X3444Y34149D01*
X3442Y34139D01*
X3440Y34128D01*
X3437Y34115D01*
X3434Y34102D01*
X3430Y34088D01*
X3424Y34074D01*
X3418Y34059D01*
X3410Y34044D01*
X3401Y34031D01*
X3391Y34016D01*
X3379Y34003D01*
X3378Y34002D01*
X3376Y34000D01*
X3372Y33997D01*
X3367Y33992D01*
X3360Y33986D01*
X3351Y33980D01*
X3341Y33973D01*
X3329Y33965D01*
X3315Y33958D01*
X3301Y33950D01*
X3283Y33943D01*
X3265Y33936D01*
X3245Y33929D01*
X3224Y33923D01*
X3200Y33918D01*
X3175Y33914D01*
X3176D01*
X3177Y33913D01*
X3180Y33912D01*
X3184Y33910D01*
X3188Y33908D01*
X3193Y33905D01*
X3204Y33899D01*
X3216Y33892D01*
X3229Y33884D01*
X3240Y33875D01*
X3252Y33866D01*
X3252Y33866D01*
X3254Y33864D01*
X3257Y33861D01*
X3261Y33857D01*
X3266Y33852D01*
X3272Y33846D01*
X3279Y33839D01*
X3286Y33831D01*
X3293Y33822D01*
X3301Y33812D01*
X3311Y33802D01*
X3320Y33791D01*
X3329Y33778D01*
X3338Y33766D01*
X3357Y33738D01*
X3523Y33477D01*
X3364D01*
X3237Y33677D01*
X3236Y33678D01*
X3234Y33680D01*
X3231Y33685D01*
X3228Y33691D01*
X3223Y33698D01*
X3218Y33707D01*
X3211Y33716D01*
X3205Y33725D01*
X3191Y33747D01*
X3175Y33769D01*
X3160Y33790D01*
X3152Y33800D01*
X3145Y33809D01*
X3145Y33809D01*
X3144Y33811D01*
X3142Y33813D01*
X3139Y33816D01*
X3132Y33825D01*
X3124Y33834D01*
X3114Y33845D01*
X3103Y33856D01*
X3092Y33866D01*
X3081Y33873D01*
X3080Y33874D01*
X3076Y33876D01*
X3071Y33879D01*
X3063Y33883D01*
X3055Y33887D01*
X3045Y33892D01*
X3035Y33895D01*
X3023Y33899D01*
X3023D01*
X3019Y33899D01*
X3014Y33900D01*
X3007Y33902D01*
X2997Y33902D01*
X2985Y33903D01*
X2970Y33904D01*
X2806D01*
Y33477D01*
X2679D01*
Y34437D01*
X3116D01*
X3125Y34436D01*
D02*
G37*
G36*
X19079Y34806D02*
X19208D01*
Y34697D01*
X19079D01*
Y34468D01*
X18961D01*
Y34697D01*
X18545D01*
Y34806D01*
X18982Y35427D01*
X19079D01*
Y34806D01*
D02*
G37*
G36*
X18111Y35427D02*
X18122D01*
X18134Y35426D01*
X18147Y35425D01*
X18163Y35424D01*
X18178Y35423D01*
X18194Y35421D01*
X18226Y35416D01*
X18242Y35414D01*
X18257Y35410D01*
X18272Y35406D01*
X18285Y35401D01*
X18285D01*
X18287Y35400D01*
X18291Y35398D01*
X18296Y35396D01*
X18301Y35394D01*
X18308Y35389D01*
X18315Y35385D01*
X18323Y35380D01*
X18331Y35374D01*
X18340Y35368D01*
X18349Y35360D01*
X18358Y35352D01*
X18367Y35342D01*
X18376Y35332D01*
X18384Y35321D01*
X18392Y35310D01*
X18392Y35309D01*
X18394Y35307D01*
X18395Y35303D01*
X18398Y35299D01*
X18401Y35292D01*
X18404Y35285D01*
X18408Y35276D01*
X18412Y35267D01*
X18415Y35257D01*
X18419Y35246D01*
X18423Y35234D01*
X18425Y35222D01*
X18428Y35208D01*
X18430Y35194D01*
X18431Y35180D01*
X18432Y35165D01*
Y35164D01*
Y35161D01*
X18431Y35156D01*
Y35148D01*
X18430Y35140D01*
X18428Y35129D01*
X18426Y35118D01*
X18423Y35106D01*
X18420Y35093D01*
X18416Y35079D01*
X18410Y35064D01*
X18404Y35050D01*
X18396Y35035D01*
X18387Y35021D01*
X18377Y35007D01*
X18365Y34993D01*
X18364Y34993D01*
X18362Y34991D01*
X18358Y34987D01*
X18353Y34982D01*
X18346Y34977D01*
X18337Y34971D01*
X18327Y34964D01*
X18315Y34956D01*
X18301Y34948D01*
X18287Y34941D01*
X18269Y34934D01*
X18251Y34926D01*
X18231Y34920D01*
X18210Y34914D01*
X18186Y34909D01*
X18161Y34905D01*
X18162D01*
X18163Y34903D01*
X18166Y34903D01*
X18170Y34900D01*
X18174Y34898D01*
X18179Y34896D01*
X18190Y34889D01*
X18202Y34882D01*
X18215Y34874D01*
X18226Y34866D01*
X18238Y34857D01*
X18238Y34856D01*
X18240Y34855D01*
X18243Y34851D01*
X18247Y34848D01*
X18252Y34842D01*
X18258Y34837D01*
X18265Y34830D01*
X18272Y34821D01*
X18279Y34812D01*
X18287Y34803D01*
X18297Y34792D01*
X18306Y34781D01*
X18315Y34769D01*
X18324Y34756D01*
X18343Y34729D01*
X18509Y34468D01*
X18350D01*
X18223Y34667D01*
X18222Y34668D01*
X18220Y34671D01*
X18217Y34676D01*
X18214Y34681D01*
X18209Y34689D01*
X18204Y34697D01*
X18197Y34706D01*
X18191Y34716D01*
X18177Y34738D01*
X18161Y34760D01*
X18146Y34781D01*
X18138Y34790D01*
X18131Y34799D01*
X18131Y34800D01*
X18130Y34801D01*
X18128Y34803D01*
X18125Y34807D01*
X18118Y34815D01*
X18110Y34825D01*
X18100Y34835D01*
X18089Y34846D01*
X18078Y34856D01*
X18067Y34864D01*
X18066Y34864D01*
X18062Y34867D01*
X18057Y34870D01*
X18049Y34873D01*
X18041Y34878D01*
X18031Y34882D01*
X18021Y34886D01*
X18009Y34889D01*
X18009D01*
X18005Y34890D01*
X18000Y34891D01*
X17993Y34892D01*
X17983Y34893D01*
X17971Y34894D01*
X17956Y34894D01*
X17792D01*
Y34468D01*
X17665D01*
Y35427D01*
X18102D01*
X18111Y35427D01*
D02*
G37*
G36*
X3911Y39443D02*
X3918D01*
X3926Y39442D01*
X3935Y39441D01*
X3945Y39440D01*
X3956Y39438D01*
X3967Y39436D01*
X3991Y39430D01*
X4005Y39426D01*
X4017Y39421D01*
X4030Y39416D01*
X4042Y39410D01*
X4043Y39409D01*
X4045Y39409D01*
X4048Y39407D01*
X4053Y39404D01*
X4059Y39400D01*
X4065Y39396D01*
X4072Y39391D01*
X4080Y39386D01*
X4096Y39373D01*
X4113Y39357D01*
X4129Y39339D01*
X4136Y39328D01*
X4143Y39318D01*
X4144Y39317D01*
X4145Y39315D01*
X4147Y39312D01*
X4149Y39308D01*
X4152Y39303D01*
X4154Y39296D01*
X4158Y39289D01*
X4161Y39281D01*
X4164Y39271D01*
X4168Y39262D01*
X4173Y39242D01*
X4177Y39219D01*
X4178Y39207D01*
X4179Y39195D01*
Y39194D01*
Y39192D01*
Y39188D01*
X4178Y39184D01*
Y39179D01*
X4177Y39172D01*
X4176Y39165D01*
X4175Y39157D01*
X4170Y39139D01*
X4164Y39120D01*
X4161Y39111D01*
X4156Y39100D01*
X4151Y39091D01*
X4145Y39081D01*
X4144Y39080D01*
X4143Y39079D01*
X4141Y39076D01*
X4138Y39072D01*
X4135Y39068D01*
X4131Y39063D01*
X4126Y39058D01*
X4120Y39052D01*
X4113Y39045D01*
X4106Y39039D01*
X4098Y39032D01*
X4089Y39025D01*
X4080Y39019D01*
X4069Y39012D01*
X4058Y39006D01*
X4046Y39000D01*
X4047D01*
X4050Y39000D01*
X4055Y38998D01*
X4060Y38996D01*
X4068Y38994D01*
X4076Y38991D01*
X4085Y38987D01*
X4095Y38982D01*
X4105Y38977D01*
X4116Y38971D01*
X4127Y38965D01*
X4138Y38957D01*
X4149Y38949D01*
X4159Y38940D01*
X4170Y38930D01*
X4179Y38919D01*
X4179Y38918D01*
X4181Y38916D01*
X4183Y38912D01*
X4186Y38907D01*
X4190Y38901D01*
X4194Y38894D01*
X4198Y38886D01*
X4202Y38876D01*
X4206Y38865D01*
X4211Y38853D01*
X4215Y38841D01*
X4218Y38827D01*
X4222Y38812D01*
X4224Y38797D01*
X4225Y38781D01*
X4226Y38764D01*
Y38763D01*
Y38758D01*
X4225Y38751D01*
X4224Y38743D01*
X4223Y38732D01*
X4221Y38720D01*
X4218Y38706D01*
X4214Y38690D01*
X4209Y38674D01*
X4204Y38657D01*
X4196Y38639D01*
X4187Y38621D01*
X4177Y38603D01*
X4164Y38585D01*
X4150Y38568D01*
X4134Y38551D01*
X4132Y38550D01*
X4129Y38548D01*
X4125Y38543D01*
X4117Y38537D01*
X4108Y38531D01*
X4098Y38523D01*
X4084Y38516D01*
X4070Y38507D01*
X4055Y38499D01*
X4037Y38491D01*
X4018Y38484D01*
X3997Y38478D01*
X3976Y38472D01*
X3952Y38467D01*
X3928Y38464D01*
X3902Y38464D01*
X3896D01*
X3890Y38464D01*
X3881Y38465D01*
X3870Y38466D01*
X3858Y38468D01*
X3844Y38470D01*
X3828Y38473D01*
X3813Y38477D01*
X3795Y38482D01*
X3778Y38488D01*
X3760Y38496D01*
X3743Y38504D01*
X3725Y38514D01*
X3708Y38525D01*
X3692Y38539D01*
X3691Y38539D01*
X3688Y38542D01*
X3684Y38546D01*
X3679Y38552D01*
X3672Y38560D01*
X3665Y38569D01*
X3657Y38579D01*
X3649Y38591D01*
X3641Y38604D01*
X3632Y38620D01*
X3625Y38636D01*
X3617Y38653D01*
X3611Y38672D01*
X3605Y38691D01*
X3600Y38712D01*
X3598Y38734D01*
X3715Y38750D01*
Y38749D01*
X3716Y38746D01*
X3718Y38740D01*
X3720Y38733D01*
X3722Y38725D01*
X3724Y38716D01*
X3728Y38706D01*
X3731Y38695D01*
X3741Y38670D01*
X3753Y38647D01*
X3760Y38635D01*
X3767Y38624D01*
X3775Y38614D01*
X3784Y38605D01*
X3785Y38604D01*
X3786Y38603D01*
X3789Y38601D01*
X3793Y38598D01*
X3797Y38595D01*
X3804Y38591D01*
X3810Y38587D01*
X3817Y38584D01*
X3826Y38579D01*
X3835Y38575D01*
X3844Y38572D01*
X3855Y38568D01*
X3866Y38566D01*
X3878Y38564D01*
X3890Y38562D01*
X3903Y38561D01*
X3906D01*
X3911Y38562D01*
X3917D01*
X3924Y38564D01*
X3932Y38564D01*
X3942Y38566D01*
X3952Y38568D01*
X3962Y38572D01*
X3974Y38575D01*
X3986Y38580D01*
X3998Y38586D01*
X4009Y38593D01*
X4021Y38600D01*
X4032Y38609D01*
X4043Y38619D01*
X4044Y38620D01*
X4046Y38622D01*
X4049Y38625D01*
X4052Y38629D01*
X4057Y38635D01*
X4061Y38642D01*
X4067Y38650D01*
X4073Y38659D01*
X4077Y38668D01*
X4083Y38679D01*
X4088Y38690D01*
X4092Y38704D01*
X4095Y38717D01*
X4098Y38731D01*
X4100Y38746D01*
X4101Y38761D01*
Y38762D01*
Y38765D01*
Y38769D01*
X4100Y38775D01*
X4100Y38781D01*
X4098Y38790D01*
X4097Y38799D01*
X4094Y38808D01*
X4091Y38819D01*
X4088Y38830D01*
X4084Y38841D01*
X4079Y38852D01*
X4073Y38863D01*
X4065Y38874D01*
X4057Y38885D01*
X4048Y38895D01*
X4047Y38896D01*
X4046Y38897D01*
X4042Y38900D01*
X4038Y38903D01*
X4033Y38907D01*
X4027Y38912D01*
X4019Y38916D01*
X4011Y38921D01*
X4002Y38926D01*
X3991Y38931D01*
X3980Y38935D01*
X3969Y38939D01*
X3956Y38943D01*
X3942Y38946D01*
X3928Y38947D01*
X3913Y38948D01*
X3907D01*
X3900Y38947D01*
X3890Y38946D01*
X3878Y38945D01*
X3864Y38942D01*
X3848Y38939D01*
X3830Y38935D01*
X3843Y39039D01*
X3845D01*
X3847Y39038D01*
X3850D01*
X3856Y39037D01*
X3869D01*
X3874Y39038D01*
X3881Y39039D01*
X3889Y39039D01*
X3897Y39041D01*
X3907Y39042D01*
X3917Y39044D01*
X3928Y39047D01*
X3951Y39054D01*
X3962Y39058D01*
X3974Y39063D01*
X3986Y39069D01*
X3997Y39076D01*
X3998Y39077D01*
X4000Y39078D01*
X4003Y39080D01*
X4007Y39084D01*
X4011Y39088D01*
X4016Y39093D01*
X4021Y39099D01*
X4028Y39106D01*
X4033Y39114D01*
X4039Y39123D01*
X4043Y39133D01*
X4048Y39144D01*
X4052Y39156D01*
X4055Y39169D01*
X4057Y39183D01*
X4057Y39197D01*
Y39198D01*
Y39200D01*
Y39204D01*
X4057Y39208D01*
X4056Y39213D01*
X4055Y39220D01*
X4054Y39227D01*
X4052Y39235D01*
X4046Y39251D01*
X4043Y39260D01*
X4039Y39269D01*
X4034Y39278D01*
X4028Y39287D01*
X4021Y39296D01*
X4013Y39304D01*
X4012Y39305D01*
X4011Y39306D01*
X4009Y39308D01*
X4005Y39311D01*
X4000Y39314D01*
X3996Y39318D01*
X3989Y39321D01*
X3982Y39326D01*
X3975Y39330D01*
X3966Y39333D01*
X3957Y39337D01*
X3947Y39340D01*
X3936Y39343D01*
X3925Y39345D01*
X3912Y39346D01*
X3900Y39347D01*
X3893D01*
X3889Y39346D01*
X3883Y39346D01*
X3876Y39345D01*
X3868Y39344D01*
X3860Y39342D01*
X3842Y39337D01*
X3833Y39333D01*
X3823Y39328D01*
X3813Y39324D01*
X3804Y39318D01*
X3795Y39311D01*
X3786Y39303D01*
X3785Y39303D01*
X3783Y39301D01*
X3781Y39299D01*
X3778Y39295D01*
X3774Y39291D01*
X3770Y39285D01*
X3766Y39278D01*
X3761Y39271D01*
X3756Y39262D01*
X3752Y39253D01*
X3746Y39242D01*
X3742Y39231D01*
X3737Y39218D01*
X3733Y39205D01*
X3730Y39190D01*
X3727Y39174D01*
X3609Y39195D01*
Y39196D01*
Y39197D01*
X3611Y39201D01*
X3612Y39206D01*
X3614Y39215D01*
X3617Y39225D01*
X3620Y39236D01*
X3625Y39249D01*
X3629Y39262D01*
X3636Y39277D01*
X3643Y39292D01*
X3651Y39308D01*
X3660Y39323D01*
X3670Y39338D01*
X3681Y39353D01*
X3693Y39367D01*
X3707Y39379D01*
X3708Y39380D01*
X3711Y39382D01*
X3715Y39385D01*
X3721Y39389D01*
X3729Y39394D01*
X3738Y39400D01*
X3748Y39405D01*
X3760Y39412D01*
X3773Y39418D01*
X3788Y39423D01*
X3803Y39429D01*
X3819Y39434D01*
X3838Y39438D01*
X3857Y39441D01*
X3877Y39443D01*
X3898Y39444D01*
X3905D01*
X3911Y39443D01*
D02*
G37*
G36*
X3125Y39440D02*
X3136D01*
X3148Y39439D01*
X3161Y39439D01*
X3177Y39437D01*
X3192Y39436D01*
X3208Y39434D01*
X3240Y39430D01*
X3256Y39427D01*
X3271Y39423D01*
X3286Y39419D01*
X3299Y39414D01*
X3299D01*
X3301Y39413D01*
X3305Y39412D01*
X3310Y39409D01*
X3315Y39407D01*
X3322Y39403D01*
X3329Y39398D01*
X3337Y39394D01*
X3345Y39387D01*
X3354Y39381D01*
X3363Y39373D01*
X3372Y39365D01*
X3381Y39355D01*
X3390Y39346D01*
X3398Y39335D01*
X3405Y39323D01*
X3406Y39322D01*
X3408Y39320D01*
X3409Y39317D01*
X3412Y39312D01*
X3415Y39305D01*
X3418Y39298D01*
X3422Y39290D01*
X3426Y39281D01*
X3429Y39270D01*
X3433Y39259D01*
X3437Y39247D01*
X3439Y39235D01*
X3442Y39222D01*
X3444Y39208D01*
X3445Y39193D01*
X3446Y39179D01*
Y39177D01*
Y39174D01*
X3445Y39169D01*
Y39161D01*
X3444Y39153D01*
X3442Y39143D01*
X3440Y39131D01*
X3437Y39119D01*
X3434Y39106D01*
X3430Y39092D01*
X3424Y39077D01*
X3418Y39063D01*
X3410Y39048D01*
X3401Y39034D01*
X3391Y39020D01*
X3379Y39007D01*
X3378Y39006D01*
X3376Y39004D01*
X3372Y39000D01*
X3367Y38996D01*
X3360Y38990D01*
X3351Y38984D01*
X3341Y38977D01*
X3329Y38969D01*
X3315Y38962D01*
X3301Y38954D01*
X3283Y38947D01*
X3265Y38939D01*
X3245Y38933D01*
X3224Y38927D01*
X3200Y38922D01*
X3175Y38918D01*
X3176D01*
X3177Y38916D01*
X3180Y38916D01*
X3184Y38914D01*
X3188Y38912D01*
X3193Y38909D01*
X3204Y38903D01*
X3216Y38896D01*
X3229Y38887D01*
X3240Y38879D01*
X3252Y38870D01*
X3252Y38869D01*
X3254Y38868D01*
X3257Y38864D01*
X3261Y38861D01*
X3266Y38855D01*
X3272Y38850D01*
X3279Y38843D01*
X3286Y38835D01*
X3293Y38826D01*
X3301Y38816D01*
X3311Y38806D01*
X3320Y38794D01*
X3329Y38782D01*
X3338Y38769D01*
X3357Y38742D01*
X3523Y38481D01*
X3364D01*
X3237Y38681D01*
X3236Y38681D01*
X3234Y38684D01*
X3231Y38689D01*
X3228Y38695D01*
X3223Y38702D01*
X3218Y38711D01*
X3211Y38720D01*
X3205Y38729D01*
X3191Y38751D01*
X3175Y38773D01*
X3160Y38794D01*
X3152Y38803D01*
X3145Y38812D01*
X3145Y38813D01*
X3144Y38815D01*
X3142Y38817D01*
X3139Y38820D01*
X3132Y38828D01*
X3124Y38838D01*
X3114Y38849D01*
X3103Y38860D01*
X3092Y38869D01*
X3081Y38877D01*
X3080Y38878D01*
X3076Y38880D01*
X3071Y38883D01*
X3063Y38887D01*
X3055Y38891D01*
X3045Y38896D01*
X3035Y38899D01*
X3023Y38903D01*
X3023D01*
X3019Y38903D01*
X3014Y38904D01*
X3007Y38905D01*
X2997Y38906D01*
X2985Y38907D01*
X2970Y38907D01*
X2806D01*
Y38481D01*
X2679D01*
Y39441D01*
X3116D01*
X3125Y39440D01*
D02*
G37*
G36*
X40301Y27302D02*
X40311Y27302D01*
X40323Y27301D01*
X40336Y27299D01*
X40351Y27297D01*
X40367Y27293D01*
X40384Y27289D01*
X40402Y27284D01*
X40420Y27278D01*
X40438Y27270D01*
X40456Y27261D01*
X40474Y27252D01*
X40490Y27240D01*
X40506Y27226D01*
X40507Y27225D01*
X40510Y27223D01*
X40514Y27218D01*
X40519Y27212D01*
X40525Y27205D01*
X40532Y27196D01*
X40540Y27186D01*
X40547Y27174D01*
X40554Y27161D01*
X40562Y27146D01*
X40569Y27130D01*
X40575Y27114D01*
X40580Y27096D01*
X40584Y27077D01*
X40587Y27057D01*
X40588Y27036D01*
Y27035D01*
Y27033D01*
Y27030D01*
Y27026D01*
X40587Y27021D01*
X40586Y27015D01*
X40585Y27008D01*
X40585Y27001D01*
X40582Y26983D01*
X40578Y26964D01*
X40572Y26944D01*
X40564Y26923D01*
Y26922D01*
X40563Y26920D01*
X40561Y26917D01*
X40559Y26913D01*
X40557Y26908D01*
X40554Y26902D01*
X40550Y26895D01*
X40545Y26888D01*
X40540Y26879D01*
X40535Y26870D01*
X40521Y26850D01*
X40513Y26840D01*
X40505Y26829D01*
X40495Y26818D01*
X40486Y26806D01*
X40485Y26805D01*
X40483Y26803D01*
X40480Y26800D01*
X40475Y26795D01*
X40469Y26788D01*
X40461Y26781D01*
X40453Y26772D01*
X40443Y26761D01*
X40431Y26750D01*
X40417Y26738D01*
X40402Y26724D01*
X40386Y26709D01*
X40368Y26693D01*
X40348Y26675D01*
X40327Y26657D01*
X40304Y26637D01*
X40303Y26637D01*
X40299Y26633D01*
X40294Y26629D01*
X40287Y26623D01*
X40278Y26616D01*
X40269Y26607D01*
X40259Y26598D01*
X40248Y26589D01*
X40224Y26569D01*
X40213Y26558D01*
X40202Y26549D01*
X40192Y26539D01*
X40183Y26530D01*
X40174Y26523D01*
X40168Y26516D01*
X40167Y26515D01*
X40163Y26510D01*
X40158Y26504D01*
X40151Y26497D01*
X40143Y26487D01*
X40135Y26476D01*
X40126Y26465D01*
X40119Y26453D01*
X40589D01*
Y26340D01*
X39955D01*
Y26340D01*
Y26342D01*
Y26344D01*
Y26347D01*
Y26351D01*
X39956Y26355D01*
X39957Y26366D01*
X39958Y26378D01*
X39960Y26392D01*
X39963Y26406D01*
X39968Y26421D01*
Y26422D01*
X39970Y26424D01*
X39971Y26427D01*
X39973Y26432D01*
X39975Y26438D01*
X39979Y26445D01*
X39983Y26453D01*
X39987Y26461D01*
X39992Y26471D01*
X39998Y26481D01*
X40011Y26502D01*
X40027Y26525D01*
X40046Y26549D01*
X40047Y26549D01*
X40049Y26551D01*
X40052Y26555D01*
X40056Y26560D01*
X40061Y26566D01*
X40068Y26573D01*
X40076Y26581D01*
X40085Y26590D01*
X40096Y26601D01*
X40107Y26612D01*
X40119Y26623D01*
X40133Y26637D01*
X40149Y26650D01*
X40165Y26664D01*
X40182Y26678D01*
X40200Y26693D01*
X40201Y26694D01*
X40202Y26695D01*
X40204Y26697D01*
X40207Y26699D01*
X40210Y26702D01*
X40214Y26706D01*
X40225Y26715D01*
X40238Y26725D01*
X40252Y26739D01*
X40268Y26752D01*
X40285Y26768D01*
X40303Y26784D01*
X40320Y26800D01*
X40338Y26817D01*
X40355Y26834D01*
X40371Y26851D01*
X40386Y26867D01*
X40400Y26883D01*
X40411Y26897D01*
X40411Y26898D01*
X40413Y26901D01*
X40416Y26905D01*
X40420Y26910D01*
X40424Y26917D01*
X40428Y26924D01*
X40434Y26933D01*
X40438Y26943D01*
X40443Y26953D01*
X40449Y26965D01*
X40458Y26989D01*
X40461Y27001D01*
X40464Y27014D01*
X40465Y27026D01*
X40466Y27039D01*
Y27039D01*
Y27042D01*
Y27046D01*
X40465Y27051D01*
X40465Y27057D01*
X40463Y27064D01*
X40462Y27071D01*
X40460Y27080D01*
X40457Y27089D01*
X40454Y27098D01*
X40450Y27108D01*
X40445Y27118D01*
X40439Y27128D01*
X40432Y27138D01*
X40425Y27148D01*
X40416Y27157D01*
X40415Y27157D01*
X40413Y27159D01*
X40411Y27161D01*
X40407Y27164D01*
X40402Y27168D01*
X40395Y27172D01*
X40389Y27177D01*
X40381Y27181D01*
X40372Y27186D01*
X40362Y27190D01*
X40351Y27194D01*
X40340Y27198D01*
X40327Y27201D01*
X40314Y27203D01*
X40300Y27204D01*
X40286Y27205D01*
X40278D01*
X40272Y27204D01*
X40264Y27204D01*
X40256Y27202D01*
X40247Y27201D01*
X40237Y27199D01*
X40226Y27196D01*
X40215Y27193D01*
X40204Y27189D01*
X40192Y27184D01*
X40181Y27177D01*
X40170Y27171D01*
X40159Y27163D01*
X40149Y27154D01*
X40149Y27153D01*
X40147Y27152D01*
X40144Y27148D01*
X40142Y27145D01*
X40138Y27139D01*
X40133Y27133D01*
X40128Y27125D01*
X40124Y27117D01*
X40119Y27108D01*
X40115Y27097D01*
X40110Y27086D01*
X40106Y27073D01*
X40104Y27060D01*
X40101Y27045D01*
X40099Y27030D01*
X40099Y27013D01*
X39977Y27026D01*
Y27026D01*
Y27027D01*
X39978Y27029D01*
Y27032D01*
X39979Y27039D01*
X39981Y27048D01*
X39983Y27059D01*
X39986Y27072D01*
X39989Y27087D01*
X39993Y27102D01*
X39999Y27119D01*
X40005Y27135D01*
X40013Y27152D01*
X40022Y27170D01*
X40031Y27186D01*
X40043Y27202D01*
X40056Y27218D01*
X40070Y27232D01*
X40071Y27232D01*
X40074Y27234D01*
X40079Y27238D01*
X40085Y27243D01*
X40093Y27248D01*
X40103Y27254D01*
X40115Y27261D01*
X40128Y27268D01*
X40143Y27274D01*
X40159Y27280D01*
X40177Y27286D01*
X40196Y27292D01*
X40217Y27297D01*
X40239Y27300D01*
X40263Y27302D01*
X40288Y27303D01*
X40294D01*
X40301Y27302D01*
D02*
G37*
G36*
X39497Y27299D02*
X39509D01*
X39521Y27298D01*
X39534Y27297D01*
X39549Y27296D01*
X39565Y27295D01*
X39581Y27293D01*
X39613Y27288D01*
X39629Y27286D01*
X39644Y27282D01*
X39658Y27278D01*
X39672Y27273D01*
X39672D01*
X39674Y27272D01*
X39678Y27270D01*
X39683Y27268D01*
X39688Y27266D01*
X39694Y27261D01*
X39702Y27257D01*
X39710Y27252D01*
X39718Y27246D01*
X39727Y27240D01*
X39736Y27232D01*
X39745Y27224D01*
X39753Y27214D01*
X39762Y27204D01*
X39771Y27193D01*
X39778Y27182D01*
X39779Y27181D01*
X39780Y27179D01*
X39782Y27175D01*
X39785Y27171D01*
X39787Y27164D01*
X39791Y27157D01*
X39795Y27148D01*
X39798Y27139D01*
X39802Y27129D01*
X39806Y27118D01*
X39810Y27106D01*
X39812Y27094D01*
X39815Y27080D01*
X39817Y27066D01*
X39818Y27052D01*
X39819Y27037D01*
Y27036D01*
Y27033D01*
X39818Y27028D01*
Y27020D01*
X39816Y27012D01*
X39815Y27001D01*
X39813Y26990D01*
X39810Y26978D01*
X39807Y26965D01*
X39803Y26951D01*
X39797Y26936D01*
X39791Y26922D01*
X39783Y26907D01*
X39774Y26893D01*
X39764Y26879D01*
X39752Y26865D01*
X39751Y26865D01*
X39749Y26863D01*
X39745Y26859D01*
X39739Y26854D01*
X39733Y26849D01*
X39724Y26843D01*
X39714Y26836D01*
X39702Y26828D01*
X39688Y26820D01*
X39674Y26813D01*
X39656Y26806D01*
X39638Y26798D01*
X39618Y26792D01*
X39597Y26786D01*
X39573Y26781D01*
X39548Y26777D01*
X39549D01*
X39550Y26775D01*
X39553Y26775D01*
X39556Y26772D01*
X39561Y26770D01*
X39565Y26768D01*
X39577Y26761D01*
X39589Y26754D01*
X39601Y26746D01*
X39613Y26738D01*
X39624Y26729D01*
X39625Y26728D01*
X39627Y26727D01*
X39630Y26723D01*
X39634Y26720D01*
X39639Y26714D01*
X39644Y26709D01*
X39651Y26702D01*
X39658Y26693D01*
X39666Y26684D01*
X39674Y26675D01*
X39683Y26664D01*
X39692Y26653D01*
X39701Y26641D01*
X39711Y26628D01*
X39730Y26601D01*
X39895Y26340D01*
X39737D01*
X39610Y26539D01*
X39609Y26540D01*
X39607Y26543D01*
X39604Y26548D01*
X39601Y26553D01*
X39596Y26561D01*
X39590Y26569D01*
X39584Y26578D01*
X39578Y26588D01*
X39563Y26610D01*
X39548Y26632D01*
X39533Y26653D01*
X39525Y26662D01*
X39518Y26671D01*
X39518Y26672D01*
X39517Y26673D01*
X39515Y26675D01*
X39512Y26679D01*
X39505Y26687D01*
X39497Y26697D01*
X39486Y26707D01*
X39476Y26718D01*
X39465Y26728D01*
X39454Y26736D01*
X39452Y26736D01*
X39449Y26739D01*
X39443Y26742D01*
X39436Y26745D01*
X39427Y26750D01*
X39418Y26754D01*
X39407Y26758D01*
X39396Y26761D01*
X39396D01*
X39392Y26762D01*
X39387Y26763D01*
X39380Y26764D01*
X39370Y26765D01*
X39357Y26766D01*
X39343Y26766D01*
X39179D01*
Y26340D01*
X39052D01*
Y27299D01*
X39489D01*
X39497Y27299D01*
D02*
G37*
G36*
X4041Y43459D02*
X3923D01*
Y44210D01*
X3922Y44209D01*
X3921Y44208D01*
X3919Y44206D01*
X3915Y44203D01*
X3911Y44199D01*
X3905Y44194D01*
X3899Y44190D01*
X3893Y44184D01*
X3885Y44178D01*
X3876Y44172D01*
X3867Y44165D01*
X3858Y44158D01*
X3847Y44151D01*
X3835Y44143D01*
X3810Y44128D01*
X3810Y44127D01*
X3808Y44126D01*
X3804Y44124D01*
X3799Y44122D01*
X3793Y44118D01*
X3786Y44114D01*
X3778Y44110D01*
X3770Y44105D01*
X3750Y44095D01*
X3729Y44086D01*
X3708Y44076D01*
X3687Y44068D01*
Y44181D01*
X3688Y44182D01*
X3691Y44183D01*
X3697Y44186D01*
X3704Y44190D01*
X3712Y44194D01*
X3722Y44199D01*
X3733Y44206D01*
X3745Y44212D01*
X3758Y44221D01*
X3772Y44229D01*
X3801Y44249D01*
X3831Y44270D01*
X3860Y44294D01*
X3860Y44294D01*
X3863Y44296D01*
X3867Y44300D01*
X3871Y44305D01*
X3878Y44311D01*
X3885Y44318D01*
X3892Y44326D01*
X3901Y44334D01*
X3909Y44344D01*
X3918Y44355D01*
X3935Y44376D01*
X3951Y44399D01*
X3958Y44411D01*
X3964Y44423D01*
X4041D01*
Y43459D01*
D02*
G37*
G36*
X3125Y44418D02*
X3136D01*
X3148Y44418D01*
X3161Y44417D01*
X3177Y44416D01*
X3192Y44414D01*
X3208Y44413D01*
X3240Y44408D01*
X3256Y44405D01*
X3271Y44402D01*
X3286Y44398D01*
X3299Y44393D01*
X3299D01*
X3301Y44391D01*
X3305Y44390D01*
X3310Y44388D01*
X3315Y44385D01*
X3322Y44381D01*
X3329Y44377D01*
X3337Y44372D01*
X3345Y44366D01*
X3354Y44359D01*
X3363Y44352D01*
X3372Y44344D01*
X3381Y44334D01*
X3390Y44324D01*
X3398Y44313D01*
X3405Y44301D01*
X3406Y44301D01*
X3408Y44298D01*
X3409Y44295D01*
X3412Y44290D01*
X3415Y44284D01*
X3418Y44276D01*
X3422Y44268D01*
X3426Y44259D01*
X3429Y44249D01*
X3433Y44237D01*
X3437Y44226D01*
X3439Y44213D01*
X3442Y44200D01*
X3444Y44186D01*
X3445Y44172D01*
X3446Y44157D01*
Y44156D01*
Y44153D01*
X3445Y44147D01*
Y44140D01*
X3444Y44131D01*
X3442Y44121D01*
X3440Y44110D01*
X3437Y44097D01*
X3434Y44084D01*
X3430Y44070D01*
X3424Y44056D01*
X3418Y44041D01*
X3410Y44027D01*
X3401Y44013D01*
X3391Y43998D01*
X3379Y43985D01*
X3378Y43984D01*
X3376Y43982D01*
X3372Y43979D01*
X3367Y43974D01*
X3360Y43968D01*
X3351Y43962D01*
X3341Y43955D01*
X3329Y43948D01*
X3315Y43940D01*
X3301Y43932D01*
X3283Y43925D01*
X3265Y43918D01*
X3245Y43912D01*
X3224Y43905D01*
X3200Y43900D01*
X3175Y43896D01*
X3176D01*
X3177Y43895D01*
X3180Y43894D01*
X3184Y43892D01*
X3188Y43890D01*
X3193Y43887D01*
X3204Y43881D01*
X3216Y43874D01*
X3229Y43866D01*
X3240Y43857D01*
X3252Y43848D01*
X3252Y43848D01*
X3254Y43846D01*
X3257Y43843D01*
X3261Y43839D01*
X3266Y43834D01*
X3272Y43828D01*
X3279Y43821D01*
X3286Y43813D01*
X3293Y43804D01*
X3301Y43794D01*
X3311Y43784D01*
X3320Y43773D01*
X3329Y43760D01*
X3338Y43748D01*
X3357Y43720D01*
X3523Y43459D01*
X3364D01*
X3237Y43659D01*
X3236Y43660D01*
X3234Y43663D01*
X3231Y43667D01*
X3228Y43673D01*
X3223Y43681D01*
X3218Y43689D01*
X3211Y43698D01*
X3205Y43708D01*
X3191Y43729D01*
X3175Y43751D01*
X3160Y43772D01*
X3152Y43782D01*
X3145Y43791D01*
X3145Y43792D01*
X3144Y43793D01*
X3142Y43795D01*
X3139Y43798D01*
X3132Y43807D01*
X3124Y43817D01*
X3114Y43827D01*
X3103Y43838D01*
X3092Y43848D01*
X3081Y43855D01*
X3080Y43856D01*
X3076Y43858D01*
X3071Y43862D01*
X3063Y43865D01*
X3055Y43869D01*
X3045Y43874D01*
X3035Y43878D01*
X3023Y43881D01*
X3023D01*
X3019Y43882D01*
X3014Y43882D01*
X3007Y43884D01*
X2997Y43884D01*
X2985Y43885D01*
X2970Y43886D01*
X2806D01*
Y43459D01*
X2679D01*
Y44419D01*
X3116D01*
X3125Y44418D01*
D02*
G37*
G36*
X18514Y42291D02*
X18397D01*
Y43041D01*
X18396Y43041D01*
X18394Y43039D01*
X18392Y43037D01*
X18389Y43034D01*
X18385Y43031D01*
X18379Y43026D01*
X18373Y43021D01*
X18367Y43016D01*
X18358Y43010D01*
X18350Y43003D01*
X18341Y42997D01*
X18331Y42989D01*
X18320Y42982D01*
X18309Y42975D01*
X18284Y42959D01*
X18284Y42959D01*
X18281Y42957D01*
X18277Y42955D01*
X18272Y42953D01*
X18267Y42950D01*
X18260Y42946D01*
X18252Y42941D01*
X18243Y42937D01*
X18224Y42927D01*
X18203Y42917D01*
X18182Y42907D01*
X18161Y42899D01*
Y43013D01*
X18162Y43014D01*
X18165Y43015D01*
X18170Y43018D01*
X18177Y43021D01*
X18186Y43025D01*
X18196Y43031D01*
X18207Y43037D01*
X18219Y43044D01*
X18232Y43052D01*
X18246Y43061D01*
X18275Y43080D01*
X18305Y43102D01*
X18333Y43125D01*
X18334Y43126D01*
X18337Y43128D01*
X18340Y43131D01*
X18345Y43136D01*
X18351Y43143D01*
X18358Y43149D01*
X18366Y43158D01*
X18374Y43166D01*
X18383Y43176D01*
X18392Y43186D01*
X18409Y43208D01*
X18425Y43231D01*
X18432Y43242D01*
X18438Y43254D01*
X18514D01*
Y42291D01*
D02*
G37*
G36*
X17502Y43267D02*
X17511D01*
X17523Y43265D01*
X17537Y43264D01*
X17552Y43262D01*
X17569Y43260D01*
X17587Y43256D01*
X17606Y43252D01*
X17626Y43247D01*
X17646Y43241D01*
X17667Y43233D01*
X17688Y43225D01*
X17709Y43215D01*
X17729Y43204D01*
X17730Y43204D01*
X17734Y43201D01*
X17739Y43198D01*
X17746Y43192D01*
X17755Y43186D01*
X17766Y43179D01*
X17777Y43169D01*
X17789Y43158D01*
X17802Y43147D01*
X17815Y43134D01*
X17829Y43119D01*
X17842Y43103D01*
X17856Y43086D01*
X17869Y43068D01*
X17881Y43048D01*
X17892Y43027D01*
X17892Y43026D01*
X17895Y43023D01*
X17897Y43016D01*
X17901Y43007D01*
X17905Y42997D01*
X17910Y42984D01*
X17915Y42969D01*
X17920Y42953D01*
X17925Y42934D01*
X17930Y42915D01*
X17935Y42894D01*
X17939Y42871D01*
X17943Y42848D01*
X17946Y42824D01*
X17947Y42798D01*
X17948Y42772D01*
Y42770D01*
Y42766D01*
Y42760D01*
X17947Y42751D01*
X17947Y42741D01*
X17946Y42729D01*
X17945Y42715D01*
X17944Y42700D01*
X17942Y42684D01*
X17939Y42668D01*
X17936Y42650D01*
X17933Y42631D01*
X17928Y42613D01*
X17924Y42595D01*
X17918Y42576D01*
X17912Y42558D01*
X17911Y42557D01*
X17910Y42554D01*
X17908Y42549D01*
X17905Y42542D01*
X17901Y42534D01*
X17897Y42525D01*
X17891Y42514D01*
X17885Y42502D01*
X17877Y42490D01*
X17870Y42477D01*
X17861Y42463D01*
X17851Y42449D01*
X17840Y42435D01*
X17829Y42421D01*
X17816Y42407D01*
X17803Y42394D01*
X17804Y42394D01*
X17807Y42392D01*
X17811Y42389D01*
X17818Y42385D01*
X17826Y42379D01*
X17835Y42374D01*
X17845Y42367D01*
X17856Y42360D01*
X17869Y42353D01*
X17881Y42346D01*
X17909Y42331D01*
X17937Y42317D01*
X17952Y42310D01*
X17966Y42305D01*
X17928Y42217D01*
X17927Y42217D01*
X17924Y42219D01*
X17918Y42221D01*
X17910Y42224D01*
X17901Y42228D01*
X17890Y42233D01*
X17878Y42239D01*
X17864Y42245D01*
X17849Y42254D01*
X17833Y42262D01*
X17815Y42272D01*
X17798Y42282D01*
X17779Y42294D01*
X17761Y42306D01*
X17742Y42319D01*
X17723Y42334D01*
X17721Y42333D01*
X17718Y42331D01*
X17712Y42328D01*
X17704Y42325D01*
X17694Y42320D01*
X17682Y42315D01*
X17668Y42310D01*
X17653Y42305D01*
X17637Y42299D01*
X17618Y42294D01*
X17598Y42289D01*
X17578Y42284D01*
X17556Y42281D01*
X17534Y42278D01*
X17511Y42276D01*
X17487Y42275D01*
X17481D01*
X17474Y42276D01*
X17465D01*
X17453Y42277D01*
X17440Y42279D01*
X17425Y42281D01*
X17408Y42283D01*
X17390Y42286D01*
X17372Y42290D01*
X17352Y42295D01*
X17332Y42301D01*
X17311Y42308D01*
X17291Y42317D01*
X17270Y42326D01*
X17250Y42337D01*
X17249Y42338D01*
X17245Y42340D01*
X17240Y42344D01*
X17233Y42349D01*
X17224Y42355D01*
X17214Y42363D01*
X17202Y42373D01*
X17190Y42383D01*
X17177Y42395D01*
X17164Y42408D01*
X17150Y42423D01*
X17137Y42439D01*
X17123Y42456D01*
X17110Y42474D01*
X17098Y42493D01*
X17087Y42514D01*
X17086Y42516D01*
X17085Y42519D01*
X17081Y42526D01*
X17078Y42534D01*
X17073Y42545D01*
X17069Y42558D01*
X17064Y42573D01*
X17058Y42589D01*
X17053Y42607D01*
X17048Y42627D01*
X17043Y42648D01*
X17039Y42670D01*
X17035Y42694D01*
X17033Y42719D01*
X17030Y42744D01*
X17030Y42771D01*
Y42772D01*
Y42772D01*
Y42774D01*
Y42777D01*
Y42781D01*
X17030Y42785D01*
Y42795D01*
X17032Y42807D01*
X17033Y42821D01*
X17035Y42838D01*
X17037Y42856D01*
X17040Y42876D01*
X17044Y42896D01*
X17049Y42917D01*
X17054Y42939D01*
X17061Y42962D01*
X17069Y42984D01*
X17077Y43007D01*
X17087Y43029D01*
X17088Y43030D01*
X17090Y43034D01*
X17094Y43040D01*
X17098Y43048D01*
X17104Y43058D01*
X17111Y43069D01*
X17120Y43082D01*
X17130Y43095D01*
X17141Y43109D01*
X17153Y43123D01*
X17166Y43138D01*
X17181Y43153D01*
X17196Y43167D01*
X17214Y43181D01*
X17232Y43195D01*
X17251Y43206D01*
X17252Y43207D01*
X17256Y43209D01*
X17261Y43212D01*
X17270Y43216D01*
X17280Y43220D01*
X17292Y43226D01*
X17305Y43231D01*
X17321Y43237D01*
X17338Y43242D01*
X17356Y43248D01*
X17376Y43253D01*
X17397Y43258D01*
X17418Y43262D01*
X17441Y43265D01*
X17465Y43267D01*
X17489Y43267D01*
X17495D01*
X17502Y43267D01*
D02*
G37*
G36*
X2414Y13611D02*
X2030D01*
X1979Y13352D01*
X1980Y13353D01*
X1983Y13355D01*
X1987Y13358D01*
X1994Y13362D01*
X2002Y13366D01*
X2011Y13372D01*
X2022Y13377D01*
X2034Y13383D01*
X2047Y13388D01*
X2061Y13394D01*
X2076Y13399D01*
X2091Y13403D01*
X2108Y13407D01*
X2125Y13410D01*
X2143Y13412D01*
X2160Y13413D01*
X2166D01*
X2172Y13412D01*
X2181Y13411D01*
X2192Y13410D01*
X2204Y13408D01*
X2219Y13405D01*
X2234Y13402D01*
X2250Y13398D01*
X2267Y13391D01*
X2285Y13384D01*
X2303Y13376D01*
X2321Y13366D01*
X2339Y13355D01*
X2356Y13341D01*
X2373Y13325D01*
X2374Y13325D01*
X2376Y13321D01*
X2381Y13316D01*
X2387Y13309D01*
X2393Y13301D01*
X2401Y13291D01*
X2408Y13278D01*
X2417Y13264D01*
X2424Y13249D01*
X2432Y13232D01*
X2439Y13214D01*
X2446Y13194D01*
X2451Y13173D01*
X2456Y13150D01*
X2459Y13126D01*
X2460Y13101D01*
Y13101D01*
Y13100D01*
Y13098D01*
Y13096D01*
X2459Y13089D01*
X2458Y13080D01*
X2457Y13068D01*
X2455Y13055D01*
X2453Y13040D01*
X2450Y13024D01*
X2446Y13007D01*
X2441Y12989D01*
X2435Y12970D01*
X2428Y12952D01*
X2419Y12932D01*
X2408Y12913D01*
X2396Y12895D01*
X2383Y12877D01*
X2382Y12875D01*
X2379Y12872D01*
X2374Y12866D01*
X2367Y12859D01*
X2357Y12850D01*
X2346Y12840D01*
X2333Y12830D01*
X2317Y12818D01*
X2300Y12807D01*
X2281Y12797D01*
X2261Y12787D01*
X2238Y12778D01*
X2213Y12771D01*
X2188Y12765D01*
X2160Y12762D01*
X2131Y12760D01*
X2125D01*
X2118Y12761D01*
X2109Y12762D01*
X2098Y12762D01*
X2085Y12764D01*
X2071Y12766D01*
X2055Y12769D01*
X2039Y12773D01*
X2021Y12778D01*
X2003Y12784D01*
X1985Y12791D01*
X1968Y12799D01*
X1950Y12809D01*
X1933Y12821D01*
X1917Y12833D01*
X1917Y12834D01*
X1914Y12837D01*
X1910Y12841D01*
X1904Y12846D01*
X1898Y12854D01*
X1890Y12863D01*
X1883Y12873D01*
X1874Y12885D01*
X1866Y12898D01*
X1858Y12913D01*
X1850Y12929D01*
X1842Y12946D01*
X1836Y12965D01*
X1831Y12985D01*
X1826Y13006D01*
X1823Y13028D01*
X1946Y13038D01*
Y13038D01*
X1947Y13034D01*
X1948Y13030D01*
X1949Y13024D01*
X1951Y13016D01*
X1953Y13007D01*
X1956Y12997D01*
X1960Y12987D01*
X1968Y12965D01*
X1973Y12954D01*
X1978Y12943D01*
X1985Y12932D01*
X1992Y12921D01*
X2000Y12911D01*
X2010Y12902D01*
X2010Y12902D01*
X2012Y12900D01*
X2014Y12898D01*
X2019Y12895D01*
X2023Y12892D01*
X2030Y12888D01*
X2036Y12884D01*
X2043Y12880D01*
X2052Y12875D01*
X2062Y12872D01*
X2071Y12868D01*
X2082Y12864D01*
X2093Y12861D01*
X2105Y12859D01*
X2118Y12858D01*
X2131Y12857D01*
X2135D01*
X2139Y12858D01*
X2145D01*
X2152Y12859D01*
X2161Y12861D01*
X2171Y12863D01*
X2181Y12866D01*
X2193Y12868D01*
X2204Y12873D01*
X2216Y12878D01*
X2229Y12884D01*
X2240Y12891D01*
X2253Y12900D01*
X2265Y12910D01*
X2276Y12921D01*
X2276Y12922D01*
X2279Y12924D01*
X2281Y12928D01*
X2285Y12933D01*
X2290Y12939D01*
X2295Y12947D01*
X2300Y12956D01*
X2306Y12966D01*
X2310Y12978D01*
X2316Y12990D01*
X2321Y13004D01*
X2326Y13020D01*
X2329Y13036D01*
X2332Y13054D01*
X2334Y13072D01*
X2335Y13091D01*
Y13092D01*
Y13095D01*
X2334Y13101D01*
Y13108D01*
X2333Y13116D01*
X2332Y13126D01*
X2330Y13137D01*
X2328Y13149D01*
X2324Y13162D01*
X2321Y13174D01*
X2316Y13187D01*
X2310Y13201D01*
X2304Y13214D01*
X2297Y13227D01*
X2288Y13239D01*
X2278Y13250D01*
X2277Y13251D01*
X2275Y13253D01*
X2272Y13256D01*
X2267Y13260D01*
X2262Y13264D01*
X2255Y13269D01*
X2247Y13274D01*
X2238Y13280D01*
X2228Y13285D01*
X2217Y13290D01*
X2205Y13296D01*
X2192Y13300D01*
X2177Y13303D01*
X2162Y13306D01*
X2146Y13308D01*
X2129Y13309D01*
X2124D01*
X2120Y13308D01*
X2115D01*
X2109Y13307D01*
X2102Y13307D01*
X2095Y13305D01*
X2079Y13303D01*
X2062Y13298D01*
X2043Y13291D01*
X2026Y13282D01*
X2025D01*
X2024Y13281D01*
X2022Y13280D01*
X2019Y13278D01*
X2010Y13272D01*
X2000Y13264D01*
X1989Y13255D01*
X1977Y13244D01*
X1965Y13230D01*
X1955Y13216D01*
X1844Y13230D01*
X1937Y13723D01*
X2414D01*
Y13611D01*
D02*
G37*
G36*
X1372Y13735D02*
X1381D01*
X1392Y13735D01*
X1416Y13734D01*
X1440Y13732D01*
X1464Y13730D01*
X1475Y13728D01*
X1485Y13726D01*
X1485D01*
X1488Y13725D01*
X1492Y13725D01*
X1496Y13724D01*
X1503Y13723D01*
X1510Y13721D01*
X1517Y13719D01*
X1526Y13716D01*
X1545Y13710D01*
X1564Y13702D01*
X1584Y13693D01*
X1603Y13681D01*
X1604Y13680D01*
X1605Y13680D01*
X1608Y13678D01*
X1611Y13675D01*
X1615Y13672D01*
X1620Y13668D01*
X1625Y13663D01*
X1631Y13658D01*
X1636Y13651D01*
X1643Y13644D01*
X1656Y13628D01*
X1668Y13610D01*
X1680Y13589D01*
X1681Y13588D01*
X1682Y13586D01*
X1683Y13583D01*
X1685Y13578D01*
X1687Y13573D01*
X1689Y13566D01*
X1692Y13558D01*
X1695Y13550D01*
X1697Y13541D01*
X1700Y13531D01*
X1702Y13520D01*
X1704Y13508D01*
X1708Y13484D01*
X1709Y13458D01*
Y13456D01*
Y13452D01*
X1709Y13446D01*
X1708Y13438D01*
X1707Y13427D01*
X1705Y13415D01*
X1703Y13401D01*
X1700Y13386D01*
X1695Y13370D01*
X1690Y13354D01*
X1684Y13336D01*
X1676Y13319D01*
X1667Y13302D01*
X1657Y13284D01*
X1645Y13267D01*
X1631Y13251D01*
X1630Y13250D01*
X1627Y13248D01*
X1623Y13244D01*
X1616Y13238D01*
X1607Y13232D01*
X1596Y13224D01*
X1582Y13217D01*
X1566Y13209D01*
X1548Y13201D01*
X1528Y13194D01*
X1505Y13186D01*
X1480Y13180D01*
X1451Y13174D01*
X1436Y13172D01*
X1420Y13170D01*
X1403Y13169D01*
X1386Y13167D01*
X1368Y13167D01*
X1104D01*
Y12776D01*
X977D01*
Y13736D01*
X1362D01*
X1372Y13735D01*
D02*
G37*
G36*
X50325Y25585D02*
X50454D01*
Y25477D01*
X50325D01*
Y25248D01*
X50207D01*
Y25477D01*
X49791D01*
Y25585D01*
X50228Y26207D01*
X50325D01*
Y25585D01*
D02*
G37*
G36*
X49378Y26207D02*
X49387D01*
X49398Y26206D01*
X49422Y26205D01*
X49446Y26203D01*
X49470Y26201D01*
X49481Y26199D01*
X49491Y26198D01*
X49491D01*
X49494Y26197D01*
X49498Y26196D01*
X49502Y26196D01*
X49509Y26194D01*
X49516Y26192D01*
X49523Y26190D01*
X49532Y26188D01*
X49551Y26182D01*
X49570Y26173D01*
X49590Y26164D01*
X49609Y26153D01*
X49610Y26152D01*
X49611Y26151D01*
X49614Y26149D01*
X49617Y26146D01*
X49621Y26143D01*
X49626Y26139D01*
X49631Y26134D01*
X49637Y26129D01*
X49642Y26123D01*
X49649Y26116D01*
X49662Y26100D01*
X49674Y26081D01*
X49686Y26060D01*
X49687Y26060D01*
X49688Y26058D01*
X49689Y26054D01*
X49691Y26050D01*
X49693Y26044D01*
X49695Y26037D01*
X49698Y26030D01*
X49701Y26021D01*
X49703Y26012D01*
X49706Y26002D01*
X49708Y25992D01*
X49710Y25980D01*
X49714Y25956D01*
X49715Y25929D01*
Y25928D01*
Y25924D01*
X49715Y25917D01*
X49714Y25909D01*
X49713Y25898D01*
X49711Y25886D01*
X49709Y25872D01*
X49706Y25858D01*
X49701Y25842D01*
X49696Y25825D01*
X49690Y25808D01*
X49682Y25791D01*
X49673Y25773D01*
X49663Y25756D01*
X49651Y25739D01*
X49637Y25723D01*
X49636Y25722D01*
X49633Y25719D01*
X49629Y25715D01*
X49622Y25709D01*
X49613Y25703D01*
X49602Y25696D01*
X49588Y25688D01*
X49572Y25680D01*
X49554Y25673D01*
X49534Y25665D01*
X49511Y25657D01*
X49486Y25651D01*
X49457Y25646D01*
X49442Y25644D01*
X49426Y25641D01*
X49409Y25640D01*
X49392Y25639D01*
X49374Y25638D01*
X49110D01*
Y25248D01*
X48983D01*
Y26207D01*
X49368D01*
X49378Y26207D01*
D02*
G37*
G36*
X24387Y5306D02*
X24394D01*
X24403Y5304D01*
X24412Y5304D01*
X24421Y5302D01*
X24433Y5300D01*
X24444Y5298D01*
X24468Y5292D01*
X24481Y5289D01*
X24494Y5284D01*
X24506Y5279D01*
X24519Y5273D01*
X24519Y5272D01*
X24521Y5271D01*
X24525Y5269D01*
X24530Y5266D01*
X24535Y5263D01*
X24541Y5259D01*
X24548Y5254D01*
X24556Y5248D01*
X24573Y5235D01*
X24589Y5219D01*
X24605Y5201D01*
X24613Y5191D01*
X24620Y5180D01*
X24620Y5180D01*
X24621Y5178D01*
X24623Y5175D01*
X24625Y5170D01*
X24628Y5165D01*
X24631Y5158D01*
X24634Y5151D01*
X24638Y5143D01*
X24641Y5134D01*
X24644Y5125D01*
X24650Y5104D01*
X24654Y5081D01*
X24654Y5069D01*
X24655Y5057D01*
Y5056D01*
Y5054D01*
Y5051D01*
X24654Y5047D01*
Y5041D01*
X24653Y5035D01*
X24652Y5027D01*
X24651Y5019D01*
X24647Y5001D01*
X24641Y4983D01*
X24637Y4973D01*
X24632Y4963D01*
X24627Y4953D01*
X24621Y4943D01*
X24620Y4943D01*
X24620Y4941D01*
X24618Y4938D01*
X24615Y4935D01*
X24611Y4931D01*
X24607Y4926D01*
X24602Y4920D01*
X24596Y4914D01*
X24590Y4908D01*
X24582Y4902D01*
X24575Y4895D01*
X24566Y4888D01*
X24556Y4881D01*
X24546Y4875D01*
X24535Y4868D01*
X24523Y4863D01*
X24523D01*
X24526Y4862D01*
X24531Y4861D01*
X24537Y4859D01*
X24544Y4857D01*
X24553Y4853D01*
X24562Y4850D01*
X24571Y4845D01*
X24582Y4840D01*
X24593Y4834D01*
X24604Y4827D01*
X24615Y4820D01*
X24625Y4811D01*
X24636Y4802D01*
X24646Y4792D01*
X24655Y4781D01*
X24656Y4780D01*
X24657Y4778D01*
X24659Y4775D01*
X24663Y4770D01*
X24666Y4764D01*
X24670Y4757D01*
X24675Y4748D01*
X24679Y4739D01*
X24683Y4728D01*
X24688Y4716D01*
X24691Y4703D01*
X24695Y4689D01*
X24698Y4675D01*
X24700Y4660D01*
X24702Y4644D01*
X24702Y4626D01*
Y4625D01*
Y4621D01*
X24702Y4614D01*
X24701Y4606D01*
X24700Y4594D01*
X24697Y4582D01*
X24695Y4568D01*
X24691Y4553D01*
X24686Y4536D01*
X24680Y4520D01*
X24672Y4502D01*
X24663Y4483D01*
X24653Y4465D01*
X24641Y4447D01*
X24626Y4430D01*
X24610Y4413D01*
X24609Y4413D01*
X24606Y4410D01*
X24601Y4405D01*
X24593Y4400D01*
X24584Y4393D01*
X24574Y4386D01*
X24561Y4378D01*
X24547Y4370D01*
X24531Y4361D01*
X24513Y4354D01*
X24494Y4346D01*
X24473Y4340D01*
X24452Y4334D01*
X24428Y4330D01*
X24404Y4327D01*
X24378Y4326D01*
X24373D01*
X24366Y4327D01*
X24358Y4327D01*
X24347Y4328D01*
X24334Y4330D01*
X24320Y4332D01*
X24305Y4336D01*
X24289Y4339D01*
X24272Y4344D01*
X24254Y4350D01*
X24236Y4358D01*
X24219Y4366D01*
X24202Y4376D01*
X24184Y4388D01*
X24168Y4401D01*
X24168Y4402D01*
X24165Y4404D01*
X24161Y4409D01*
X24155Y4415D01*
X24149Y4422D01*
X24141Y4431D01*
X24134Y4442D01*
X24125Y4454D01*
X24117Y4467D01*
X24109Y4482D01*
X24101Y4498D01*
X24093Y4515D01*
X24087Y4534D01*
X24081Y4554D01*
X24077Y4574D01*
X24074Y4596D01*
X24192Y4612D01*
Y4611D01*
X24193Y4608D01*
X24194Y4603D01*
X24196Y4596D01*
X24198Y4587D01*
X24201Y4578D01*
X24204Y4568D01*
X24208Y4557D01*
X24218Y4533D01*
X24229Y4509D01*
X24236Y4497D01*
X24244Y4486D01*
X24252Y4477D01*
X24261Y4468D01*
X24261Y4467D01*
X24263Y4465D01*
X24265Y4463D01*
X24270Y4461D01*
X24274Y4457D01*
X24280Y4454D01*
X24286Y4449D01*
X24294Y4446D01*
X24302Y4442D01*
X24311Y4438D01*
X24321Y4434D01*
X24331Y4431D01*
X24342Y4428D01*
X24354Y4426D01*
X24366Y4425D01*
X24379Y4424D01*
X24383D01*
X24387Y4425D01*
X24393D01*
X24401Y4426D01*
X24409Y4427D01*
X24418Y4429D01*
X24428Y4431D01*
X24439Y4434D01*
X24451Y4438D01*
X24462Y4443D01*
X24474Y4448D01*
X24486Y4455D01*
X24498Y4463D01*
X24509Y4471D01*
X24520Y4481D01*
X24521Y4482D01*
X24523Y4484D01*
X24525Y4487D01*
X24529Y4492D01*
X24533Y4497D01*
X24538Y4504D01*
X24544Y4512D01*
X24549Y4521D01*
X24554Y4531D01*
X24559Y4542D01*
X24564Y4553D01*
X24568Y4566D01*
X24572Y4579D01*
X24575Y4593D01*
X24577Y4608D01*
X24577Y4624D01*
Y4624D01*
Y4627D01*
Y4631D01*
X24577Y4637D01*
X24576Y4644D01*
X24575Y4652D01*
X24573Y4661D01*
X24571Y4671D01*
X24568Y4681D01*
X24564Y4692D01*
X24560Y4703D01*
X24555Y4714D01*
X24549Y4725D01*
X24541Y4737D01*
X24534Y4747D01*
X24524Y4757D01*
X24523Y4758D01*
X24522Y4759D01*
X24519Y4762D01*
X24514Y4766D01*
X24510Y4770D01*
X24503Y4774D01*
X24496Y4779D01*
X24487Y4784D01*
X24478Y4789D01*
X24468Y4793D01*
X24457Y4798D01*
X24445Y4802D01*
X24433Y4805D01*
X24419Y4808D01*
X24405Y4809D01*
X24390Y4810D01*
X24383D01*
X24376Y4809D01*
X24367Y4809D01*
X24354Y4807D01*
X24340Y4805D01*
X24324Y4802D01*
X24306Y4798D01*
X24320Y4901D01*
X24322D01*
X24324Y4900D01*
X24326D01*
X24333Y4900D01*
X24346D01*
X24351Y4900D01*
X24358Y4901D01*
X24365Y4902D01*
X24374Y4903D01*
X24383Y4904D01*
X24394Y4906D01*
X24404Y4909D01*
X24427Y4916D01*
X24439Y4920D01*
X24451Y4926D01*
X24462Y4931D01*
X24473Y4938D01*
X24474Y4939D01*
X24476Y4940D01*
X24479Y4943D01*
X24483Y4946D01*
X24487Y4950D01*
X24493Y4955D01*
X24498Y4961D01*
X24504Y4968D01*
X24510Y4976D01*
X24515Y4986D01*
X24520Y4995D01*
X24524Y5006D01*
X24528Y5018D01*
X24531Y5031D01*
X24533Y5045D01*
X24534Y5060D01*
Y5060D01*
Y5062D01*
Y5066D01*
X24533Y5071D01*
X24532Y5076D01*
X24532Y5083D01*
X24530Y5090D01*
X24528Y5097D01*
X24523Y5114D01*
X24519Y5123D01*
X24515Y5132D01*
X24510Y5141D01*
X24504Y5150D01*
X24497Y5158D01*
X24489Y5166D01*
X24489Y5167D01*
X24487Y5169D01*
X24485Y5171D01*
X24482Y5173D01*
X24477Y5176D01*
X24472Y5180D01*
X24466Y5184D01*
X24459Y5188D01*
X24451Y5192D01*
X24443Y5196D01*
X24433Y5200D01*
X24424Y5203D01*
X24412Y5205D01*
X24401Y5207D01*
X24389Y5209D01*
X24376Y5209D01*
X24369D01*
X24365Y5209D01*
X24359Y5208D01*
X24352Y5207D01*
X24344Y5206D01*
X24336Y5204D01*
X24318Y5199D01*
X24309Y5196D01*
X24299Y5191D01*
X24290Y5186D01*
X24280Y5180D01*
X24271Y5173D01*
X24262Y5166D01*
X24261Y5165D01*
X24260Y5164D01*
X24258Y5161D01*
X24254Y5157D01*
X24251Y5153D01*
X24247Y5148D01*
X24243Y5141D01*
X24238Y5134D01*
X24233Y5125D01*
X24228Y5115D01*
X24222Y5105D01*
X24218Y5093D01*
X24213Y5081D01*
X24210Y5067D01*
X24207Y5053D01*
X24204Y5037D01*
X24086Y5058D01*
Y5058D01*
Y5059D01*
X24087Y5063D01*
X24089Y5069D01*
X24091Y5077D01*
X24093Y5087D01*
X24097Y5099D01*
X24101Y5111D01*
X24106Y5125D01*
X24112Y5139D01*
X24119Y5155D01*
X24127Y5170D01*
X24136Y5185D01*
X24146Y5200D01*
X24157Y5215D01*
X24170Y5229D01*
X24184Y5241D01*
X24184Y5242D01*
X24187Y5244D01*
X24191Y5248D01*
X24198Y5252D01*
X24205Y5257D01*
X24214Y5262D01*
X24225Y5268D01*
X24236Y5274D01*
X24250Y5280D01*
X24264Y5286D01*
X24279Y5291D01*
X24296Y5296D01*
X24314Y5300D01*
X24333Y5304D01*
X24354Y5306D01*
X24374Y5307D01*
X24382D01*
X24387Y5306D01*
D02*
G37*
G36*
X23622Y5302D02*
X23632D01*
X23643Y5302D01*
X23666Y5301D01*
X23691Y5299D01*
X23714Y5297D01*
X23725Y5295D01*
X23735Y5293D01*
X23736D01*
X23738Y5293D01*
X23742Y5292D01*
X23747Y5291D01*
X23753Y5290D01*
X23760Y5288D01*
X23768Y5286D01*
X23777Y5284D01*
X23795Y5277D01*
X23815Y5269D01*
X23835Y5260D01*
X23854Y5248D01*
X23854Y5248D01*
X23856Y5247D01*
X23858Y5245D01*
X23861Y5242D01*
X23865Y5239D01*
X23870Y5235D01*
X23876Y5230D01*
X23881Y5225D01*
X23887Y5219D01*
X23893Y5212D01*
X23906Y5196D01*
X23919Y5177D01*
X23931Y5156D01*
X23931Y5155D01*
X23932Y5153D01*
X23933Y5150D01*
X23935Y5146D01*
X23937Y5140D01*
X23940Y5133D01*
X23942Y5126D01*
X23945Y5117D01*
X23948Y5108D01*
X23951Y5098D01*
X23953Y5087D01*
X23955Y5076D01*
X23958Y5051D01*
X23960Y5025D01*
Y5024D01*
Y5019D01*
X23959Y5013D01*
X23958Y5005D01*
X23958Y4994D01*
X23955Y4982D01*
X23953Y4968D01*
X23950Y4954D01*
X23946Y4938D01*
X23940Y4921D01*
X23934Y4904D01*
X23926Y4886D01*
X23917Y4869D01*
X23907Y4852D01*
X23895Y4834D01*
X23881Y4818D01*
X23881Y4818D01*
X23878Y4815D01*
X23873Y4811D01*
X23866Y4805D01*
X23857Y4799D01*
X23846Y4791D01*
X23833Y4784D01*
X23817Y4776D01*
X23799Y4768D01*
X23779Y4761D01*
X23755Y4753D01*
X23730Y4747D01*
X23702Y4741D01*
X23686Y4739D01*
X23670Y4737D01*
X23654Y4736D01*
X23637Y4734D01*
X23618Y4734D01*
X23354D01*
Y4343D01*
X23227D01*
Y5303D01*
X23612D01*
X23622Y5302D01*
D02*
G37*
G36*
X27656Y43228D02*
X27666Y43227D01*
X27678Y43227D01*
X27691Y43225D01*
X27706Y43223D01*
X27722Y43219D01*
X27739Y43215D01*
X27757Y43210D01*
X27775Y43204D01*
X27793Y43196D01*
X27811Y43187D01*
X27829Y43177D01*
X27845Y43166D01*
X27861Y43152D01*
X27862Y43151D01*
X27865Y43148D01*
X27869Y43144D01*
X27874Y43138D01*
X27880Y43131D01*
X27887Y43122D01*
X27895Y43112D01*
X27902Y43100D01*
X27909Y43087D01*
X27917Y43072D01*
X27924Y43056D01*
X27930Y43039D01*
X27935Y43021D01*
X27939Y43003D01*
X27942Y42983D01*
X27942Y42962D01*
Y42961D01*
Y42959D01*
Y42956D01*
Y42952D01*
X27942Y42947D01*
X27941Y42941D01*
X27940Y42934D01*
X27940Y42926D01*
X27937Y42909D01*
X27933Y42890D01*
X27926Y42870D01*
X27919Y42849D01*
Y42848D01*
X27917Y42846D01*
X27916Y42843D01*
X27914Y42839D01*
X27912Y42834D01*
X27908Y42828D01*
X27905Y42821D01*
X27900Y42813D01*
X27895Y42805D01*
X27890Y42796D01*
X27876Y42776D01*
X27868Y42766D01*
X27860Y42754D01*
X27850Y42743D01*
X27840Y42732D01*
X27840Y42731D01*
X27838Y42729D01*
X27835Y42725D01*
X27830Y42720D01*
X27824Y42714D01*
X27816Y42707D01*
X27808Y42698D01*
X27797Y42687D01*
X27786Y42676D01*
X27772Y42664D01*
X27757Y42650D01*
X27741Y42634D01*
X27723Y42619D01*
X27703Y42601D01*
X27682Y42582D01*
X27659Y42563D01*
X27657Y42562D01*
X27654Y42559D01*
X27649Y42555D01*
X27642Y42549D01*
X27633Y42542D01*
X27624Y42533D01*
X27614Y42524D01*
X27603Y42515D01*
X27579Y42494D01*
X27568Y42484D01*
X27557Y42474D01*
X27546Y42465D01*
X27537Y42456D01*
X27529Y42449D01*
X27523Y42442D01*
X27521Y42440D01*
X27518Y42436D01*
X27512Y42430D01*
X27506Y42422D01*
X27498Y42413D01*
X27490Y42402D01*
X27481Y42390D01*
X27474Y42379D01*
X27944D01*
Y42266D01*
X27310D01*
Y42266D01*
Y42268D01*
Y42270D01*
Y42273D01*
Y42277D01*
X27311Y42281D01*
X27311Y42292D01*
X27313Y42304D01*
X27315Y42318D01*
X27318Y42332D01*
X27323Y42347D01*
Y42347D01*
X27325Y42349D01*
X27326Y42353D01*
X27328Y42358D01*
X27330Y42364D01*
X27334Y42371D01*
X27338Y42379D01*
X27342Y42387D01*
X27347Y42397D01*
X27353Y42406D01*
X27366Y42428D01*
X27382Y42451D01*
X27401Y42474D01*
X27402Y42475D01*
X27404Y42477D01*
X27406Y42481D01*
X27411Y42485D01*
X27416Y42492D01*
X27423Y42499D01*
X27431Y42507D01*
X27440Y42516D01*
X27451Y42526D01*
X27462Y42537D01*
X27474Y42549D01*
X27488Y42562D01*
X27503Y42576D01*
X27519Y42589D01*
X27537Y42604D01*
X27555Y42619D01*
X27555Y42620D01*
X27557Y42621D01*
X27559Y42623D01*
X27562Y42625D01*
X27565Y42628D01*
X27569Y42632D01*
X27580Y42641D01*
X27593Y42651D01*
X27607Y42664D01*
X27623Y42678D01*
X27639Y42693D01*
X27657Y42709D01*
X27675Y42726D01*
X27693Y42743D01*
X27709Y42760D01*
X27726Y42777D01*
X27741Y42793D01*
X27754Y42809D01*
X27766Y42823D01*
X27766Y42824D01*
X27768Y42827D01*
X27770Y42831D01*
X27775Y42836D01*
X27779Y42843D01*
X27783Y42850D01*
X27788Y42859D01*
X27793Y42869D01*
X27798Y42879D01*
X27804Y42890D01*
X27813Y42915D01*
X27816Y42927D01*
X27819Y42940D01*
X27820Y42952D01*
X27821Y42965D01*
Y42965D01*
Y42968D01*
Y42972D01*
X27820Y42976D01*
X27820Y42983D01*
X27818Y42990D01*
X27817Y42997D01*
X27815Y43005D01*
X27812Y43014D01*
X27809Y43024D01*
X27804Y43034D01*
X27800Y43044D01*
X27794Y43054D01*
X27787Y43064D01*
X27779Y43073D01*
X27770Y43082D01*
X27770Y43083D01*
X27768Y43085D01*
X27766Y43087D01*
X27761Y43090D01*
X27757Y43094D01*
X27750Y43098D01*
X27743Y43103D01*
X27736Y43107D01*
X27727Y43112D01*
X27717Y43116D01*
X27706Y43120D01*
X27695Y43123D01*
X27682Y43127D01*
X27669Y43129D01*
X27655Y43130D01*
X27641Y43131D01*
X27632D01*
X27627Y43130D01*
X27619Y43130D01*
X27611Y43128D01*
X27602Y43127D01*
X27592Y43125D01*
X27581Y43122D01*
X27570Y43119D01*
X27559Y43114D01*
X27547Y43109D01*
X27536Y43103D01*
X27525Y43096D01*
X27514Y43089D01*
X27504Y43080D01*
X27503Y43079D01*
X27502Y43078D01*
X27499Y43074D01*
X27497Y43071D01*
X27492Y43065D01*
X27488Y43059D01*
X27483Y43051D01*
X27479Y43043D01*
X27474Y43034D01*
X27469Y43023D01*
X27465Y43012D01*
X27461Y42999D01*
X27458Y42985D01*
X27456Y42971D01*
X27454Y42956D01*
X27454Y42939D01*
X27332Y42951D01*
Y42952D01*
Y42953D01*
X27333Y42955D01*
Y42958D01*
X27334Y42965D01*
X27336Y42974D01*
X27338Y42985D01*
X27341Y42998D01*
X27344Y43012D01*
X27348Y43028D01*
X27354Y43044D01*
X27360Y43061D01*
X27368Y43078D01*
X27377Y43096D01*
X27386Y43112D01*
X27398Y43128D01*
X27411Y43143D01*
X27425Y43157D01*
X27426Y43158D01*
X27429Y43160D01*
X27433Y43164D01*
X27440Y43168D01*
X27448Y43174D01*
X27458Y43180D01*
X27469Y43186D01*
X27483Y43193D01*
X27498Y43200D01*
X27514Y43206D01*
X27532Y43212D01*
X27551Y43218D01*
X27572Y43223D01*
X27594Y43226D01*
X27618Y43228D01*
X27643Y43229D01*
X27649D01*
X27656Y43228D01*
D02*
G37*
G36*
X26873Y43225D02*
X26883D01*
X26894Y43224D01*
X26918Y43223D01*
X26942Y43221D01*
X26965Y43219D01*
X26976Y43217D01*
X26986Y43216D01*
X26987D01*
X26990Y43215D01*
X26993Y43214D01*
X26998Y43214D01*
X27004Y43212D01*
X27011Y43210D01*
X27019Y43208D01*
X27028Y43206D01*
X27047Y43200D01*
X27066Y43191D01*
X27086Y43182D01*
X27105Y43171D01*
X27105Y43170D01*
X27107Y43169D01*
X27110Y43167D01*
X27112Y43164D01*
X27117Y43161D01*
X27121Y43157D01*
X27127Y43152D01*
X27132Y43147D01*
X27138Y43141D01*
X27144Y43134D01*
X27157Y43118D01*
X27170Y43099D01*
X27182Y43078D01*
X27182Y43078D01*
X27183Y43076D01*
X27184Y43072D01*
X27187Y43068D01*
X27189Y43062D01*
X27191Y43055D01*
X27194Y43048D01*
X27196Y43039D01*
X27199Y43030D01*
X27202Y43020D01*
X27204Y43010D01*
X27206Y42998D01*
X27209Y42974D01*
X27211Y42947D01*
Y42946D01*
Y42942D01*
X27210Y42935D01*
X27209Y42927D01*
X27209Y42916D01*
X27207Y42904D01*
X27205Y42890D01*
X27201Y42876D01*
X27197Y42860D01*
X27191Y42843D01*
X27185Y42826D01*
X27178Y42809D01*
X27169Y42791D01*
X27158Y42774D01*
X27146Y42757D01*
X27132Y42741D01*
X27132Y42740D01*
X27129Y42737D01*
X27124Y42733D01*
X27117Y42727D01*
X27108Y42721D01*
X27097Y42714D01*
X27084Y42706D01*
X27068Y42698D01*
X27050Y42691D01*
X27030Y42683D01*
X27006Y42675D01*
X26981Y42669D01*
X26953Y42664D01*
X26938Y42662D01*
X26922Y42659D01*
X26905Y42658D01*
X26888Y42657D01*
X26870Y42656D01*
X26605D01*
Y42266D01*
X26479D01*
Y43225D01*
X26863D01*
X26873Y43225D01*
D02*
G37*
G36*
X7271Y12725D02*
X7153D01*
Y13476D01*
X7152Y13475D01*
X7151Y13474D01*
X7149Y13472D01*
X7145Y13469D01*
X7141Y13465D01*
X7135Y13460D01*
X7129Y13456D01*
X7123Y13450D01*
X7115Y13444D01*
X7106Y13438D01*
X7097Y13431D01*
X7088Y13424D01*
X7076Y13417D01*
X7065Y13409D01*
X7040Y13394D01*
X7040Y13393D01*
X7038Y13392D01*
X7033Y13390D01*
X7029Y13388D01*
X7023Y13384D01*
X7016Y13380D01*
X7008Y13376D01*
X6999Y13371D01*
X6980Y13361D01*
X6959Y13352D01*
X6938Y13342D01*
X6917Y13334D01*
Y13447D01*
X6918Y13448D01*
X6921Y13449D01*
X6927Y13452D01*
X6934Y13456D01*
X6942Y13460D01*
X6952Y13465D01*
X6963Y13472D01*
X6975Y13478D01*
X6988Y13487D01*
X7002Y13495D01*
X7031Y13515D01*
X7061Y13536D01*
X7090Y13560D01*
X7090Y13560D01*
X7093Y13562D01*
X7097Y13566D01*
X7101Y13571D01*
X7108Y13577D01*
X7115Y13584D01*
X7122Y13592D01*
X7130Y13601D01*
X7139Y13610D01*
X7148Y13621D01*
X7165Y13642D01*
X7181Y13665D01*
X7188Y13677D01*
X7194Y13689D01*
X7271D01*
Y12725D01*
D02*
G37*
G36*
X6375Y13684D02*
X6385D01*
X6396Y13684D01*
X6420Y13683D01*
X6444Y13681D01*
X6468Y13679D01*
X6479Y13677D01*
X6488Y13675D01*
X6489D01*
X6492Y13675D01*
X6495Y13674D01*
X6500Y13673D01*
X6506Y13672D01*
X6513Y13670D01*
X6521Y13668D01*
X6530Y13666D01*
X6549Y13659D01*
X6568Y13651D01*
X6588Y13642D01*
X6607Y13630D01*
X6608Y13630D01*
X6609Y13629D01*
X6612Y13627D01*
X6615Y13624D01*
X6619Y13621D01*
X6624Y13617D01*
X6629Y13612D01*
X6635Y13607D01*
X6640Y13601D01*
X6646Y13594D01*
X6660Y13578D01*
X6672Y13559D01*
X6684Y13538D01*
X6685Y13537D01*
X6685Y13535D01*
X6687Y13532D01*
X6689Y13528D01*
X6691Y13522D01*
X6693Y13515D01*
X6696Y13508D01*
X6698Y13499D01*
X6701Y13490D01*
X6704Y13480D01*
X6706Y13469D01*
X6708Y13458D01*
X6712Y13433D01*
X6713Y13407D01*
Y13406D01*
Y13401D01*
X6712Y13395D01*
X6712Y13387D01*
X6711Y13376D01*
X6709Y13364D01*
X6707Y13350D01*
X6703Y13336D01*
X6699Y13320D01*
X6694Y13303D01*
X6687Y13286D01*
X6680Y13268D01*
X6671Y13251D01*
X6660Y13234D01*
X6649Y13216D01*
X6635Y13200D01*
X6634Y13200D01*
X6631Y13197D01*
X6626Y13193D01*
X6619Y13187D01*
X6610Y13181D01*
X6599Y13173D01*
X6586Y13166D01*
X6570Y13158D01*
X6552Y13150D01*
X6532Y13143D01*
X6508Y13135D01*
X6484Y13129D01*
X6455Y13123D01*
X6440Y13121D01*
X6424Y13119D01*
X6407Y13118D01*
X6390Y13116D01*
X6372Y13116D01*
X6108D01*
Y12725D01*
X5981D01*
Y13685D01*
X6366D01*
X6375Y13684D01*
D02*
G37*
G36*
X1266Y28995D02*
X1277Y28995D01*
X1289Y28994D01*
X1303Y28992D01*
X1319Y28990D01*
X1337Y28987D01*
X1356Y28983D01*
X1375Y28978D01*
X1395Y28973D01*
X1415Y28965D01*
X1436Y28957D01*
X1456Y28947D01*
X1476Y28936D01*
X1494Y28923D01*
X1496Y28922D01*
X1499Y28919D01*
X1504Y28915D01*
X1510Y28909D01*
X1519Y28902D01*
X1528Y28892D01*
X1537Y28882D01*
X1549Y28869D01*
X1560Y28855D01*
X1571Y28840D01*
X1583Y28823D01*
X1594Y28805D01*
X1605Y28785D01*
X1614Y28763D01*
X1624Y28740D01*
X1632Y28716D01*
X1507Y28687D01*
X1506Y28688D01*
X1506Y28692D01*
X1503Y28697D01*
X1501Y28704D01*
X1497Y28713D01*
X1493Y28722D01*
X1488Y28733D01*
X1482Y28745D01*
X1476Y28758D01*
X1468Y28770D01*
X1460Y28783D01*
X1451Y28796D01*
X1442Y28808D01*
X1432Y28819D01*
X1421Y28830D01*
X1409Y28839D01*
X1408Y28840D01*
X1406Y28842D01*
X1403Y28844D01*
X1398Y28847D01*
X1392Y28851D01*
X1384Y28855D01*
X1375Y28859D01*
X1365Y28864D01*
X1354Y28868D01*
X1343Y28872D01*
X1329Y28876D01*
X1316Y28880D01*
X1300Y28883D01*
X1284Y28885D01*
X1268Y28887D01*
X1250Y28887D01*
X1239D01*
X1232Y28887D01*
X1222Y28886D01*
X1211Y28885D01*
X1198Y28883D01*
X1185Y28880D01*
X1171Y28878D01*
X1156Y28874D01*
X1141Y28870D01*
X1125Y28865D01*
X1110Y28859D01*
X1094Y28851D01*
X1079Y28844D01*
X1065Y28834D01*
X1064Y28833D01*
X1061Y28832D01*
X1058Y28828D01*
X1053Y28824D01*
X1047Y28819D01*
X1040Y28812D01*
X1032Y28805D01*
X1024Y28796D01*
X1015Y28787D01*
X1006Y28776D01*
X998Y28765D01*
X990Y28751D01*
X981Y28738D01*
X974Y28724D01*
X967Y28708D01*
X961Y28692D01*
Y28691D01*
X959Y28688D01*
X958Y28683D01*
X956Y28676D01*
X954Y28668D01*
X951Y28658D01*
X949Y28647D01*
X946Y28635D01*
X943Y28622D01*
X940Y28607D01*
X938Y28592D01*
X936Y28576D01*
X932Y28543D01*
X931Y28525D01*
X931Y28507D01*
Y28506D01*
Y28502D01*
Y28495D01*
X931Y28486D01*
X932Y28476D01*
X933Y28464D01*
X933Y28450D01*
X935Y28435D01*
X937Y28419D01*
X939Y28401D01*
X946Y28366D01*
X949Y28347D01*
X954Y28329D01*
X960Y28311D01*
X966Y28294D01*
X967Y28293D01*
X967Y28290D01*
X970Y28285D01*
X973Y28279D01*
X976Y28272D01*
X981Y28263D01*
X987Y28253D01*
X993Y28242D01*
X1001Y28232D01*
X1009Y28221D01*
X1018Y28209D01*
X1028Y28198D01*
X1039Y28187D01*
X1051Y28177D01*
X1063Y28167D01*
X1077Y28158D01*
X1078Y28157D01*
X1080Y28156D01*
X1085Y28154D01*
X1090Y28151D01*
X1097Y28147D01*
X1105Y28143D01*
X1115Y28140D01*
X1126Y28136D01*
X1137Y28131D01*
X1150Y28127D01*
X1164Y28123D01*
X1178Y28120D01*
X1193Y28117D01*
X1208Y28115D01*
X1224Y28113D01*
X1240Y28113D01*
X1245D01*
X1250Y28113D01*
X1258D01*
X1267Y28115D01*
X1277Y28116D01*
X1290Y28118D01*
X1302Y28120D01*
X1316Y28124D01*
X1331Y28128D01*
X1346Y28133D01*
X1361Y28138D01*
X1377Y28145D01*
X1392Y28154D01*
X1406Y28163D01*
X1421Y28174D01*
X1422Y28174D01*
X1424Y28177D01*
X1428Y28180D01*
X1433Y28186D01*
X1439Y28192D01*
X1446Y28199D01*
X1454Y28209D01*
X1461Y28220D01*
X1469Y28232D01*
X1478Y28245D01*
X1487Y28260D01*
X1494Y28277D01*
X1503Y28294D01*
X1510Y28314D01*
X1516Y28334D01*
X1521Y28356D01*
X1648Y28324D01*
Y28324D01*
X1648Y28322D01*
X1647Y28320D01*
X1646Y28317D01*
X1646Y28314D01*
X1644Y28309D01*
X1641Y28299D01*
X1636Y28285D01*
X1630Y28271D01*
X1623Y28254D01*
X1615Y28236D01*
X1606Y28217D01*
X1596Y28197D01*
X1584Y28178D01*
X1571Y28158D01*
X1556Y28138D01*
X1540Y28120D01*
X1523Y28102D01*
X1504Y28086D01*
X1503Y28085D01*
X1499Y28082D01*
X1494Y28078D01*
X1485Y28073D01*
X1476Y28067D01*
X1463Y28060D01*
X1449Y28052D01*
X1433Y28045D01*
X1416Y28037D01*
X1397Y28030D01*
X1376Y28023D01*
X1354Y28016D01*
X1329Y28011D01*
X1304Y28007D01*
X1278Y28005D01*
X1250Y28004D01*
X1240D01*
X1235Y28005D01*
X1225D01*
X1212Y28006D01*
X1196Y28007D01*
X1179Y28009D01*
X1161Y28011D01*
X1141Y28015D01*
X1121Y28019D01*
X1099Y28025D01*
X1078Y28030D01*
X1058Y28038D01*
X1037Y28046D01*
X1017Y28056D01*
X998Y28067D01*
X997Y28068D01*
X994Y28070D01*
X989Y28074D01*
X982Y28079D01*
X974Y28085D01*
X965Y28093D01*
X954Y28102D01*
X943Y28113D01*
X931Y28126D01*
X920Y28139D01*
X907Y28154D01*
X895Y28170D01*
X883Y28188D01*
X871Y28207D01*
X860Y28228D01*
X850Y28249D01*
Y28250D01*
X850Y28251D01*
X848Y28255D01*
X845Y28261D01*
X843Y28270D01*
X838Y28281D01*
X834Y28294D01*
X829Y28310D01*
X825Y28326D01*
X820Y28345D01*
X816Y28365D01*
X811Y28386D01*
X807Y28409D01*
X804Y28432D01*
X802Y28456D01*
X800Y28481D01*
X800Y28507D01*
Y28507D01*
Y28509D01*
Y28511D01*
Y28514D01*
Y28517D01*
X800Y28521D01*
Y28532D01*
X802Y28545D01*
X802Y28560D01*
X804Y28577D01*
X807Y28596D01*
X810Y28615D01*
X814Y28636D01*
X818Y28658D01*
X824Y28681D01*
X830Y28703D01*
X838Y28725D01*
X847Y28747D01*
X857Y28768D01*
X857Y28769D01*
X859Y28773D01*
X863Y28778D01*
X867Y28787D01*
X873Y28796D01*
X880Y28806D01*
X889Y28819D01*
X899Y28831D01*
X909Y28844D01*
X922Y28859D01*
X935Y28873D01*
X949Y28887D01*
X965Y28900D01*
X982Y28914D01*
X1000Y28926D01*
X1019Y28938D01*
X1021Y28939D01*
X1024Y28941D01*
X1030Y28943D01*
X1038Y28947D01*
X1048Y28952D01*
X1060Y28957D01*
X1074Y28961D01*
X1088Y28967D01*
X1105Y28973D01*
X1123Y28977D01*
X1142Y28983D01*
X1162Y28987D01*
X1184Y28991D01*
X1206Y28993D01*
X1229Y28995D01*
X1252Y28996D01*
X1262D01*
X1266Y28995D01*
D02*
G37*
G36*
X2200Y28020D02*
X2082D01*
Y28770D01*
X2082Y28769D01*
X2080Y28768D01*
X2078Y28766D01*
X2075Y28763D01*
X2071Y28760D01*
X2065Y28755D01*
X2059Y28750D01*
X2053Y28744D01*
X2044Y28739D01*
X2036Y28732D01*
X2027Y28726D01*
X2017Y28718D01*
X2006Y28711D01*
X1995Y28704D01*
X1970Y28688D01*
X1969Y28688D01*
X1967Y28686D01*
X1963Y28684D01*
X1958Y28682D01*
X1953Y28679D01*
X1946Y28674D01*
X1938Y28670D01*
X1929Y28665D01*
X1910Y28656D01*
X1889Y28646D01*
X1868Y28636D01*
X1847Y28628D01*
Y28742D01*
X1848Y28742D01*
X1851Y28744D01*
X1856Y28747D01*
X1863Y28750D01*
X1872Y28754D01*
X1882Y28760D01*
X1893Y28766D01*
X1905Y28773D01*
X1918Y28781D01*
X1932Y28789D01*
X1961Y28809D01*
X1991Y28830D01*
X2019Y28854D01*
X2020Y28855D01*
X2023Y28857D01*
X2026Y28860D01*
X2031Y28865D01*
X2037Y28871D01*
X2044Y28878D01*
X2052Y28887D01*
X2060Y28895D01*
X2069Y28905D01*
X2078Y28915D01*
X2095Y28937D01*
X2111Y28959D01*
X2118Y28971D01*
X2124Y28983D01*
X2200D01*
Y28020D01*
D02*
G37*
%LPC*%
G36*
X48502Y38979D02*
X48199D01*
Y38662D01*
X48486D01*
X48493Y38663D01*
X48502D01*
X48511Y38663D01*
X48521Y38664D01*
X48542Y38666D01*
X48565Y38670D01*
X48588Y38674D01*
X48597Y38677D01*
X48607Y38679D01*
X48608D01*
X48609Y38680D01*
X48612Y38682D01*
X48615Y38683D01*
X48619Y38685D01*
X48624Y38687D01*
X48635Y38693D01*
X48647Y38702D01*
X48660Y38711D01*
X48671Y38723D01*
X48682Y38737D01*
Y38738D01*
X48683Y38739D01*
X48684Y38741D01*
X48686Y38744D01*
X48688Y38747D01*
X48690Y38752D01*
X48695Y38763D01*
X48699Y38775D01*
X48703Y38790D01*
X48706Y38806D01*
X48708Y38823D01*
Y38824D01*
Y38826D01*
Y38829D01*
X48707Y38834D01*
X48706Y38840D01*
X48705Y38847D01*
X48703Y38854D01*
X48701Y38863D01*
X48699Y38871D01*
X48695Y38880D01*
X48692Y38890D01*
X48687Y38899D01*
X48680Y38908D01*
X48674Y38917D01*
X48667Y38926D01*
X48658Y38935D01*
X48657Y38935D01*
X48656Y38937D01*
X48652Y38939D01*
X48649Y38942D01*
X48643Y38945D01*
X48636Y38948D01*
X48628Y38953D01*
X48619Y38957D01*
X48610Y38961D01*
X48598Y38965D01*
X48585Y38969D01*
X48571Y38972D01*
X48556Y38975D01*
X48539Y38977D01*
X48521Y38978D01*
X48502Y38979D01*
D02*
G37*
G36*
X16977Y29683D02*
X16674D01*
Y29366D01*
X16961D01*
X16968Y29366D01*
X16977D01*
X16986Y29367D01*
X16997Y29368D01*
X17018Y29370D01*
X17041Y29373D01*
X17063Y29378D01*
X17073Y29380D01*
X17083Y29383D01*
X17083D01*
X17085Y29384D01*
X17087Y29385D01*
X17091Y29387D01*
X17095Y29389D01*
X17099Y29391D01*
X17110Y29397D01*
X17123Y29405D01*
X17135Y29415D01*
X17147Y29427D01*
X17157Y29441D01*
Y29441D01*
X17159Y29443D01*
X17159Y29445D01*
X17162Y29448D01*
X17164Y29451D01*
X17166Y29456D01*
X17171Y29466D01*
X17175Y29479D01*
X17179Y29493D01*
X17182Y29509D01*
X17183Y29527D01*
Y29527D01*
Y29529D01*
Y29533D01*
X17182Y29538D01*
X17182Y29544D01*
X17180Y29550D01*
X17179Y29558D01*
X17177Y29566D01*
X17174Y29574D01*
X17171Y29583D01*
X17167Y29593D01*
X17162Y29602D01*
X17156Y29612D01*
X17150Y29621D01*
X17142Y29630D01*
X17133Y29638D01*
X17132Y29639D01*
X17131Y29640D01*
X17128Y29642D01*
X17124Y29645D01*
X17119Y29649D01*
X17112Y29652D01*
X17104Y29656D01*
X17095Y29660D01*
X17085Y29665D01*
X17074Y29669D01*
X17060Y29672D01*
X17046Y29676D01*
X17031Y29678D01*
X17015Y29681D01*
X16997Y29682D01*
X16977Y29683D01*
D02*
G37*
G36*
X23781Y29373D02*
X23777D01*
X23773Y29372D01*
X23768D01*
X23761Y29371D01*
X23752Y29370D01*
X23744Y29368D01*
X23734Y29366D01*
X23724Y29363D01*
X23713Y29359D01*
X23702Y29354D01*
X23690Y29349D01*
X23679Y29343D01*
X23667Y29334D01*
X23656Y29326D01*
X23646Y29316D01*
X23645Y29315D01*
X23643Y29313D01*
X23641Y29309D01*
X23637Y29305D01*
X23632Y29300D01*
X23628Y29293D01*
X23623Y29284D01*
X23618Y29275D01*
X23613Y29265D01*
X23607Y29254D01*
X23603Y29241D01*
X23599Y29228D01*
X23595Y29214D01*
X23592Y29198D01*
X23591Y29182D01*
X23590Y29166D01*
Y29165D01*
Y29163D01*
Y29160D01*
X23591Y29155D01*
Y29150D01*
X23591Y29144D01*
X23592Y29136D01*
X23594Y29128D01*
X23596Y29110D01*
X23601Y29091D01*
X23607Y29070D01*
X23616Y29049D01*
Y29048D01*
X23617Y29046D01*
X23618Y29043D01*
X23621Y29040D01*
X23623Y29035D01*
X23626Y29030D01*
X23634Y29017D01*
X23644Y29003D01*
X23657Y28990D01*
X23671Y28976D01*
X23687Y28964D01*
X23688D01*
X23689Y28963D01*
X23692Y28961D01*
X23695Y28960D01*
X23700Y28958D01*
X23704Y28955D01*
X23710Y28952D01*
X23717Y28950D01*
X23732Y28945D01*
X23748Y28940D01*
X23766Y28937D01*
X23785Y28936D01*
X23788D01*
X23793Y28936D01*
X23797D01*
X23804Y28938D01*
X23811Y28939D01*
X23820Y28940D01*
X23829Y28943D01*
X23839Y28946D01*
X23849Y28950D01*
X23860Y28955D01*
X23871Y28960D01*
X23881Y28967D01*
X23892Y28976D01*
X23903Y28985D01*
X23913Y28995D01*
X23914Y28996D01*
X23915Y28998D01*
X23918Y29001D01*
X23922Y29006D01*
X23926Y29013D01*
X23931Y29019D01*
X23935Y29028D01*
X23940Y29038D01*
X23945Y29049D01*
X23950Y29062D01*
X23955Y29075D01*
X23959Y29089D01*
X23962Y29105D01*
X23965Y29122D01*
X23967Y29140D01*
X23967Y29159D01*
Y29160D01*
Y29163D01*
Y29169D01*
X23967Y29175D01*
X23966Y29184D01*
X23965Y29193D01*
X23963Y29204D01*
X23960Y29216D01*
X23958Y29228D01*
X23954Y29241D01*
X23950Y29254D01*
X23945Y29267D01*
X23939Y29279D01*
X23931Y29292D01*
X23924Y29304D01*
X23914Y29316D01*
X23913Y29316D01*
X23912Y29318D01*
X23908Y29321D01*
X23904Y29325D01*
X23899Y29329D01*
X23893Y29334D01*
X23885Y29339D01*
X23878Y29345D01*
X23868Y29350D01*
X23858Y29355D01*
X23847Y29360D01*
X23836Y29364D01*
X23823Y29368D01*
X23810Y29370D01*
X23795Y29372D01*
X23781Y29373D01*
D02*
G37*
G36*
X22972Y29708D02*
X22669D01*
Y29391D01*
X22956D01*
X22963Y29392D01*
X22972D01*
X22981Y29392D01*
X22991Y29393D01*
X23012Y29395D01*
X23035Y29399D01*
X23058Y29403D01*
X23067Y29406D01*
X23077Y29408D01*
X23078D01*
X23079Y29409D01*
X23082Y29411D01*
X23085Y29412D01*
X23089Y29414D01*
X23094Y29416D01*
X23105Y29422D01*
X23117Y29431D01*
X23130Y29440D01*
X23141Y29452D01*
X23152Y29466D01*
Y29467D01*
X23153Y29468D01*
X23154Y29470D01*
X23156Y29473D01*
X23158Y29476D01*
X23160Y29481D01*
X23165Y29492D01*
X23169Y29504D01*
X23173Y29519D01*
X23176Y29535D01*
X23177Y29552D01*
Y29553D01*
Y29555D01*
Y29558D01*
X23177Y29563D01*
X23176Y29569D01*
X23175Y29576D01*
X23173Y29583D01*
X23171Y29592D01*
X23168Y29600D01*
X23165Y29609D01*
X23162Y29619D01*
X23157Y29628D01*
X23150Y29637D01*
X23144Y29646D01*
X23137Y29655D01*
X23128Y29664D01*
X23127Y29664D01*
X23125Y29666D01*
X23122Y29668D01*
X23119Y29671D01*
X23113Y29674D01*
X23106Y29677D01*
X23098Y29682D01*
X23089Y29686D01*
X23080Y29690D01*
X23068Y29694D01*
X23055Y29698D01*
X23041Y29701D01*
X23026Y29704D01*
X23009Y29706D01*
X22991Y29707D01*
X22972Y29708D01*
D02*
G37*
G36*
X3109Y34331D02*
X2806D01*
Y34014D01*
X3093D01*
X3100Y34015D01*
X3109D01*
X3118Y34015D01*
X3128Y34016D01*
X3150Y34018D01*
X3173Y34022D01*
X3195Y34026D01*
X3204Y34028D01*
X3214Y34031D01*
X3215D01*
X3216Y34032D01*
X3219Y34033D01*
X3222Y34035D01*
X3227Y34037D01*
X3231Y34039D01*
X3242Y34045D01*
X3254Y34053D01*
X3267Y34063D01*
X3279Y34075D01*
X3289Y34089D01*
Y34089D01*
X3290Y34091D01*
X3291Y34093D01*
X3293Y34096D01*
X3295Y34099D01*
X3297Y34104D01*
X3302Y34114D01*
X3306Y34127D01*
X3311Y34141D01*
X3313Y34157D01*
X3315Y34175D01*
Y34175D01*
Y34178D01*
Y34181D01*
X3314Y34186D01*
X3313Y34192D01*
X3312Y34198D01*
X3311Y34206D01*
X3308Y34214D01*
X3306Y34223D01*
X3302Y34232D01*
X3299Y34241D01*
X3294Y34250D01*
X3288Y34260D01*
X3281Y34269D01*
X3274Y34278D01*
X3265Y34286D01*
X3264Y34287D01*
X3263Y34289D01*
X3259Y34291D01*
X3256Y34293D01*
X3250Y34297D01*
X3243Y34300D01*
X3236Y34304D01*
X3227Y34309D01*
X3217Y34313D01*
X3205Y34317D01*
X3192Y34320D01*
X3178Y34324D01*
X3163Y34327D01*
X3146Y34329D01*
X3128Y34330D01*
X3109Y34331D01*
D02*
G37*
G36*
X18961Y35238D02*
X18660Y34806D01*
X18961D01*
Y35238D01*
D02*
G37*
G36*
X18095Y35321D02*
X17792D01*
Y35005D01*
X18079D01*
X18086Y35005D01*
X18095D01*
X18104Y35006D01*
X18114Y35007D01*
X18136Y35009D01*
X18159Y35012D01*
X18181Y35016D01*
X18190Y35019D01*
X18200Y35022D01*
X18201D01*
X18202Y35023D01*
X18205Y35024D01*
X18208Y35025D01*
X18213Y35027D01*
X18217Y35029D01*
X18228Y35036D01*
X18240Y35044D01*
X18253Y35054D01*
X18265Y35066D01*
X18275Y35079D01*
Y35080D01*
X18276Y35081D01*
X18277Y35084D01*
X18279Y35086D01*
X18281Y35090D01*
X18283Y35095D01*
X18288Y35105D01*
X18292Y35118D01*
X18297Y35132D01*
X18299Y35148D01*
X18301Y35165D01*
Y35166D01*
Y35168D01*
Y35172D01*
X18300Y35176D01*
X18299Y35183D01*
X18298Y35189D01*
X18297Y35197D01*
X18294Y35205D01*
X18292Y35213D01*
X18288Y35222D01*
X18285Y35232D01*
X18280Y35241D01*
X18274Y35251D01*
X18267Y35260D01*
X18260Y35269D01*
X18251Y35277D01*
X18250Y35278D01*
X18249Y35279D01*
X18245Y35281D01*
X18242Y35284D01*
X18236Y35287D01*
X18229Y35291D01*
X18222Y35295D01*
X18213Y35299D01*
X18203Y35303D01*
X18191Y35308D01*
X18178Y35311D01*
X18164Y35314D01*
X18149Y35317D01*
X18132Y35319D01*
X18114Y35321D01*
X18095Y35321D01*
D02*
G37*
G36*
X3109Y39335D02*
X2806D01*
Y39018D01*
X3093D01*
X3100Y39018D01*
X3109D01*
X3118Y39019D01*
X3128Y39020D01*
X3150Y39022D01*
X3173Y39025D01*
X3195Y39029D01*
X3204Y39032D01*
X3214Y39035D01*
X3215D01*
X3216Y39036D01*
X3219Y39037D01*
X3222Y39039D01*
X3227Y39041D01*
X3231Y39043D01*
X3242Y39049D01*
X3254Y39057D01*
X3267Y39067D01*
X3279Y39079D01*
X3289Y39093D01*
Y39093D01*
X3290Y39095D01*
X3291Y39097D01*
X3293Y39100D01*
X3295Y39103D01*
X3297Y39108D01*
X3302Y39118D01*
X3306Y39131D01*
X3311Y39145D01*
X3313Y39161D01*
X3315Y39179D01*
Y39179D01*
Y39181D01*
Y39185D01*
X3314Y39190D01*
X3313Y39196D01*
X3312Y39202D01*
X3311Y39210D01*
X3308Y39218D01*
X3306Y39226D01*
X3302Y39235D01*
X3299Y39245D01*
X3294Y39254D01*
X3288Y39264D01*
X3281Y39273D01*
X3274Y39282D01*
X3265Y39290D01*
X3264Y39291D01*
X3263Y39292D01*
X3259Y39294D01*
X3256Y39297D01*
X3250Y39301D01*
X3243Y39304D01*
X3236Y39308D01*
X3227Y39312D01*
X3217Y39317D01*
X3205Y39321D01*
X3192Y39324D01*
X3178Y39328D01*
X3163Y39330D01*
X3146Y39333D01*
X3128Y39334D01*
X3109Y39335D01*
D02*
G37*
G36*
X39482Y27193D02*
X39179D01*
Y26877D01*
X39466D01*
X39473Y26877D01*
X39482D01*
X39491Y26878D01*
X39501Y26879D01*
X39522Y26881D01*
X39545Y26884D01*
X39568Y26888D01*
X39577Y26891D01*
X39587Y26894D01*
X39588D01*
X39589Y26895D01*
X39592Y26896D01*
X39595Y26897D01*
X39599Y26899D01*
X39604Y26901D01*
X39615Y26908D01*
X39627Y26916D01*
X39640Y26926D01*
X39651Y26938D01*
X39662Y26951D01*
Y26952D01*
X39663Y26953D01*
X39664Y26956D01*
X39666Y26958D01*
X39668Y26962D01*
X39670Y26967D01*
X39675Y26977D01*
X39679Y26990D01*
X39683Y27004D01*
X39686Y27020D01*
X39687Y27037D01*
Y27038D01*
Y27040D01*
Y27044D01*
X39687Y27048D01*
X39686Y27055D01*
X39685Y27061D01*
X39683Y27069D01*
X39681Y27077D01*
X39678Y27085D01*
X39675Y27094D01*
X39672Y27104D01*
X39667Y27113D01*
X39660Y27123D01*
X39654Y27132D01*
X39647Y27141D01*
X39638Y27149D01*
X39637Y27150D01*
X39635Y27151D01*
X39632Y27153D01*
X39629Y27156D01*
X39623Y27159D01*
X39616Y27163D01*
X39608Y27167D01*
X39599Y27171D01*
X39590Y27175D01*
X39578Y27180D01*
X39565Y27183D01*
X39551Y27186D01*
X39536Y27189D01*
X39519Y27191D01*
X39501Y27193D01*
X39482Y27193D01*
D02*
G37*
G36*
X3109Y44313D02*
X2806D01*
Y43996D01*
X3093D01*
X3100Y43997D01*
X3109D01*
X3118Y43997D01*
X3128Y43998D01*
X3150Y44000D01*
X3173Y44004D01*
X3195Y44008D01*
X3204Y44011D01*
X3214Y44013D01*
X3215D01*
X3216Y44014D01*
X3219Y44016D01*
X3222Y44017D01*
X3227Y44019D01*
X3231Y44021D01*
X3242Y44027D01*
X3254Y44036D01*
X3267Y44045D01*
X3279Y44057D01*
X3289Y44071D01*
Y44072D01*
X3290Y44073D01*
X3291Y44075D01*
X3293Y44078D01*
X3295Y44081D01*
X3297Y44086D01*
X3302Y44097D01*
X3306Y44109D01*
X3311Y44124D01*
X3313Y44140D01*
X3315Y44157D01*
Y44158D01*
Y44160D01*
Y44163D01*
X3314Y44168D01*
X3313Y44174D01*
X3312Y44181D01*
X3311Y44188D01*
X3308Y44197D01*
X3306Y44205D01*
X3302Y44214D01*
X3299Y44224D01*
X3294Y44233D01*
X3288Y44242D01*
X3281Y44251D01*
X3274Y44260D01*
X3265Y44269D01*
X3264Y44269D01*
X3263Y44271D01*
X3259Y44273D01*
X3256Y44276D01*
X3250Y44279D01*
X3243Y44282D01*
X3236Y44287D01*
X3227Y44291D01*
X3217Y44295D01*
X3205Y44299D01*
X3192Y44303D01*
X3178Y44306D01*
X3163Y44309D01*
X3146Y44311D01*
X3128Y44312D01*
X3109Y44313D01*
D02*
G37*
G36*
X17490Y43158D02*
X17483D01*
X17476Y43157D01*
X17466Y43156D01*
X17454Y43155D01*
X17440Y43153D01*
X17424Y43149D01*
X17407Y43146D01*
X17389Y43140D01*
X17370Y43134D01*
X17350Y43127D01*
X17331Y43117D01*
X17311Y43106D01*
X17291Y43093D01*
X17272Y43078D01*
X17254Y43061D01*
X17254Y43059D01*
X17250Y43056D01*
X17246Y43050D01*
X17240Y43043D01*
X17233Y43032D01*
X17225Y43020D01*
X17216Y43005D01*
X17208Y42988D01*
X17199Y42968D01*
X17191Y42947D01*
X17182Y42923D01*
X17175Y42898D01*
X17169Y42869D01*
X17165Y42839D01*
X17162Y42806D01*
X17161Y42771D01*
Y42770D01*
Y42769D01*
Y42766D01*
Y42763D01*
X17162Y42758D01*
Y42753D01*
Y42747D01*
X17162Y42740D01*
X17163Y42733D01*
X17164Y42724D01*
X17166Y42706D01*
X17168Y42686D01*
X17173Y42665D01*
X17177Y42642D01*
X17184Y42618D01*
X17191Y42595D01*
X17200Y42570D01*
X17210Y42548D01*
X17223Y42525D01*
X17237Y42503D01*
X17253Y42484D01*
X17254Y42482D01*
X17257Y42480D01*
X17263Y42475D01*
X17270Y42469D01*
X17279Y42461D01*
X17290Y42452D01*
X17303Y42443D01*
X17318Y42434D01*
X17334Y42425D01*
X17352Y42416D01*
X17371Y42407D01*
X17392Y42400D01*
X17415Y42393D01*
X17438Y42388D01*
X17463Y42385D01*
X17490Y42384D01*
X17496D01*
X17501Y42385D01*
X17508D01*
X17514Y42385D01*
X17523Y42386D01*
X17531Y42387D01*
X17541Y42388D01*
X17551Y42390D01*
X17573Y42394D01*
X17595Y42401D01*
X17618Y42409D01*
X17617Y42410D01*
X17615Y42410D01*
X17612Y42412D01*
X17607Y42415D01*
X17602Y42419D01*
X17596Y42422D01*
X17588Y42426D01*
X17580Y42430D01*
X17571Y42435D01*
X17561Y42439D01*
X17540Y42448D01*
X17517Y42457D01*
X17492Y42464D01*
X17524Y42557D01*
X17525D01*
X17528Y42555D01*
X17534Y42553D01*
X17542Y42551D01*
X17551Y42548D01*
X17562Y42543D01*
X17574Y42539D01*
X17587Y42534D01*
X17601Y42527D01*
X17616Y42521D01*
X17631Y42513D01*
X17646Y42505D01*
X17662Y42496D01*
X17676Y42486D01*
X17691Y42475D01*
X17705Y42464D01*
X17706Y42466D01*
X17709Y42469D01*
X17715Y42475D01*
X17722Y42484D01*
X17731Y42494D01*
X17740Y42507D01*
X17750Y42523D01*
X17761Y42541D01*
X17771Y42561D01*
X17781Y42584D01*
X17790Y42609D01*
X17799Y42637D01*
X17806Y42667D01*
X17812Y42699D01*
X17815Y42733D01*
X17817Y42771D01*
Y42772D01*
Y42776D01*
Y42782D01*
X17816Y42790D01*
X17815Y42801D01*
X17815Y42812D01*
X17813Y42826D01*
X17812Y42840D01*
X17810Y42855D01*
X17807Y42871D01*
X17804Y42889D01*
X17800Y42906D01*
X17795Y42923D01*
X17790Y42941D01*
X17784Y42957D01*
X17777Y42974D01*
X17776Y42975D01*
X17775Y42978D01*
X17772Y42982D01*
X17769Y42989D01*
X17765Y42996D01*
X17760Y43005D01*
X17754Y43014D01*
X17747Y43024D01*
X17740Y43034D01*
X17731Y43045D01*
X17722Y43057D01*
X17711Y43068D01*
X17700Y43079D01*
X17688Y43090D01*
X17675Y43100D01*
X17661Y43109D01*
X17660Y43110D01*
X17657Y43111D01*
X17653Y43113D01*
X17648Y43117D01*
X17640Y43120D01*
X17632Y43124D01*
X17622Y43129D01*
X17611Y43134D01*
X17598Y43138D01*
X17585Y43143D01*
X17571Y43147D01*
X17556Y43150D01*
X17541Y43154D01*
X17524Y43156D01*
X17507Y43157D01*
X17490Y43158D01*
D02*
G37*
G36*
X1365Y13623D02*
X1104D01*
Y13280D01*
X1363D01*
X1372Y13280D01*
X1381Y13281D01*
X1393Y13282D01*
X1406Y13284D01*
X1419Y13285D01*
X1448Y13291D01*
X1462Y13294D01*
X1477Y13299D01*
X1491Y13304D01*
X1504Y13310D01*
X1516Y13317D01*
X1526Y13325D01*
X1527Y13326D01*
X1528Y13327D01*
X1531Y13330D01*
X1535Y13334D01*
X1538Y13339D01*
X1543Y13344D01*
X1548Y13351D01*
X1553Y13359D01*
X1557Y13368D01*
X1562Y13377D01*
X1566Y13388D01*
X1570Y13399D01*
X1573Y13411D01*
X1576Y13425D01*
X1577Y13439D01*
X1578Y13454D01*
Y13455D01*
Y13457D01*
Y13460D01*
X1577Y13465D01*
Y13470D01*
X1577Y13476D01*
X1575Y13483D01*
X1575Y13490D01*
X1571Y13506D01*
X1565Y13523D01*
X1558Y13540D01*
X1553Y13549D01*
X1548Y13557D01*
Y13558D01*
X1546Y13559D01*
X1544Y13561D01*
X1542Y13564D01*
X1535Y13572D01*
X1526Y13581D01*
X1514Y13590D01*
X1501Y13599D01*
X1485Y13608D01*
X1467Y13614D01*
X1467D01*
X1466Y13615D01*
X1464D01*
X1461Y13615D01*
X1458Y13616D01*
X1453Y13617D01*
X1447Y13617D01*
X1440Y13619D01*
X1433Y13619D01*
X1424Y13620D01*
X1415Y13621D01*
X1403Y13621D01*
X1392Y13622D01*
X1378D01*
X1365Y13623D01*
D02*
G37*
G36*
X50207Y26018D02*
X49906Y25585D01*
X50207D01*
Y26018D01*
D02*
G37*
G36*
X49371Y26094D02*
X49110D01*
Y25751D01*
X49369D01*
X49378Y25752D01*
X49387Y25752D01*
X49399Y25754D01*
X49412Y25755D01*
X49425Y25757D01*
X49454Y25762D01*
X49468Y25766D01*
X49483Y25770D01*
X49497Y25775D01*
X49510Y25782D01*
X49522Y25788D01*
X49532Y25797D01*
X49533Y25797D01*
X49534Y25799D01*
X49537Y25802D01*
X49541Y25805D01*
X49544Y25810D01*
X49549Y25816D01*
X49554Y25822D01*
X49559Y25830D01*
X49563Y25839D01*
X49568Y25848D01*
X49572Y25859D01*
X49576Y25870D01*
X49579Y25883D01*
X49582Y25897D01*
X49583Y25911D01*
X49584Y25926D01*
Y25926D01*
Y25929D01*
Y25931D01*
X49583Y25936D01*
Y25941D01*
X49583Y25947D01*
X49581Y25954D01*
X49581Y25961D01*
X49577Y25977D01*
X49571Y25994D01*
X49564Y26012D01*
X49559Y26020D01*
X49554Y26028D01*
Y26029D01*
X49552Y26030D01*
X49550Y26033D01*
X49548Y26035D01*
X49541Y26043D01*
X49532Y26052D01*
X49520Y26061D01*
X49507Y26071D01*
X49491Y26079D01*
X49473Y26085D01*
X49473D01*
X49472Y26086D01*
X49470D01*
X49467Y26087D01*
X49464Y26087D01*
X49459Y26088D01*
X49453Y26089D01*
X49446Y26090D01*
X49439Y26091D01*
X49430Y26091D01*
X49421Y26092D01*
X49409Y26093D01*
X49398Y26094D01*
X49384D01*
X49371Y26094D01*
D02*
G37*
G36*
X23615Y5190D02*
X23354D01*
Y4847D01*
X23614D01*
X23622Y4848D01*
X23632Y4848D01*
X23643Y4850D01*
X23656Y4851D01*
X23670Y4852D01*
X23698Y4858D01*
X23713Y4861D01*
X23727Y4866D01*
X23741Y4871D01*
X23754Y4877D01*
X23766Y4884D01*
X23777Y4893D01*
X23777Y4893D01*
X23779Y4895D01*
X23781Y4897D01*
X23785Y4901D01*
X23788Y4906D01*
X23793Y4911D01*
X23798Y4918D01*
X23803Y4926D01*
X23808Y4935D01*
X23812Y4944D01*
X23817Y4955D01*
X23820Y4966D01*
X23824Y4979D01*
X23827Y4992D01*
X23828Y5006D01*
X23829Y5022D01*
Y5022D01*
Y5024D01*
Y5027D01*
X23828Y5032D01*
Y5037D01*
X23827Y5043D01*
X23826Y5050D01*
X23825Y5057D01*
X23821Y5073D01*
X23815Y5090D01*
X23808Y5108D01*
X23804Y5116D01*
X23798Y5124D01*
Y5125D01*
X23797Y5126D01*
X23795Y5128D01*
X23793Y5131D01*
X23786Y5139D01*
X23777Y5148D01*
X23765Y5157D01*
X23752Y5166D01*
X23736Y5175D01*
X23718Y5181D01*
X23717D01*
X23716Y5182D01*
X23714D01*
X23711Y5182D01*
X23708Y5183D01*
X23703Y5184D01*
X23698Y5185D01*
X23691Y5186D01*
X23683Y5187D01*
X23675Y5187D01*
X23665Y5188D01*
X23654Y5189D01*
X23642Y5189D01*
X23629D01*
X23615Y5190D01*
D02*
G37*
G36*
X26866Y43112D02*
X26605D01*
Y42769D01*
X26865D01*
X26873Y42770D01*
X26883Y42770D01*
X26895Y42772D01*
X26907Y42773D01*
X26921Y42775D01*
X26949Y42780D01*
X26964Y42784D01*
X26979Y42788D01*
X26992Y42793D01*
X27006Y42800D01*
X27017Y42806D01*
X27028Y42815D01*
X27028Y42815D01*
X27030Y42817D01*
X27033Y42820D01*
X27036Y42823D01*
X27040Y42828D01*
X27044Y42834D01*
X27049Y42840D01*
X27054Y42848D01*
X27059Y42857D01*
X27063Y42866D01*
X27068Y42877D01*
X27071Y42888D01*
X27075Y42901D01*
X27078Y42915D01*
X27079Y42929D01*
X27080Y42944D01*
Y42944D01*
Y42947D01*
Y42949D01*
X27079Y42954D01*
Y42959D01*
X27078Y42965D01*
X27077Y42972D01*
X27076Y42979D01*
X27072Y42995D01*
X27067Y43012D01*
X27060Y43030D01*
X27055Y43038D01*
X27049Y43046D01*
Y43047D01*
X27048Y43048D01*
X27046Y43051D01*
X27044Y43053D01*
X27037Y43061D01*
X27028Y43070D01*
X27016Y43079D01*
X27003Y43089D01*
X26987Y43097D01*
X26969Y43103D01*
X26968D01*
X26967Y43104D01*
X26965D01*
X26963Y43105D01*
X26959Y43105D01*
X26954Y43106D01*
X26949Y43107D01*
X26942Y43108D01*
X26934Y43109D01*
X26926Y43109D01*
X26916Y43110D01*
X26905Y43111D01*
X26893Y43112D01*
X26880D01*
X26866Y43112D01*
D02*
G37*
G36*
X6368Y13572D02*
X6108D01*
Y13229D01*
X6367D01*
X6375Y13230D01*
X6385Y13230D01*
X6397Y13232D01*
X6409Y13233D01*
X6423Y13234D01*
X6452Y13240D01*
X6466Y13243D01*
X6481Y13248D01*
X6495Y13253D01*
X6508Y13259D01*
X6520Y13266D01*
X6530Y13275D01*
X6531Y13275D01*
X6532Y13277D01*
X6535Y13279D01*
X6538Y13283D01*
X6542Y13288D01*
X6547Y13293D01*
X6551Y13300D01*
X6556Y13308D01*
X6561Y13317D01*
X6565Y13326D01*
X6570Y13337D01*
X6574Y13348D01*
X6577Y13361D01*
X6580Y13374D01*
X6581Y13388D01*
X6582Y13404D01*
Y13404D01*
Y13406D01*
Y13409D01*
X6581Y13414D01*
Y13419D01*
X6581Y13425D01*
X6579Y13432D01*
X6579Y13439D01*
X6574Y13455D01*
X6569Y13472D01*
X6562Y13490D01*
X6557Y13498D01*
X6551Y13506D01*
Y13507D01*
X6550Y13508D01*
X6548Y13510D01*
X6546Y13513D01*
X6539Y13521D01*
X6530Y13530D01*
X6518Y13539D01*
X6505Y13548D01*
X6489Y13557D01*
X6471Y13563D01*
X6470D01*
X6470Y13564D01*
X6468D01*
X6465Y13564D01*
X6461Y13565D01*
X6456Y13566D01*
X6451Y13567D01*
X6444Y13568D01*
X6436Y13569D01*
X6428Y13569D01*
X6418Y13570D01*
X6407Y13571D01*
X6395Y13571D01*
X6382D01*
X6368Y13572D01*
D02*
G37*
%LPD*%
D10*
X54525Y33965D02*
G03*
X54525Y33965I-125J0D01*
G01*
X18625Y41450D02*
G03*
X18625Y41450I-125J0D01*
G01*
X28315Y28920D02*
G03*
X28315Y28920I-125J0D01*
G01*
X38375Y29425D02*
G03*
X38375Y29425I-125J0D01*
G01*
X41725Y2750D02*
G03*
X41725Y2750I-125J0D01*
G01*
D11*
X16966Y36278D02*
G03*
X16966Y40722I1534J2222D01*
G01*
X31365Y29850D02*
G03*
X32635Y29850I635J0D01*
G01*
X47200Y37495D02*
X53800D01*
Y34990D02*
Y37495D01*
Y30505D02*
Y32940D01*
X47200Y30505D02*
Y32940D01*
Y34990D02*
Y37495D01*
X51525Y30505D02*
X53800D01*
X47200D02*
X49475D01*
X16915Y36350D02*
Y40650D01*
X11650Y30250D02*
Y32750D01*
X5350D02*
X11650D01*
X5350Y30250D02*
Y32750D01*
Y30250D02*
X11650D01*
X29350Y10150D02*
X34650D01*
X32635Y29850D02*
X34650D01*
X29350D02*
X31365D01*
X34650Y10150D02*
Y29850D01*
X29350Y10150D02*
Y29850D01*
X20350Y31250D02*
Y33750D01*
Y31250D02*
X26650D01*
Y33750D01*
X20350D02*
X26650D01*
X4250Y16800D02*
X10750D01*
X29270Y36040D02*
Y41500D01*
X26730D02*
X29270D01*
X26730Y36040D02*
Y41500D01*
Y36040D02*
X29270D01*
X8770Y6500D02*
Y11960D01*
X6230D02*
X8770D01*
X6230Y6500D02*
Y11960D01*
Y6500D02*
X8770D01*
X39400Y31000D02*
X41600D01*
X43500Y31900D02*
Y36100D01*
X39400Y37000D02*
X41600D01*
X37500Y31900D02*
Y36100D01*
X24880Y-7270D02*
X25200Y-7070D01*
X24560D02*
X24880Y-7270D01*
X25200Y-7070D02*
Y-1345D01*
X24560Y-7070D02*
Y-1345D01*
X27100Y-7070D02*
Y-1345D01*
X27740Y-7070D02*
Y-1345D01*
X27100Y-7070D02*
X27420Y-7270D01*
X27740Y-7070D01*
X29960Y-7270D02*
X30280Y-7070D01*
X29640D02*
X29960Y-7270D01*
X30280Y-7070D02*
Y-1345D01*
X29640Y-7070D02*
Y-1345D01*
X35040Y-7270D02*
X35360Y-7070D01*
X34720D02*
X35040Y-7270D01*
X35360Y-7070D02*
Y-1345D01*
X34720Y-7070D02*
Y-1345D01*
X41540D02*
Y1345D01*
X23460Y-1345D02*
X41540D01*
X23460D02*
Y1345D01*
X41540D01*
X39800Y-7070D02*
Y-1345D01*
X40440Y-7070D02*
Y-1345D01*
X39800Y-7070D02*
X40120Y-7270D01*
X40440Y-7070D01*
X37260D02*
Y-1345D01*
X37900Y-7070D02*
Y-1345D01*
X37260Y-7070D02*
X37580Y-7270D01*
X37900Y-7070D01*
X32180D02*
Y-1345D01*
X32820Y-7070D02*
Y-1345D01*
X32180Y-7070D02*
X32500Y-7270D01*
X32820Y-7070D01*
X5350Y40250D02*
Y42750D01*
Y40250D02*
X11650D01*
Y42750D01*
X5350D02*
X11650D01*
X39250Y16850D02*
X41750D01*
Y23150D01*
X39250D02*
X41750D01*
X39250Y16850D02*
Y23150D01*
X49230Y24500D02*
X51770D01*
Y13960D02*
Y24500D01*
X49230Y13960D02*
X51770D01*
X49230D02*
Y24500D01*
X11650Y35250D02*
Y37750D01*
X5350D02*
X11650D01*
X5350Y35250D02*
Y37750D01*
Y35250D02*
X11650D01*
X1230Y1460D02*
X3770D01*
X1230D02*
Y12000D01*
X3770D01*
Y1460D02*
Y12000D01*
X22750Y25650D02*
X25250D01*
X22750Y19350D02*
Y25650D01*
Y19350D02*
X25250D01*
Y25650D01*
X16750Y19350D02*
X19250D01*
Y25650D01*
X16750D02*
X19250D01*
X16750Y19350D02*
Y25650D01*
D12*
X30650Y28850D02*
G03*
X30650Y28850I-300J0D01*
G01*
D13*
X14000Y22000D02*
G03*
X14000Y22000I-6500J0D01*
G01*
D14*
X9379Y7516D02*
X10395D01*
X9887Y8024D02*
Y7008D01*
X11918Y6754D02*
X10903D01*
X11918Y7770D01*
Y8024D01*
X11664Y8278D01*
X11156D01*
X10903Y8024D01*
X13188Y6754D02*
Y8278D01*
X12426Y7516D01*
X13442D01*
X10395Y11024D02*
X10141Y11278D01*
X9633D01*
X9379Y11024D01*
Y10008D01*
X9633Y9754D01*
X10141D01*
X10395Y10008D01*
Y10516D01*
X9887D01*
X10903Y9754D02*
Y11278D01*
X11918Y9754D01*
Y11278D01*
X12426D02*
Y9754D01*
X13188D01*
X13442Y10008D01*
Y11024D01*
X13188Y11278D01*
X12426D01*
X42254Y2516D02*
X43270D01*
X42762Y3024D02*
Y2008D01*
X44793Y3278D02*
X43778D01*
Y2516D01*
X44285Y2770D01*
X44539D01*
X44793Y2516D01*
Y2008D01*
X44539Y1754D01*
X44031D01*
X43778Y2008D01*
X47754Y12778D02*
Y11254D01*
X48516D01*
X48770Y11508D01*
Y12524D01*
X48516Y12778D01*
X47754D01*
X49278D02*
X49785D01*
X49531D01*
Y11254D01*
X49278D01*
X49785D01*
X51563Y12524D02*
X51309Y12778D01*
X50801D01*
X50547Y12524D01*
Y12270D01*
X50801Y12016D01*
X51309D01*
X51563Y11762D01*
Y11508D01*
X51309Y11254D01*
X50801D01*
X50547Y11508D01*
X52071Y11254D02*
Y12778D01*
X52832D01*
X53086Y12524D01*
Y12016D01*
X52832Y11762D01*
X52071D01*
X23629Y37516D02*
X24645D01*
X24137Y38024D02*
Y37008D01*
X26168Y38278D02*
X25153D01*
Y37516D01*
X25660Y37770D01*
X25914D01*
X26168Y37516D01*
Y37008D01*
X25914Y36754D01*
X25406D01*
X25153Y37008D01*
X23145Y40524D02*
X22891Y40778D01*
X22383D01*
X22129Y40524D01*
Y39508D01*
X22383Y39254D01*
X22891D01*
X23145Y39508D01*
Y40016D01*
X22637D01*
X23653Y39254D02*
Y40778D01*
X24668Y39254D01*
Y40778D01*
X25176D02*
Y39254D01*
X25938D01*
X26192Y39508D01*
Y40524D01*
X25938Y40778D01*
X25176D01*
M02*
