G04*
G04 #@! TF.GenerationSoftware,Altium Limited,Altium Designer,26.6.0 (10)*
G04*
G04 Layer_Color=32768*
G04 Board_Origin=12165354|10000000*
%FSLAX43Y43*%
%MOMM*%
G71*
G04*
G04 #@! TF.SameCoordinates,0C82E001-9655-4BCD-8518-51B5F1C42B65*
G04*
G04*
G04 #@! TF.FilePolarity,Positive*
G04*
G01*
G75*
%ADD27C,0.100*%
D27*
X24560Y-7070D02*
X24880Y-7270D01*
X25200Y-7070D01*
X27420Y-7270D02*
X27740Y-7070D01*
X27100D02*
X27420Y-7270D01*
X29640Y-7070D02*
X29960Y-7270D01*
X30280Y-7070D01*
X32180D02*
X32500Y-7270D01*
X32820Y-7070D01*
X24560D02*
Y-1270D01*
X25200Y-7070D02*
Y-1270D01*
X27740Y-7070D02*
Y-1270D01*
X27100Y-7070D02*
Y-1270D01*
X29640Y-7070D02*
Y-1270D01*
X30280Y-7070D02*
Y-1270D01*
X32180Y-7070D02*
Y-1270D01*
X32820Y-7070D02*
Y-1270D01*
X23610D02*
X41390D01*
X23610D02*
Y1270D01*
X41390D01*
X32180D02*
Y3090D01*
X29640Y1270D02*
Y3090D01*
X30280Y1270D02*
Y3090D01*
X27100Y1270D02*
Y3090D01*
X27740Y1270D02*
Y3090D01*
X24560Y1270D02*
Y3090D01*
X25200Y1270D02*
Y3090D01*
X32820Y1270D02*
Y3090D01*
X29640D02*
X30280D01*
X27100D02*
X27740D01*
X24560D02*
X25200D01*
X32180D02*
X32820D01*
X34720Y-7070D02*
X35040Y-7270D01*
X35360Y-7070D01*
X37260D02*
X37580Y-7270D01*
X37900Y-7070D01*
X39800D02*
X40120Y-7270D01*
X40440Y-7070D01*
X34720D02*
Y-1270D01*
X35360Y-7070D02*
Y-1270D01*
X37260Y-7070D02*
Y-1270D01*
X37900Y-7070D02*
Y-1270D01*
X39800Y-7070D02*
Y-1270D01*
X40440Y-7070D02*
Y-1270D01*
X41390D02*
Y1270D01*
X34720D02*
Y3090D01*
X35360Y1270D02*
Y3090D01*
X37260Y1270D02*
Y3090D01*
X37900Y1270D02*
Y3090D01*
X39800Y1270D02*
Y3090D01*
X40440Y1270D02*
Y3090D01*
X34720D02*
X35360D01*
X37260D02*
X37900D01*
X39800D02*
X40440D01*
M02*
