G04*
G04 #@! TF.GenerationSoftware,Altium Limited,Altium Designer,26.6.0 (10)*
G04*
G04 Layer_Color=32768*
G04 Board_Origin=12165354|10000000*
%FSLAX43Y43*%
%MOMM*%
G71*
G04*
G04 #@! TF.SameCoordinates,0C82E001-9655-4BCD-8518-51B5F1C42B65*
G04*
G04*
G04 #@! TF.FilePolarity,Positive*
G04*
G01*
G75*
%ADD11C,0.200*%
%ADD27C,0.100*%
%ADD28C,0.050*%
D11*
X7500Y15400D02*
G03*
X7500Y28600I0J6600D01*
G01*
D02*
G03*
X7500Y15400I0J-6600D01*
G01*
X14225Y30150D02*
Y32850D01*
X2775D02*
X14225D01*
X2775Y30150D02*
Y32850D01*
Y30150D02*
X14225D01*
X17775Y31150D02*
Y33850D01*
Y31150D02*
X29225D01*
Y33850D01*
X17775D02*
X29225D01*
X37375Y29875D02*
X43625D01*
Y38125D01*
X37375D02*
X43625D01*
X37375Y29875D02*
Y38125D01*
X2775Y40150D02*
Y42850D01*
Y40150D02*
X14225D01*
Y42850D01*
X2775D02*
X14225D01*
X39150Y14275D02*
X41850D01*
Y25725D01*
X39150D02*
X41850D01*
X39150Y14275D02*
Y25725D01*
X14225Y35150D02*
Y37850D01*
X2775D02*
X14225D01*
X2775Y35150D02*
Y37850D01*
Y35150D02*
X14225D01*
X22650Y28225D02*
X25350D01*
X22650Y16775D02*
Y28225D01*
Y16775D02*
X25350D01*
Y28225D01*
X16650Y16775D02*
X19350D01*
Y28225D01*
X16650D02*
X19350D01*
X16650Y16775D02*
Y28225D01*
D27*
X50500Y33500D02*
Y34500D01*
X50000Y34000D02*
X51000D01*
X18000Y38500D02*
X19000D01*
X18500Y38000D02*
Y39000D01*
X32000Y19500D02*
Y20500D01*
X31500Y20000D02*
X32500D01*
D28*
X47100Y30405D02*
Y37595D01*
X53900Y30405D02*
Y37595D01*
X47100D02*
X53900D01*
X47100Y30405D02*
X53900D01*
X17065Y36050D02*
Y40950D01*
Y36050D02*
X20950D01*
X17065Y40950D02*
X20950D01*
Y36050D02*
Y40950D01*
X29495Y35815D02*
Y41725D01*
X26505D02*
X29495D01*
X26505Y35815D02*
Y41725D01*
Y35815D02*
X29495D01*
X8995Y6275D02*
Y12185D01*
X6005D02*
X8995D01*
X6005Y6275D02*
Y12185D01*
Y6275D02*
X8995D01*
X23260Y3795D02*
X41740D01*
Y-7470D02*
Y3795D01*
X23260Y-7470D02*
X41740D01*
X23260D02*
Y3795D01*
X49005Y24725D02*
X51995D01*
Y13735D02*
Y24725D01*
X49005Y13735D02*
X51995D01*
X49005D02*
Y24725D01*
X1005Y1235D02*
X3995D01*
X1005D02*
Y12225D01*
X3995D01*
Y1235D02*
Y12225D01*
M02*
