G04*
G04 #@! TF.GenerationSoftware,Altium Limited,Altium Designer,26.6.0 (10)*
G04*
G04 Layer_Physical_Order=1*
G04 Layer_Color=255*
G04 Board_Origin=12165354|10000000*
%FSLAX43Y43*%
%MOMM*%
G71*
G04*
G04 #@! TF.SameCoordinates,0C82E001-9655-4BCD-8518-51B5F1C42B65*
G04*
G04*
G04 #@! TF.FilePolarity,Positive*
G04*
G01*
G75*
%ADD14C,0.254*%
%ADD15C,1.250*%
%ADD16R,1.250X1.250*%
%ADD17C,1.050*%
%ADD18R,1.050X1.050*%
%ADD19C,1.500*%
%ADD20R,1.550X1.550*%
%ADD21R,1.250X1.250*%
%ADD22C,1.650*%
%ADD23R,1.500X1.500*%
%ADD24C,1.550*%
G04:AMPARAMS|DCode=25|XSize=1.65mm|YSize=1.65mm|CornerRadius=0.413mm|HoleSize=0mm|Usage=FLASHONLY|Rotation=0.000|XOffset=0mm|YOffset=0mm|HoleType=Round|Shape=RoundedRectangle|*
%AMROUNDEDRECTD25*
21,1,1.650,0.825,0,0,0.0*
21,1,0.825,1.650,0,0,0.0*
1,1,0.825,0.413,-0.413*
1,1,0.825,-0.413,-0.413*
1,1,0.825,-0.413,0.413*
1,1,0.825,0.413,0.413*
%
%ADD25ROUNDEDRECTD25*%
%ADD26C,0.500*%
D14*
X21000Y41500D02*
X21500Y41000D01*
X13500Y41500D02*
X21000D01*
X13500Y41500D02*
X13500Y41500D01*
X19500Y40000D02*
X20000Y39500D01*
X18500Y40000D02*
X19500D01*
X20000Y34000D02*
Y39500D01*
X20500Y22000D02*
Y28000D01*
X22500Y20000D02*
X28190D01*
X20500Y22000D02*
X22500Y20000D01*
X18500Y32500D02*
X20000Y34000D01*
X18500Y30000D02*
X20500Y28000D01*
X18500Y30000D02*
Y32500D01*
X16500Y38500D02*
X18500D01*
X15500Y37500D02*
X16500Y38500D01*
X15500Y34500D02*
Y37500D01*
X18000Y27500D02*
Y29000D01*
X13500Y27500D02*
Y31500D01*
X15500D02*
X18000Y29000D01*
X13500Y32500D02*
X15500Y34500D01*
X13500Y31500D02*
X15500D01*
X13500D02*
Y32500D01*
X10500Y24500D02*
X13500Y27500D01*
X7500Y24500D02*
X10500D01*
X6000Y34000D02*
X11000D01*
X13500Y36500D01*
X3500Y31500D02*
X6000Y34000D01*
X13960Y5460D02*
X24000Y15500D01*
Y17500D01*
X2500Y5460D02*
X13960D01*
X46500Y20500D02*
X50500D01*
X44500Y18500D02*
X46500Y20500D01*
X41930Y18500D02*
X44500D01*
X35810Y12380D02*
X41930Y18500D01*
X46540Y23040D02*
X50500D01*
X44000Y20500D02*
X46540Y23040D01*
X41390Y20500D02*
X44000D01*
X35810Y14920D02*
X41390Y20500D01*
X35810Y25080D02*
X38250Y27520D01*
Y30750D01*
X35810Y22540D02*
X41615D01*
X50500Y31425D01*
X2500Y2920D02*
X2580Y3000D01*
X18810D01*
X28190Y12380D01*
X24000Y17500D02*
X24020Y17480D01*
X28170D01*
X28190Y17460D01*
X21500Y27000D02*
Y41000D01*
Y27000D02*
X22011Y26489D01*
X3500Y36500D02*
Y41500D01*
X22011Y26489D02*
X29136D01*
X29147Y26500D01*
X31000D01*
X31500Y26000D01*
Y26000D02*
Y26000D01*
Y26000D02*
X32420Y25080D01*
X35810D01*
X40460Y25040D02*
X40500Y25000D01*
X35850Y25040D02*
X40460D01*
X35810Y25080D02*
X35850Y25040D01*
X29960Y2770D02*
X31000Y3810D01*
Y22270D01*
X28190Y25080D02*
X31000Y22270D01*
X28380Y21409D02*
X29829Y19960D01*
X29321Y7211D02*
Y13789D01*
X29829Y5179D02*
Y19960D01*
X24880Y2770D02*
X29321Y7211D01*
X28190Y14920D02*
X29321Y13789D01*
X27420Y2770D02*
X29829Y5179D01*
X28380Y21409D02*
Y22350D01*
X28190Y22540D02*
X28380Y22350D01*
X32500Y2770D02*
Y16690D01*
X35810Y20000D01*
X35040Y2770D02*
Y3148D01*
X34679Y3509D02*
X35040Y3148D01*
X34679Y3509D02*
Y16329D01*
X35810Y17460D01*
D15*
X50500Y31425D02*
D03*
X47960Y33965D02*
D03*
X18000Y27500D02*
D03*
X7500Y24500D02*
D03*
X3500Y31500D02*
D03*
X28500Y32500D02*
D03*
X13500Y41500D02*
D03*
X40500Y25000D02*
D03*
X3500Y36500D02*
D03*
X24000Y17500D02*
D03*
D16*
X53040Y33965D02*
D03*
X18500Y32500D02*
D03*
X13500Y31500D02*
D03*
Y36500D02*
D03*
X3500Y41500D02*
D03*
D17*
X18500Y37000D02*
D03*
Y38500D02*
D03*
D18*
Y40000D02*
D03*
D19*
X28190Y20000D02*
D03*
X35810Y27620D02*
D03*
Y12380D02*
D03*
Y14920D02*
D03*
Y17460D02*
D03*
Y20000D02*
D03*
Y22540D02*
D03*
Y25080D02*
D03*
X28190Y12380D02*
D03*
Y14920D02*
D03*
Y17460D02*
D03*
Y22540D02*
D03*
Y25080D02*
D03*
D20*
X28000Y40040D02*
D03*
X50500Y15420D02*
D03*
X7500Y10500D02*
D03*
X2500Y10540D02*
D03*
X38250Y30750D02*
D03*
D21*
X40500Y15000D02*
D03*
X18000Y17500D02*
D03*
X7500Y19500D02*
D03*
X24000Y27500D02*
D03*
D22*
X37580Y2770D02*
D03*
X24880D02*
D03*
X27420D02*
D03*
X29960D02*
D03*
X32500D02*
D03*
X35040D02*
D03*
D23*
X28190Y27620D02*
D03*
D24*
X28000Y37500D02*
D03*
X7500Y7960D02*
D03*
X42750Y37250D02*
D03*
Y30750D02*
D03*
X38250Y37250D02*
D03*
X50500Y17960D02*
D03*
Y20500D02*
D03*
Y23040D02*
D03*
X2500Y8000D02*
D03*
Y5460D02*
D03*
Y2920D02*
D03*
D25*
X40120Y2770D02*
D03*
D26*
X28000Y33203D02*
Y37500D01*
X37966Y37250D02*
X38250D01*
X37716Y37500D02*
X37966Y37250D01*
X28000Y37500D02*
X37716D01*
X25424Y37299D02*
X27799D01*
X24000Y35875D02*
X25424Y37299D01*
X24000Y27500D02*
Y35875D01*
X28190Y27620D02*
X28500Y27930D01*
Y32500D01*
Y32703D01*
X28000Y33203D02*
X28500Y32703D01*
X27799Y37299D02*
X28000Y37500D01*
X50500Y17960D02*
X53040Y20500D01*
Y33965D01*
X40120Y2770D02*
Y7580D01*
X50500Y17960D01*
X48005Y39000D02*
X53040Y33965D01*
X40000Y39000D02*
X48005D01*
X38250Y37250D02*
X40000Y39000D01*
X7480Y7980D02*
X7500Y7960D01*
X2520Y7980D02*
X7480D01*
X2500Y8000D02*
X2520Y7980D01*
M02*
