G04*
G04 #@! TF.GenerationSoftware,Altium Limited,Altium Designer,26.6.0 (10)*
G04*
G04 Layer_Physical_Order=2*
G04 Layer_Color=16711680*
G04 Board_Origin=12165354|10000000*
%FSLAX43Y43*%
%MOMM*%
G71*
G04*
G04 #@! TF.SameCoordinates,0C82E001-9655-4BCD-8518-51B5F1C42B65*
G04*
G04*
G04 #@! TF.FilePolarity,Positive*
G04*
G01*
G75*
%ADD15C,1.250*%
%ADD16R,1.250X1.250*%
%ADD17C,1.050*%
%ADD18R,1.050X1.050*%
%ADD19C,1.500*%
%ADD20R,1.550X1.550*%
%ADD21R,1.250X1.250*%
%ADD22C,1.650*%
%ADD23R,1.500X1.500*%
%ADD24C,1.550*%
G04:AMPARAMS|DCode=25|XSize=1.65mm|YSize=1.65mm|CornerRadius=0.413mm|HoleSize=0mm|Usage=FLASHONLY|Rotation=0.000|XOffset=0mm|YOffset=0mm|HoleType=Round|Shape=RoundedRectangle|*
%AMROUNDEDRECTD25*
21,1,1.650,0.825,0,0,0.0*
21,1,0.825,1.650,0,0,0.0*
1,1,0.825,0.413,-0.413*
1,1,0.825,-0.413,-0.413*
1,1,0.825,-0.413,0.413*
1,1,0.825,0.413,0.413*
%
%ADD25ROUNDEDRECTD25*%
G36*
X55000Y0D02*
X0D01*
Y45000D01*
X55000D01*
Y0D01*
D02*
G37*
%LPC*%
G36*
X13616Y42379D02*
X13384D01*
X13161Y42319D01*
X12960Y42203D01*
X12797Y42040D01*
X12681Y41839D01*
X12621Y41616D01*
Y41384D01*
X12681Y41161D01*
X12797Y40960D01*
X12960Y40797D01*
X13161Y40681D01*
X13384Y40621D01*
X13616D01*
X13839Y40681D01*
X14040Y40797D01*
X14203Y40960D01*
X14319Y41161D01*
X14379Y41384D01*
Y41616D01*
X14319Y41839D01*
X14203Y42040D01*
X14040Y42203D01*
X13839Y42319D01*
X13616Y42379D01*
D02*
G37*
G36*
X4379D02*
X2621D01*
Y40621D01*
X4379D01*
Y42379D01*
D02*
G37*
G36*
X29029Y41069D02*
X28127D01*
Y40167D01*
X29029D01*
Y41069D01*
D02*
G37*
G36*
X27873D02*
X26971D01*
Y40167D01*
X27873D01*
Y41069D01*
D02*
G37*
G36*
X19279Y40779D02*
X17721D01*
Y39221D01*
X17721Y39221D01*
X17753Y38721D01*
X17721Y38603D01*
Y38397D01*
X17774Y38199D01*
X17877Y38022D01*
X17976Y37750D01*
X17877Y37478D01*
X17774Y37301D01*
X17728Y37127D01*
X18500D01*
X19272D01*
X19226Y37301D01*
X19123Y37478D01*
X19024Y37750D01*
X19123Y38022D01*
X19226Y38199D01*
X19279Y38397D01*
Y38603D01*
X19247Y38721D01*
X19279Y39221D01*
X19279D01*
Y40779D01*
D02*
G37*
G36*
X29029Y39913D02*
X28000D01*
X26971D01*
Y39011D01*
X27299D01*
X27748Y38887D01*
X27748Y38887D01*
X27748D01*
X27797Y38511D01*
X27729Y38493D01*
X27603Y38459D01*
X27368Y38323D01*
X27177Y38132D01*
X27041Y37897D01*
X26971Y37635D01*
Y37365D01*
X27041Y37103D01*
X27177Y36868D01*
X27368Y36677D01*
X27603Y36541D01*
X27865Y36471D01*
X28135D01*
X28397Y36541D01*
X28632Y36677D01*
X28823Y36868D01*
X28959Y37103D01*
X29029Y37365D01*
Y37635D01*
X28959Y37897D01*
X28823Y38132D01*
X28632Y38323D01*
X28397Y38459D01*
X28271Y38493D01*
X28203Y38511D01*
X28252Y38887D01*
X28252D01*
X28252Y38887D01*
X28701Y39011D01*
X29029D01*
Y39913D01*
D02*
G37*
G36*
X19272Y36873D02*
X18627D01*
Y36228D01*
X18801Y36274D01*
X18978Y36377D01*
X19123Y36522D01*
X19226Y36699D01*
X19272Y36873D01*
D02*
G37*
G36*
X18373D02*
X17728D01*
X17774Y36699D01*
X17877Y36522D01*
X18022Y36377D01*
X18199Y36274D01*
X18373Y36228D01*
Y36873D01*
D02*
G37*
G36*
X42885Y38279D02*
X42615D01*
X42353Y38209D01*
X42118Y38073D01*
X41927Y37882D01*
X41791Y37647D01*
X41721Y37385D01*
Y37115D01*
X41791Y36853D01*
X41927Y36618D01*
X42118Y36427D01*
X42353Y36291D01*
X42615Y36221D01*
X42885D01*
X43147Y36291D01*
X43382Y36427D01*
X43573Y36618D01*
X43709Y36853D01*
X43779Y37115D01*
Y37385D01*
X43709Y37647D01*
X43573Y37882D01*
X43382Y38073D01*
X43147Y38209D01*
X42885Y38279D01*
D02*
G37*
G36*
X38385D02*
X38115D01*
X37853Y38209D01*
X37618Y38073D01*
X37427Y37882D01*
X37291Y37647D01*
X37221Y37385D01*
Y37115D01*
X37291Y36853D01*
X37427Y36618D01*
X37618Y36427D01*
X37853Y36291D01*
X38115Y36221D01*
X38385D01*
X38647Y36291D01*
X38882Y36427D01*
X39073Y36618D01*
X39209Y36853D01*
X39279Y37115D01*
Y37385D01*
X39209Y37647D01*
X39073Y37882D01*
X38882Y38073D01*
X38647Y38209D01*
X38385Y38279D01*
D02*
G37*
G36*
X14379Y37379D02*
X12621D01*
Y35621D01*
X14379D01*
Y37379D01*
D02*
G37*
G36*
X3616D02*
X3384D01*
X3161Y37319D01*
X2960Y37203D01*
X2797Y37040D01*
X2681Y36839D01*
X2621Y36616D01*
Y36384D01*
X2681Y36161D01*
X2797Y35960D01*
X2960Y35797D01*
X3161Y35681D01*
X3384Y35621D01*
X3616D01*
X3839Y35681D01*
X4040Y35797D01*
X4203Y35960D01*
X4319Y36161D01*
X4379Y36384D01*
Y36616D01*
X4319Y36839D01*
X4203Y37040D01*
X4040Y37203D01*
X3839Y37319D01*
X3616Y37379D01*
D02*
G37*
G36*
X48087Y34841D02*
Y34092D01*
X48836D01*
X48779Y34304D01*
X48663Y34505D01*
X48500Y34668D01*
X48299Y34784D01*
X48087Y34841D01*
D02*
G37*
G36*
X47833D02*
X47621Y34784D01*
X47420Y34668D01*
X47257Y34505D01*
X47141Y34304D01*
X47084Y34092D01*
X47833D01*
Y34841D01*
D02*
G37*
G36*
X48836Y33838D02*
X48087D01*
Y33089D01*
X48299Y33146D01*
X48500Y33262D01*
X48663Y33425D01*
X48779Y33626D01*
X48836Y33838D01*
D02*
G37*
G36*
X47833D02*
X47084D01*
X47141Y33626D01*
X47257Y33425D01*
X47420Y33262D01*
X47621Y33146D01*
X47833Y33089D01*
Y33838D01*
D02*
G37*
G36*
X53919Y34844D02*
X52161D01*
Y33086D01*
X53919D01*
Y34844D01*
D02*
G37*
G36*
X28616Y33379D02*
X28384D01*
X28161Y33319D01*
X27960Y33203D01*
X27797Y33040D01*
X27681Y32839D01*
X27621Y32616D01*
Y32384D01*
X27681Y32161D01*
X27797Y31960D01*
X27960Y31797D01*
X28161Y31681D01*
X28384Y31621D01*
X28616D01*
X28839Y31681D01*
X29040Y31797D01*
X29203Y31960D01*
X29319Y32161D01*
X29379Y32384D01*
Y32616D01*
X29319Y32839D01*
X29203Y33040D01*
X29040Y33203D01*
X28839Y33319D01*
X28616Y33379D01*
D02*
G37*
G36*
X19379D02*
X17621D01*
Y31621D01*
X19379D01*
Y33379D01*
D02*
G37*
G36*
X14379Y32379D02*
X12621D01*
Y30621D01*
X14379D01*
Y32379D01*
D02*
G37*
G36*
X3616D02*
X3384D01*
X3161Y32319D01*
X2960Y32203D01*
X2797Y32040D01*
X2681Y31839D01*
X2621Y31616D01*
Y31384D01*
X2681Y31161D01*
X2797Y30960D01*
X2960Y30797D01*
X3161Y30681D01*
X3384Y30621D01*
X3616D01*
X3839Y30681D01*
X4040Y30797D01*
X4203Y30960D01*
X4319Y31161D01*
X4379Y31384D01*
Y31616D01*
X4319Y31839D01*
X4203Y32040D01*
X4040Y32203D01*
X3839Y32319D01*
X3616Y32379D01*
D02*
G37*
G36*
X50616Y32304D02*
X50384D01*
X50161Y32244D01*
X49960Y32128D01*
X49797Y31965D01*
X49681Y31764D01*
X49621Y31541D01*
Y31309D01*
X49681Y31086D01*
X49797Y30885D01*
X49960Y30722D01*
X50161Y30606D01*
X50384Y30546D01*
X50616D01*
X50839Y30606D01*
X51040Y30722D01*
X51203Y30885D01*
X51319Y31086D01*
X51379Y31309D01*
Y31541D01*
X51319Y31764D01*
X51203Y31965D01*
X51040Y32128D01*
X50839Y32244D01*
X50616Y32304D01*
D02*
G37*
G36*
X42885Y31779D02*
X42615D01*
X42353Y31709D01*
X42118Y31573D01*
X41927Y31382D01*
X41791Y31147D01*
X41721Y30885D01*
Y30615D01*
X41791Y30353D01*
X41927Y30118D01*
X42118Y29927D01*
X42353Y29791D01*
X42615Y29721D01*
X42885D01*
X43147Y29791D01*
X43382Y29927D01*
X43573Y30118D01*
X43709Y30353D01*
X43779Y30615D01*
Y30885D01*
X43709Y31147D01*
X43573Y31382D01*
X43382Y31573D01*
X43147Y31709D01*
X42885Y31779D01*
D02*
G37*
G36*
X39279D02*
X37221D01*
Y29721D01*
X39279D01*
Y31779D01*
D02*
G37*
G36*
X35942Y28624D02*
X35937D01*
Y27747D01*
X36814D01*
Y27752D01*
X36746Y28008D01*
X36613Y28236D01*
X36426Y28423D01*
X36198Y28556D01*
X35942Y28624D01*
D02*
G37*
G36*
X35683D02*
X35678D01*
X35422Y28556D01*
X35194Y28423D01*
X35007Y28236D01*
X34874Y28008D01*
X34806Y27752D01*
Y27747D01*
X35683D01*
Y28624D01*
D02*
G37*
G36*
X24879Y28379D02*
X23121D01*
Y26621D01*
X24879D01*
Y28379D01*
D02*
G37*
G36*
X18116D02*
X17884D01*
X17661Y28319D01*
X17460Y28203D01*
X17297Y28040D01*
X17181Y27839D01*
X17121Y27616D01*
Y27384D01*
X17181Y27161D01*
X17297Y26960D01*
X17460Y26797D01*
X17661Y26681D01*
X17884Y26621D01*
X18116D01*
X18339Y26681D01*
X18540Y26797D01*
X18703Y26960D01*
X18819Y27161D01*
X18879Y27384D01*
Y27616D01*
X18819Y27839D01*
X18703Y28040D01*
X18540Y28203D01*
X18339Y28319D01*
X18116Y28379D01*
D02*
G37*
G36*
X36814Y27493D02*
X35937D01*
Y26616D01*
X35942D01*
X36198Y26684D01*
X36426Y26817D01*
X36613Y27004D01*
X36746Y27232D01*
X36814Y27488D01*
Y27493D01*
D02*
G37*
G36*
X35683D02*
X34806D01*
Y27488D01*
X34874Y27232D01*
X35007Y27004D01*
X35194Y26817D01*
X35422Y26684D01*
X35678Y26616D01*
X35683D01*
Y27493D01*
D02*
G37*
G36*
X29194Y28624D02*
X27186D01*
Y26616D01*
X29194D01*
Y28624D01*
D02*
G37*
G36*
X40616Y25879D02*
X40384D01*
X40161Y25819D01*
X39960Y25703D01*
X39797Y25540D01*
X39681Y25339D01*
X39621Y25116D01*
Y24884D01*
X39681Y24661D01*
X39797Y24460D01*
X39960Y24297D01*
X40161Y24181D01*
X40384Y24121D01*
X40616D01*
X40839Y24181D01*
X41040Y24297D01*
X41203Y24460D01*
X41319Y24661D01*
X41379Y24884D01*
Y25116D01*
X41319Y25339D01*
X41203Y25540D01*
X41040Y25703D01*
X40839Y25819D01*
X40616Y25879D01*
D02*
G37*
G36*
X35942Y26084D02*
X35678D01*
X35422Y26016D01*
X35194Y25883D01*
X35007Y25696D01*
X34874Y25468D01*
X34806Y25212D01*
Y24948D01*
X34874Y24692D01*
X35007Y24464D01*
X35194Y24277D01*
X35422Y24144D01*
X35678Y24076D01*
X35942D01*
X36198Y24144D01*
X36426Y24277D01*
X36613Y24464D01*
X36746Y24692D01*
X36814Y24948D01*
Y25212D01*
X36746Y25468D01*
X36613Y25696D01*
X36426Y25883D01*
X36198Y26016D01*
X35942Y26084D01*
D02*
G37*
G36*
X28322D02*
X28058D01*
X27802Y26016D01*
X27574Y25883D01*
X27387Y25696D01*
X27254Y25468D01*
X27186Y25212D01*
Y24948D01*
X27254Y24692D01*
X27387Y24464D01*
X27574Y24277D01*
X27802Y24144D01*
X28058Y24076D01*
X28322D01*
X28578Y24144D01*
X28806Y24277D01*
X28993Y24464D01*
X29126Y24692D01*
X29194Y24948D01*
Y25212D01*
X29126Y25468D01*
X28993Y25696D01*
X28806Y25883D01*
X28578Y26016D01*
X28322Y26084D01*
D02*
G37*
G36*
X7616Y25379D02*
X7384D01*
X7161Y25319D01*
X6960Y25203D01*
X6797Y25040D01*
X6681Y24839D01*
X6621Y24616D01*
Y24384D01*
X6681Y24161D01*
X6797Y23960D01*
X6960Y23797D01*
X7161Y23681D01*
X7384Y23621D01*
X7616D01*
X7839Y23681D01*
X8040Y23797D01*
X8203Y23960D01*
X8319Y24161D01*
X8379Y24384D01*
Y24616D01*
X8319Y24839D01*
X8203Y25040D01*
X8040Y25203D01*
X7839Y25319D01*
X7616Y25379D01*
D02*
G37*
G36*
X35942Y23544D02*
X35678D01*
X35422Y23476D01*
X35194Y23343D01*
X35007Y23156D01*
X34874Y22928D01*
X34806Y22672D01*
Y22408D01*
X34874Y22152D01*
X35007Y21924D01*
X35194Y21737D01*
X35422Y21604D01*
X35678Y21536D01*
X35942D01*
X36198Y21604D01*
X36426Y21737D01*
X36613Y21924D01*
X36746Y22152D01*
X36814Y22408D01*
Y22672D01*
X36746Y22928D01*
X36613Y23156D01*
X36426Y23343D01*
X36198Y23476D01*
X35942Y23544D01*
D02*
G37*
G36*
X28322D02*
X28058D01*
X27802Y23476D01*
X27574Y23343D01*
X27387Y23156D01*
X27254Y22928D01*
X27186Y22672D01*
Y22408D01*
X27254Y22152D01*
X27387Y21924D01*
X27574Y21737D01*
X27802Y21604D01*
X28058Y21536D01*
X28322D01*
X28578Y21604D01*
X28806Y21737D01*
X28993Y21924D01*
X29126Y22152D01*
X29194Y22408D01*
Y22672D01*
X29126Y22928D01*
X28993Y23156D01*
X28806Y23343D01*
X28578Y23476D01*
X28322Y23544D01*
D02*
G37*
G36*
X8379Y20379D02*
X7627D01*
Y19627D01*
X8379D01*
Y20379D01*
D02*
G37*
G36*
X7373D02*
X6621D01*
Y19627D01*
X7373D01*
Y20379D01*
D02*
G37*
G36*
X35942Y21004D02*
X35678D01*
X35422Y20936D01*
X35194Y20803D01*
X35007Y20616D01*
X34874Y20388D01*
X34806Y20132D01*
Y19868D01*
X34874Y19612D01*
X35007Y19384D01*
X35194Y19197D01*
X35422Y19064D01*
X35678Y18996D01*
X35942D01*
X36198Y19064D01*
X36426Y19197D01*
X36613Y19384D01*
X36746Y19612D01*
X36814Y19868D01*
Y20132D01*
X36746Y20388D01*
X36613Y20616D01*
X36426Y20803D01*
X36198Y20936D01*
X35942Y21004D01*
D02*
G37*
G36*
X28322D02*
X28058D01*
X27802Y20936D01*
X27574Y20803D01*
X27387Y20616D01*
X27254Y20388D01*
X27186Y20132D01*
Y19868D01*
X27254Y19612D01*
X27387Y19384D01*
X27574Y19197D01*
X27802Y19064D01*
X28058Y18996D01*
X28322D01*
X28578Y19064D01*
X28806Y19197D01*
X28993Y19384D01*
X29126Y19612D01*
X29194Y19868D01*
Y20132D01*
X29126Y20388D01*
X28993Y20616D01*
X28806Y20803D01*
X28578Y20936D01*
X28322Y21004D01*
D02*
G37*
G36*
X8379Y19373D02*
X7627D01*
Y18621D01*
X8379D01*
Y19373D01*
D02*
G37*
G36*
X7373D02*
X6621D01*
Y18621D01*
X7373D01*
Y19373D01*
D02*
G37*
G36*
X18879Y18379D02*
X18127D01*
Y17627D01*
X18879D01*
Y18379D01*
D02*
G37*
G36*
X17873D02*
X17121D01*
Y17627D01*
X17873D01*
Y18379D01*
D02*
G37*
G36*
X24116D02*
X23884D01*
X23661Y18319D01*
X23460Y18203D01*
X23297Y18040D01*
X23181Y17839D01*
X23121Y17616D01*
Y17384D01*
X23181Y17161D01*
X23297Y16960D01*
X23460Y16797D01*
X23661Y16681D01*
X23884Y16621D01*
X24116D01*
X24339Y16681D01*
X24540Y16797D01*
X24703Y16960D01*
X24819Y17161D01*
X24879Y17384D01*
Y17616D01*
X24819Y17839D01*
X24703Y18040D01*
X24540Y18203D01*
X24339Y18319D01*
X24116Y18379D01*
D02*
G37*
G36*
X18879Y17373D02*
X18127D01*
Y16621D01*
X18879D01*
Y17373D01*
D02*
G37*
G36*
X17873D02*
X17121D01*
Y16621D01*
X17873D01*
Y17373D01*
D02*
G37*
G36*
X35942Y18464D02*
X35678D01*
X35422Y18396D01*
X35194Y18263D01*
X35007Y18076D01*
X34874Y17848D01*
X34806Y17592D01*
Y17328D01*
X34874Y17072D01*
X35007Y16844D01*
X35194Y16657D01*
X35422Y16524D01*
X35678Y16456D01*
X35942D01*
X36198Y16524D01*
X36426Y16657D01*
X36613Y16844D01*
X36746Y17072D01*
X36814Y17328D01*
Y17592D01*
X36746Y17848D01*
X36613Y18076D01*
X36426Y18263D01*
X36198Y18396D01*
X35942Y18464D01*
D02*
G37*
G36*
X28322D02*
X28058D01*
X27802Y18396D01*
X27574Y18263D01*
X27387Y18076D01*
X27254Y17848D01*
X27186Y17592D01*
Y17328D01*
X27254Y17072D01*
X27387Y16844D01*
X27574Y16657D01*
X27802Y16524D01*
X28058Y16456D01*
X28322D01*
X28578Y16524D01*
X28806Y16657D01*
X28993Y16844D01*
X29126Y17072D01*
X29194Y17328D01*
Y17592D01*
X29126Y17848D01*
X28993Y18076D01*
X28806Y18263D01*
X28578Y18396D01*
X28322Y18464D01*
D02*
G37*
G36*
X50635Y24069D02*
X50365D01*
X50103Y23999D01*
X49868Y23863D01*
X49677Y23672D01*
X49541Y23437D01*
X49471Y23175D01*
Y22905D01*
X49541Y22643D01*
X49677Y22408D01*
X49868Y22217D01*
X50103Y22081D01*
X50365Y22011D01*
Y21529D01*
X50103Y21459D01*
X49868Y21323D01*
X49677Y21132D01*
X49541Y20897D01*
X49471Y20635D01*
Y20365D01*
X49541Y20103D01*
X49677Y19868D01*
X49868Y19677D01*
X50103Y19541D01*
X50365Y19471D01*
Y18989D01*
X50103Y18919D01*
X49868Y18783D01*
X49677Y18592D01*
X49541Y18357D01*
X49471Y18095D01*
Y17825D01*
X49541Y17563D01*
X49677Y17328D01*
X49868Y17137D01*
X50103Y17001D01*
X50229Y16967D01*
X50297Y16949D01*
X50248Y16573D01*
X50248D01*
X50248Y16573D01*
X49799Y16449D01*
X49471D01*
Y15547D01*
X50500D01*
X51529D01*
Y16449D01*
X51201D01*
X50752Y16573D01*
X50752Y16573D01*
X50752D01*
X50703Y16949D01*
X50771Y16967D01*
X50897Y17001D01*
X51132Y17137D01*
X51323Y17328D01*
X51459Y17563D01*
X51529Y17825D01*
Y18095D01*
X51459Y18357D01*
X51323Y18592D01*
X51132Y18783D01*
X50897Y18919D01*
X50635Y18989D01*
Y19471D01*
X50897Y19541D01*
X51132Y19677D01*
X51323Y19868D01*
X51459Y20103D01*
X51529Y20365D01*
Y20635D01*
X51459Y20897D01*
X51323Y21132D01*
X51132Y21323D01*
X50897Y21459D01*
X50635Y21529D01*
Y22011D01*
X50897Y22081D01*
X51132Y22217D01*
X51323Y22408D01*
X51459Y22643D01*
X51529Y22905D01*
Y23175D01*
X51459Y23437D01*
X51323Y23672D01*
X51132Y23863D01*
X50897Y23999D01*
X50635Y24069D01*
D02*
G37*
G36*
X41379Y15879D02*
X40627D01*
Y15127D01*
X41379D01*
Y15879D01*
D02*
G37*
G36*
X40373D02*
X39621D01*
Y15127D01*
X40373D01*
Y15879D01*
D02*
G37*
G36*
X51529Y15293D02*
X50627D01*
Y14391D01*
X51529D01*
Y15293D01*
D02*
G37*
G36*
X50373D02*
X49471D01*
Y14391D01*
X50373D01*
Y15293D01*
D02*
G37*
G36*
X41379Y14873D02*
X40627D01*
Y14121D01*
X41379D01*
Y14873D01*
D02*
G37*
G36*
X40373D02*
X39621D01*
Y14121D01*
X40373D01*
Y14873D01*
D02*
G37*
G36*
X35942Y15924D02*
X35678D01*
X35422Y15856D01*
X35194Y15723D01*
X35007Y15536D01*
X34874Y15308D01*
X34806Y15052D01*
Y14788D01*
X34874Y14532D01*
X35007Y14304D01*
X35194Y14117D01*
X35422Y13984D01*
X35678Y13916D01*
X35942D01*
X36198Y13984D01*
X36426Y14117D01*
X36613Y14304D01*
X36746Y14532D01*
X36814Y14788D01*
Y15052D01*
X36746Y15308D01*
X36613Y15536D01*
X36426Y15723D01*
X36198Y15856D01*
X35942Y15924D01*
D02*
G37*
G36*
X28322D02*
X28058D01*
X27802Y15856D01*
X27574Y15723D01*
X27387Y15536D01*
X27254Y15308D01*
X27186Y15052D01*
Y14788D01*
X27254Y14532D01*
X27387Y14304D01*
X27574Y14117D01*
X27802Y13984D01*
X28058Y13916D01*
X28322D01*
X28578Y13984D01*
X28806Y14117D01*
X28993Y14304D01*
X29126Y14532D01*
X29194Y14788D01*
Y15052D01*
X29126Y15308D01*
X28993Y15536D01*
X28806Y15723D01*
X28578Y15856D01*
X28322Y15924D01*
D02*
G37*
G36*
X35942Y13384D02*
X35678D01*
X35422Y13316D01*
X35194Y13183D01*
X35007Y12996D01*
X34874Y12768D01*
X34806Y12512D01*
Y12248D01*
X34874Y11992D01*
X35007Y11764D01*
X35194Y11577D01*
X35422Y11444D01*
X35678Y11376D01*
X35942D01*
X36198Y11444D01*
X36426Y11577D01*
X36613Y11764D01*
X36746Y11992D01*
X36814Y12248D01*
Y12512D01*
X36746Y12768D01*
X36613Y12996D01*
X36426Y13183D01*
X36198Y13316D01*
X35942Y13384D01*
D02*
G37*
G36*
X28322D02*
X28058D01*
X27802Y13316D01*
X27574Y13183D01*
X27387Y12996D01*
X27254Y12768D01*
X27186Y12512D01*
Y12248D01*
X27254Y11992D01*
X27387Y11764D01*
X27574Y11577D01*
X27802Y11444D01*
X28058Y11376D01*
X28322D01*
X28578Y11444D01*
X28806Y11577D01*
X28993Y11764D01*
X29126Y11992D01*
X29194Y12248D01*
Y12512D01*
X29126Y12768D01*
X28993Y12996D01*
X28806Y13183D01*
X28578Y13316D01*
X28322Y13384D01*
D02*
G37*
G36*
X3529Y11569D02*
X2627D01*
Y10667D01*
X3529D01*
Y11569D01*
D02*
G37*
G36*
X2373D02*
X1471D01*
Y10667D01*
X2373D01*
Y11569D01*
D02*
G37*
G36*
X8529Y11529D02*
X7627D01*
Y10627D01*
X8529D01*
Y11529D01*
D02*
G37*
G36*
X7373D02*
X6471D01*
Y10627D01*
X7373D01*
Y11529D01*
D02*
G37*
G36*
X8529Y10373D02*
X7500D01*
X6471D01*
Y9471D01*
X6799D01*
X7248Y9347D01*
X7248Y9347D01*
X7248D01*
X7297Y8971D01*
X7229Y8953D01*
X7103Y8919D01*
X6868Y8783D01*
X6677Y8592D01*
X6541Y8357D01*
X6471Y8095D01*
Y7825D01*
X6541Y7563D01*
X6677Y7328D01*
X6868Y7137D01*
X7103Y7001D01*
X7365Y6931D01*
X7635D01*
X7897Y7001D01*
X8132Y7137D01*
X8323Y7328D01*
X8459Y7563D01*
X8529Y7825D01*
Y8095D01*
X8459Y8357D01*
X8323Y8592D01*
X8132Y8783D01*
X7897Y8919D01*
X7771Y8953D01*
X7703Y8971D01*
X7752Y9347D01*
X7752D01*
X7752Y9347D01*
X8201Y9471D01*
X8529D01*
Y10373D01*
D02*
G37*
G36*
X40533Y3855D02*
X39708D01*
X39534Y3832D01*
X39371Y3765D01*
X39232Y3658D01*
X39125Y3519D01*
X39058Y3356D01*
X39055Y3333D01*
X38801Y3254D01*
X38541Y3263D01*
X38443Y3433D01*
X38243Y3633D01*
X37996Y3775D01*
X37722Y3849D01*
X37707D01*
Y2770D01*
Y1691D01*
X37722D01*
X37996Y1765D01*
X38243Y1907D01*
X38443Y2107D01*
X38541Y2277D01*
X38801Y2286D01*
X39055Y2207D01*
X39058Y2184D01*
X39125Y2021D01*
X39232Y1882D01*
X39371Y1775D01*
X39534Y1708D01*
X39708Y1685D01*
X40533D01*
X40706Y1708D01*
X40869Y1775D01*
X41008Y1882D01*
X41115Y2021D01*
X41182Y2184D01*
X41205Y2358D01*
Y3182D01*
X41182Y3356D01*
X41115Y3519D01*
X41008Y3658D01*
X40869Y3765D01*
X40706Y3832D01*
X40533Y3855D01*
D02*
G37*
G36*
X37453Y3849D02*
X37438D01*
X37164Y3775D01*
X36917Y3633D01*
X36717Y3433D01*
X36575Y3186D01*
X36569Y3165D01*
X36051D01*
X36045Y3186D01*
X35903Y3433D01*
X35703Y3633D01*
X35456Y3775D01*
X35182Y3849D01*
X34898D01*
X34624Y3775D01*
X34377Y3633D01*
X34177Y3433D01*
X34035Y3186D01*
X34029Y3165D01*
X33511D01*
X33505Y3186D01*
X33363Y3433D01*
X33163Y3633D01*
X32916Y3775D01*
X32642Y3849D01*
X32358D01*
X32084Y3775D01*
X31837Y3633D01*
X31637Y3433D01*
X31495Y3186D01*
X31489Y3165D01*
X30971D01*
X30965Y3186D01*
X30823Y3433D01*
X30623Y3633D01*
X30376Y3775D01*
X30102Y3849D01*
X29818D01*
X29544Y3775D01*
X29297Y3633D01*
X29097Y3433D01*
X28955Y3186D01*
X28949Y3165D01*
X28431D01*
X28425Y3186D01*
X28283Y3433D01*
X28083Y3633D01*
X27836Y3775D01*
X27562Y3849D01*
X27278D01*
X27004Y3775D01*
X26757Y3633D01*
X26557Y3433D01*
X26415Y3186D01*
X26409Y3165D01*
X25891D01*
X25885Y3186D01*
X25743Y3433D01*
X25543Y3633D01*
X25296Y3775D01*
X25022Y3849D01*
X24738D01*
X24464Y3775D01*
X24217Y3633D01*
X24017Y3433D01*
X23875Y3186D01*
X23801Y2912D01*
Y2628D01*
X23875Y2354D01*
X24017Y2107D01*
X24217Y1907D01*
X24464Y1765D01*
X24738Y1691D01*
X25022D01*
X25296Y1765D01*
X25543Y1907D01*
X25743Y2107D01*
X25885Y2354D01*
X25891Y2375D01*
X26409D01*
X26415Y2354D01*
X26557Y2107D01*
X26757Y1907D01*
X27004Y1765D01*
X27278Y1691D01*
X27562D01*
X27836Y1765D01*
X28083Y1907D01*
X28283Y2107D01*
X28425Y2354D01*
X28431Y2375D01*
X28949D01*
X28955Y2354D01*
X29097Y2107D01*
X29297Y1907D01*
X29544Y1765D01*
X29818Y1691D01*
X30102D01*
X30376Y1765D01*
X30623Y1907D01*
X30823Y2107D01*
X30965Y2354D01*
X30971Y2375D01*
X31489D01*
X31495Y2354D01*
X31637Y2107D01*
X31837Y1907D01*
X32084Y1765D01*
X32358Y1691D01*
X32642D01*
X32916Y1765D01*
X33163Y1907D01*
X33363Y2107D01*
X33505Y2354D01*
X33511Y2375D01*
X34029D01*
X34035Y2354D01*
X34177Y2107D01*
X34377Y1907D01*
X34624Y1765D01*
X34898Y1691D01*
X35182D01*
X35456Y1765D01*
X35703Y1907D01*
X35903Y2107D01*
X36045Y2354D01*
X36051Y2375D01*
X36569D01*
X36575Y2354D01*
X36717Y2107D01*
X36917Y1907D01*
X37164Y1765D01*
X37438Y1691D01*
X37453D01*
Y2770D01*
Y3849D01*
D02*
G37*
G36*
X3529Y10413D02*
X2500D01*
X1471D01*
Y9511D01*
X1799D01*
X2248Y9387D01*
X2248Y9387D01*
X2248D01*
X2297Y9011D01*
X2229Y8993D01*
X2103Y8959D01*
X1868Y8823D01*
X1677Y8632D01*
X1541Y8397D01*
X1471Y8135D01*
Y7865D01*
X1541Y7603D01*
X1677Y7368D01*
X1868Y7177D01*
X2103Y7041D01*
X2365Y6971D01*
Y6489D01*
X2103Y6419D01*
X1868Y6283D01*
X1677Y6092D01*
X1541Y5857D01*
X1471Y5595D01*
Y5325D01*
X1541Y5063D01*
X1677Y4828D01*
X1868Y4637D01*
X2103Y4501D01*
X2365Y4431D01*
Y3949D01*
X2103Y3879D01*
X1868Y3743D01*
X1677Y3552D01*
X1541Y3317D01*
X1471Y3055D01*
Y2785D01*
X1541Y2523D01*
X1677Y2288D01*
X1868Y2097D01*
X2103Y1961D01*
X2365Y1891D01*
X2635D01*
X2897Y1961D01*
X3132Y2097D01*
X3323Y2288D01*
X3459Y2523D01*
X3529Y2785D01*
Y3055D01*
X3459Y3317D01*
X3323Y3552D01*
X3132Y3743D01*
X2897Y3879D01*
X2635Y3949D01*
Y4431D01*
X2897Y4501D01*
X3132Y4637D01*
X3323Y4828D01*
X3459Y5063D01*
X3529Y5325D01*
Y5595D01*
X3459Y5857D01*
X3323Y6092D01*
X3132Y6283D01*
X2897Y6419D01*
X2635Y6489D01*
Y6971D01*
X2897Y7041D01*
X3132Y7177D01*
X3323Y7368D01*
X3459Y7603D01*
X3529Y7865D01*
Y8135D01*
X3459Y8397D01*
X3323Y8632D01*
X3132Y8823D01*
X2897Y8959D01*
X2771Y8993D01*
X2703Y9011D01*
X2752Y9387D01*
X2752D01*
X2752Y9387D01*
X3201Y9511D01*
X3529D01*
Y10413D01*
D02*
G37*
%LPD*%
D15*
X50500Y31425D02*
D03*
X47960Y33965D02*
D03*
X18000Y27500D02*
D03*
X7500Y24500D02*
D03*
X3500Y31500D02*
D03*
X28500Y32500D02*
D03*
X13500Y41500D02*
D03*
X40500Y25000D02*
D03*
X3500Y36500D02*
D03*
X24000Y17500D02*
D03*
D16*
X53040Y33965D02*
D03*
X18500Y32500D02*
D03*
X13500Y31500D02*
D03*
Y36500D02*
D03*
X3500Y41500D02*
D03*
D17*
X18500Y37000D02*
D03*
Y38500D02*
D03*
D18*
Y40000D02*
D03*
D19*
X28190Y20000D02*
D03*
X35810Y27620D02*
D03*
Y12380D02*
D03*
Y14920D02*
D03*
Y17460D02*
D03*
Y20000D02*
D03*
Y22540D02*
D03*
Y25080D02*
D03*
X28190Y12380D02*
D03*
Y14920D02*
D03*
Y17460D02*
D03*
Y22540D02*
D03*
Y25080D02*
D03*
D20*
X28000Y40040D02*
D03*
X50500Y15420D02*
D03*
X7500Y10500D02*
D03*
X2500Y10540D02*
D03*
X38250Y30750D02*
D03*
D21*
X40500Y15000D02*
D03*
X18000Y17500D02*
D03*
X7500Y19500D02*
D03*
X24000Y27500D02*
D03*
D22*
X37580Y2770D02*
D03*
X24880D02*
D03*
X27420D02*
D03*
X29960D02*
D03*
X32500D02*
D03*
X35040D02*
D03*
D23*
X28190Y27620D02*
D03*
D24*
X28000Y37500D02*
D03*
X7500Y7960D02*
D03*
X42750Y37250D02*
D03*
Y30750D02*
D03*
X38250Y37250D02*
D03*
X50500Y17960D02*
D03*
Y20500D02*
D03*
Y23040D02*
D03*
X2500Y8000D02*
D03*
Y5460D02*
D03*
Y2920D02*
D03*
D25*
X40120Y2770D02*
D03*
M02*
