M48
;Layer_Color=9474304
;FILE_FORMAT=4:3
METRIC,LZ
;TYPE=PLATED
T01F00S00C0.750
T02F00S00C0.800
T03F00S00C0.900
T04F00S00C1.000
T05F00S00C1.020
T06F00S00C1.100
%
T01
X00505Y0031425
X005304Y0033965
X004796
X00405Y0025
Y0015
X0024Y00175
X0018
Y00275
X00185Y00325
X00135Y00315
Y00365
Y00415
X00285Y00325
X0024Y00275
X00075Y00245
Y00195
X00035Y00315
Y00365
Y00415
T02
X00185Y0037
Y00385
Y004
T03
X002819Y001238
X003581
Y001492
Y001746
Y002
Y002254
Y002508
Y002762
X002819
Y002508
Y002254
Y002
Y001746
Y001492
T04
X003825Y003075
X004275
Y003725
X003825
T05
X00025Y000292
Y000546
Y0008
Y001054
X00075Y00105
Y000796
X00505Y001542
Y001796
Y00205
Y002304
X0028Y00375
Y004004
T06
X002488Y000277
X002742
X002996
X00325
X003504
X003758
X004012
M30
